<mxfile host="app.diagrams.net" modified="2022-08-14T09:44:14.816Z" agent="5.0 (Windows NT 10.0; Win64; x64) AppleWebKit/537.36 (KHTML, like Gecko) Chrome/104.0.0.0 Safari/537.36" etag="xo9VglYmE2uKIXsCH0za" version="20.2.3" type="github">
  <diagram id="u2l9Zt-yLO_Qi3WcgOfx" name="第 1 页">
    <mxGraphModel dx="2249" dy="754" grid="1" gridSize="10" guides="1" tooltips="1" connect="1" arrows="1" fold="1" page="1" pageScale="1" pageWidth="827" pageHeight="1169" math="0" shadow="0">
      <root>
        <mxCell id="0" />
        <mxCell id="1" parent="0" />
        <mxCell id="zwbNrjH0XnWn8lKJkrUz-2" value="记录B" style="rounded=1;whiteSpace=wrap;html=1;fillColor=#ffe6cc;strokeColor=#d79b00;sketch=1;fontStyle=1;fontFamily=Comic Sans MS;" parent="1" vertex="1">
          <mxGeometry x="300" y="260" width="120" height="60" as="geometry" />
        </mxCell>
        <mxCell id="zwbNrjH0XnWn8lKJkrUz-3" value="记录A" style="rounded=1;whiteSpace=wrap;html=1;fillColor=#ffe6cc;strokeColor=#d79b00;sketch=1;fontStyle=1;fontFamily=Comic Sans MS;" parent="1" vertex="1">
          <mxGeometry x="294" y="100" width="120" height="60" as="geometry" />
        </mxCell>
        <mxCell id="zwbNrjH0XnWn8lKJkrUz-7" style="edgeStyle=orthogonalEdgeStyle;curved=1;rounded=0;sketch=1;orthogonalLoop=1;jettySize=auto;html=1;entryX=0;entryY=0.5;entryDx=0;entryDy=0;fontFamily=Comic Sans MS;fillColor=#f8cecc;strokeColor=#b85450;" parent="1" target="zwbNrjH0XnWn8lKJkrUz-3" edge="1">
          <mxGeometry relative="1" as="geometry">
            <mxPoint x="130" y="179.99763833671747" as="sourcePoint" />
            <mxPoint x="274" y="127.71" as="targetPoint" />
            <Array as="points">
              <mxPoint x="130" y="130" />
            </Array>
          </mxGeometry>
        </mxCell>
        <mxCell id="zwbNrjH0XnWn8lKJkrUz-9" value="&lt;b&gt;事务A获取记录A的锁&lt;/b&gt;&lt;b&gt;，待释放&lt;/b&gt;" style="edgeLabel;html=1;align=center;verticalAlign=middle;resizable=0;points=[];fontFamily=Comic Sans MS;" parent="zwbNrjH0XnWn8lKJkrUz-7" vertex="1" connectable="0">
          <mxGeometry x="-0.2026" y="-11" relative="1" as="geometry">
            <mxPoint x="1" as="offset" />
          </mxGeometry>
        </mxCell>
        <mxCell id="zwbNrjH0XnWn8lKJkrUz-10" style="edgeStyle=orthogonalEdgeStyle;curved=1;rounded=0;sketch=1;orthogonalLoop=1;jettySize=auto;html=1;exitX=0.5;exitY=1;exitDx=0;exitDy=0;entryX=0;entryY=0.75;entryDx=0;entryDy=0;fontFamily=Comic Sans MS;dashed=1;" parent="1" source="zwbNrjH0XnWn8lKJkrUz-4" target="zwbNrjH0XnWn8lKJkrUz-2" edge="1">
          <mxGeometry relative="1" as="geometry" />
        </mxCell>
        <mxCell id="zwbNrjH0XnWn8lKJkrUz-13" value="&lt;b&gt;事务A获取记录B的锁，等待事务B释放&lt;/b&gt;" style="edgeLabel;html=1;align=center;verticalAlign=middle;resizable=0;points=[];fontFamily=Comic Sans MS;" parent="zwbNrjH0XnWn8lKJkrUz-10" vertex="1" connectable="0">
          <mxGeometry x="0.0144" y="7" relative="1" as="geometry">
            <mxPoint x="-31" y="-18" as="offset" />
          </mxGeometry>
        </mxCell>
        <mxCell id="zwbNrjH0XnWn8lKJkrUz-4" value="事务A" style="ellipse;whiteSpace=wrap;html=1;fillColor=#ffe6cc;strokeColor=#d79b00;sketch=1;fontStyle=1;fontFamily=Comic Sans MS;" parent="1" vertex="1">
          <mxGeometry x="70" y="180" width="120" height="80" as="geometry" />
        </mxCell>
        <mxCell id="zwbNrjH0XnWn8lKJkrUz-6" style="edgeStyle=orthogonalEdgeStyle;rounded=0;orthogonalLoop=1;jettySize=auto;html=1;exitX=0.5;exitY=1;exitDx=0;exitDy=0;entryX=1;entryY=0.75;entryDx=0;entryDy=0;fontFamily=Comic Sans MS;sketch=1;curved=1;fillColor=#f8cecc;strokeColor=#b85450;" parent="1" source="zwbNrjH0XnWn8lKJkrUz-5" target="zwbNrjH0XnWn8lKJkrUz-2" edge="1">
          <mxGeometry relative="1" as="geometry" />
        </mxCell>
        <mxCell id="zwbNrjH0XnWn8lKJkrUz-8" value="&lt;b&gt;事务B获取到记录B的锁，待释放&lt;/b&gt;" style="edgeLabel;html=1;align=center;verticalAlign=middle;resizable=0;points=[];fontFamily=Comic Sans MS;" parent="zwbNrjH0XnWn8lKJkrUz-6" vertex="1" connectable="0">
          <mxGeometry x="-0.276" y="-18" relative="1" as="geometry">
            <mxPoint as="offset" />
          </mxGeometry>
        </mxCell>
        <mxCell id="zwbNrjH0XnWn8lKJkrUz-11" style="edgeStyle=orthogonalEdgeStyle;curved=1;rounded=0;sketch=1;orthogonalLoop=1;jettySize=auto;html=1;exitX=0.5;exitY=0;exitDx=0;exitDy=0;entryX=1;entryY=0.383;entryDx=0;entryDy=0;entryPerimeter=0;fontFamily=Comic Sans MS;dashed=1;" parent="1" source="zwbNrjH0XnWn8lKJkrUz-5" target="zwbNrjH0XnWn8lKJkrUz-3" edge="1">
          <mxGeometry relative="1" as="geometry" />
        </mxCell>
        <mxCell id="zwbNrjH0XnWn8lKJkrUz-12" value="事务B获取记录A的锁，等待事务A释放" style="edgeLabel;html=1;align=center;verticalAlign=middle;resizable=0;points=[];fontFamily=Comic Sans MS;fontStyle=1" parent="zwbNrjH0XnWn8lKJkrUz-11" vertex="1" connectable="0">
          <mxGeometry x="-0.0892" y="10" relative="1" as="geometry">
            <mxPoint x="40" y="17" as="offset" />
          </mxGeometry>
        </mxCell>
        <mxCell id="zwbNrjH0XnWn8lKJkrUz-5" value="事务B" style="ellipse;whiteSpace=wrap;html=1;fillColor=#ffe6cc;strokeColor=#d79b00;sketch=1;fontStyle=1;fontFamily=Comic Sans MS;" parent="1" vertex="1">
          <mxGeometry x="520" y="170" width="120" height="80" as="geometry" />
        </mxCell>
        <mxCell id="zwbNrjH0XnWn8lKJkrUz-14" value="两个事务都在等待对方锁的释放，导致发生死锁。" style="text;html=1;strokeColor=#d79b00;fillColor=#ffe6cc;align=center;verticalAlign=middle;whiteSpace=wrap;rounded=0;sketch=1;fontFamily=Comic Sans MS;fontStyle=1;fontColor=#FF0000;" parent="1" vertex="1">
          <mxGeometry x="210" y="190" width="270" height="30" as="geometry" />
        </mxCell>
        <mxCell id="zwbNrjH0XnWn8lKJkrUz-16" value="" style="ellipse;whiteSpace=wrap;html=1;aspect=fixed;sketch=1;fontFamily=Comic Sans MS;fillColor=#ffe6cc;strokeColor=#d79b00;" parent="1" vertex="1">
          <mxGeometry x="160" y="370" width="180" height="180" as="geometry" />
        </mxCell>
        <mxCell id="zwbNrjH0XnWn8lKJkrUz-17" value="" style="ellipse;whiteSpace=wrap;html=1;aspect=fixed;sketch=1;fontFamily=Comic Sans MS;fillColor=#dae8fc;strokeColor=#6c8ebf;" parent="1" vertex="1">
          <mxGeometry x="321" y="370" width="180" height="180" as="geometry" />
        </mxCell>
        <mxCell id="zwbNrjH0XnWn8lKJkrUz-18" value="" style="ellipse;whiteSpace=wrap;html=1;aspect=fixed;sketch=1;fontFamily=Comic Sans MS;fillColor=#e1d5e7;strokeColor=#9673a6;" parent="1" vertex="1">
          <mxGeometry x="241.5" y="500" width="190" height="190" as="geometry" />
        </mxCell>
        <mxCell id="zwbNrjH0XnWn8lKJkrUz-19" value="CA" style="text;html=1;strokeColor=none;fillColor=none;align=center;verticalAlign=middle;whiteSpace=wrap;rounded=0;sketch=1;fontFamily=Comic Sans MS;fontColor=#FF0000;fontStyle=1" parent="1" vertex="1">
          <mxGeometry x="260" y="510" width="60" height="30" as="geometry" />
        </mxCell>
        <mxCell id="zwbNrjH0XnWn8lKJkrUz-20" value="&lt;b&gt;CP&lt;/b&gt;" style="text;html=1;strokeColor=none;fillColor=none;align=center;verticalAlign=middle;whiteSpace=wrap;rounded=0;sketch=1;fontFamily=Comic Sans MS;fontColor=#FF0000;" parent="1" vertex="1">
          <mxGeometry x="340" y="510" width="60" height="30" as="geometry" />
        </mxCell>
        <mxCell id="zwbNrjH0XnWn8lKJkrUz-21" value="&lt;b&gt;AP&lt;/b&gt;" style="text;html=1;strokeColor=none;fillColor=none;align=center;verticalAlign=middle;whiteSpace=wrap;rounded=0;sketch=1;fontFamily=Comic Sans MS;fontColor=#FF0000;" parent="1" vertex="1">
          <mxGeometry x="300" y="440" width="60" height="30" as="geometry" />
        </mxCell>
        <mxCell id="zwbNrjH0XnWn8lKJkrUz-22" value="&lt;b&gt;Availability&lt;br&gt;(可用性)&lt;/b&gt;" style="text;html=1;strokeColor=none;fillColor=none;align=center;verticalAlign=middle;whiteSpace=wrap;rounded=0;sketch=1;fontFamily=Comic Sans MS;fontColor=#FF0000;" parent="1" vertex="1">
          <mxGeometry x="210" y="430" width="60" height="30" as="geometry" />
        </mxCell>
        <mxCell id="zwbNrjH0XnWn8lKJkrUz-23" value="Partition tolerance&lt;br&gt;（分区容错性）" style="text;html=1;strokeColor=none;fillColor=none;align=center;verticalAlign=middle;whiteSpace=wrap;rounded=0;sketch=1;fontFamily=Comic Sans MS;fontColor=#FF0000;fontStyle=1" parent="1" vertex="1">
          <mxGeometry x="370" y="440" width="120" height="30" as="geometry" />
        </mxCell>
        <mxCell id="zwbNrjH0XnWn8lKJkrUz-24" value="Consistency&lt;br&gt;（一致性）" style="text;html=1;strokeColor=none;fillColor=none;align=center;verticalAlign=middle;whiteSpace=wrap;rounded=0;sketch=1;fontFamily=Comic Sans MS;fontColor=#FF0000;fontStyle=1" parent="1" vertex="1">
          <mxGeometry x="294" y="580" width="85" height="30" as="geometry" />
        </mxCell>
        <mxCell id="4WqvR_2e5_eg9FRiqzZN-1" value="" style="shape=image;verticalLabelPosition=bottom;labelBackgroundColor=default;verticalAlign=top;aspect=fixed;imageAspect=0;image=data:image/png,iVBORw0KGgoAAAANSUhEUgAAA98AAAI1CAYAAADPW0ngAAAgAElEQVR4nOzdfXyVdeH/8dd1dnfGnWeACKbIgSGCUAxvGYnGQts0I0VIvpmUuWVWYGpFqPXDGyo1RlnJyNJMbHiHFpuIWFoMlWQWN3NsMFJkE2U7sLGdbeec6/fHudm523bOOGPcvJ+Px3nsnOtzXZ/r89k1yvf5fK7PZTQ2Npo1NTUkJSUxYsQIMjIyEBEREREREZHESd6/fz9JSUmcffbZJCcn93V7RERERERERE44lgMHDjBixAgFbxEREREREZFeYhkyZIimmouIiIiIiIj0IsuAAQP6ug0iIiIiIiIiJ7Tk/v37x33QqqdXUbOnhvr99QAMHjYY+yg7866fl+j2iYiIiIiIiBz3DNM0zVh3XvX0Kmr31mLPtDPiVBs2m3e6usPRQM0HdWzfUcO5ExTCRURERERERILFHL4fW/kY6UPTmTp2PPZzxgPgdAFOJ1arFVxOaupqee3vZQDcdPNNvdZoERERERERkeNJTOF71dOrAMibOQPbw7+mzungqewp7Nu7G1xwum0wM7KyyDpnCk5nA489U0KGLaPrEfCGcp7dADmzs8gI2fwsW2yzybFHHED5s89Qf15+R1lDOc9usTE7x+59/8xmMmbmhx5bs4Gi3aPJz7EDNWwo2s3o/BzCqw89bw0bitazK7wJgy/gutlZZPjasrm+o2jMzHymOJ7lmeCNgf1FREREREROPhs3bmTHjh10FjsNw2DChAlMmzbtKLesa3/5y1+YfumlnD5iRNTyfbW1vPH663zlK1+Juc6Yni9Ws6eGa76ch81mo+6F5xle+R4z/m8DWV++idt/dz/ZU7N5bfMWKj6oY97MPGZ8Lps/P1UScyMAajYUsXt0PlM6Ld8AOfnkZIQF6F3rKdqFN+jm5/uCbgPlz27BNjssZNfsZteY0eREqT8j6zx4tpwGuy8sRwTnGjY86wg6YgwzfW1oKH+WLb6tgy+4jtlZGVH2FxERERERObns2LGD2bNn09laY06nk+Li4mMufE+/9FJe27CBGTk5EQF8X21toCwe3YbvVU+vwp5pxz7czqb3yim79w5un/NNsi7IgXaTh29ZDMCzf38NkmHTe1sYP3QEo0cOZ9XTq7oe/a7fzDMbbOTnwO5dYxidA5RH7lazoYj1u4BdRWz2bdu1YTT5U4AxM32j2gSNhNuinKyB8nd2Qf0ub1j3G3MBFzRsDoxi73oWrpvdcXzNhmdxTJlNVsTw9S7WB1U0Zqa/S89Q5G/k4As6/TJBRERERETkRGeaJv379yc1NTVqeWpqaqej4n3p9BEjmJGTExHAg4N3Z6Pinek2fNfsqWHGJVOxWq2UlW9hn8MB7SakGHDb7bDsYQAevmUxdblTqfn7m1g/aSBjQDoVe2o6qXQDz+4GBl/AzMG72bChgV3UsysQZosCU74HX3Ads3PyyQ//UqFmAxv2DA7d5qiHwaOinrKhfAObM2aSPztiPjuQRRbeEexn6m0xTBPPIGt2Plkh9T/LBnLIz3ewoegdBl8XLbCLiIiIiIjI8SA8gAM9Dt4QQ/iu31+PzZaB0+lkX90+7r/tfm/Bd74PQEWKwfh27zcVtpV/oMU+AQbYsNqsgUeRhWtwNJAxeAwNDWAbNZiGzTAzf3bHFO7we75993OH1DZmJvk5sKFofchI9piZOUBD2AnfYUPDGK6bbfcG7F1jIu/FrtnAM5szmJnvvTe8Kw3lYfd2B3SMeu96xjdKP/gC8mdnRdlXREREREREjmXBARzocfCGGO/59rO6nCx+8HYevvNhWPYwNSkGtYC9yYF1QOhUb2uytdN69uyCwef5InJGFrPzYzh58D3YNRso2g1gJyc/P+o93CEyzvMuygaQNZv8UeU8W1QE/vuzG8p5dr03wa/fMDpylD28uqzZ5AfytHdxtoYLruO8+mdYT9A0eBERERERkQQpKiqKab/8/FgClhxt3YbvwcMGU/txA/Yz7Ay2nU72BR2juPZ2E2eKQfnQDLKqd1B792LSk7xlTpf32GiyZs+GhvLA1PLAPd0BHdPOx8zMJ8eG9/7wwM3UwJjRoSuZ+0bH/YE6a7YvQdtzyA/PwhlZzO5Iz9Rs2cWYmRfAbhuzR+/m2fLBvlHxGnbvqmdXQzmjQu4DD27vGGbm5/sWdssnv2YDRUXrg36BGvkWEREREZEjp1B99IUvrtar087to+zU7K0jOwuyJ42nbHM5UyfP6Cj/xUPU/OAOnJvKcfy1hOETzwGg9hMH9lGxjQDbg+7pjj7tnE5GvulktXPfPusjHhYWYozvsWT2nKAvA+w5zKaGDbsc3tXRBw8m/CsEe851XNDgf9SYd+G1MTPzySHsnL42i4iIiIiIyPEl2uJq0RZhi1W34Xve9fNYfPf91NTVkDUxm6kX54WUW2+7nfHfvRWSrWRd513ZvGZvDXV7a1i8aHFcjelStJFv6GS1c+9n72O/oNz7QHGy6Hi2OEGPB4tkJ2d2DRuKNjNm5kx4x+HbFryPHjUmIiIiIiLSFcMwcDqdna52fvjwYQzDOMqt6l5nq5p3tgp6LGK65/vcCXZe+/sWZmQ1kDHczvDhIyD4nm7fe6fLidPpZNOmTTGPesess5HvYF2sdh6X4Cnsdgcb3vEXeAP1lNmj0KPGREREREREujZhwgSKi4s7fZyYYRhMmDDhKLeqe2+8/nqn4dofwN94/XW+8pWvxFynYcb4ULXHVj6G0+XEPjwD+5l2rDZbIHSnW9OxJoPT2cLa0tcAuOnmm7qusME3Cn1ePc90NT188AVclwMbNkDObBtbitbjnWV+HbOzHGzwffYbM/M6Br/zDFEXI++s/tlZZPhHzUfvpmg9gVFtaKD82aD6xswkP8dG+bNbsM3OCV2hnQ0865gSMvI9JXxVdRERERERETnpxBy+AVY9vYrt1TWcPtRGhi0D29DhWNPTcTQ04GxysH1HDedOsDPv+nm92WYRERERERGR40pc4dtv1dOrqNlTE3iO9+Bhg7GPUugWERERERERiaZH4VtEREREREREYmfp6waIiIiIiIiInOgUvkVERERERER6mcK3iIiIiIiISC9T+BYRERERERHpZQrfIiIiIiIiIr1M4VtERERERESklyl8i4iIiIiIiPQyhW8RERERERE55qxdu5bDTndfNyNhFL5FREREREREellyXzdAREREREREpDMHDx7s6yYkhMK3iIiIiIiIHLNM08TpdOLxeHp0vMViwWq1YhhGQutyuVy0tbVhmmZMx3YZvlc9vYqaPTXU768HYPCwwdhH2Zl3/bweNVREREREREQkHk6nE5vNRmpqao+Ob2trw+FwkJ6entC64gne0En4XvX0Kmr31mLPtDPjkqnYbBkAOBwN1HxQx+K77+fcCQrhIiIiIiIi0rs8Hg+pqalYLD1bssxqtQZGuhNZVzzBG6IsuPbYysfACtfkzuCaL+Yx9eJs7JnjsZ9hZ+r52cz7Yh7fvPEaWppavPv2WDXLpxkUlHazW2kB05ZXR2wzuj3wKApuY2kBhmFEvCKaG3RM9fJpkX08lkW7Jh2FFETpf+SrgGPoCgbx/l12dT1KC7rv37F/PUspiOkaeH8f0f6WSwumccx3U0RERETkGBESvlc9vYr0AenkXTID+1PPUnfn7Tz8wlMs/t29LF75IA8/+RvK39uCffgI/u/LM3C6nKx6elUPT53Jgo0lkNf1f8CXrtnGnCszve9j+I/96uXTfME8MjQY05azvOAoBKP8EkzTDLyqCrMjdunoVzVrVxPoY2c6+hXY4u1fWKovTXT/on2ZkFdE2cKxnQTOXFYE9d00TUrysymsCt1mmivIjdK/0oLIPgXKe+P6RfRvLAvLiNq/4Gbll4T3J+hVkh+9/Z30z9+36ijbeq+/eRRRRF6gb2FfmoS0J5+SLv6Wown/dxhxSauXM80X/hP+NysiIiIicgwKCd81e2rIyhqPzWaj7oXnGV74W2bY7Tz83fvB2o/sqdm8trWCVetLsFozmPG5bLbvqInpRBFBOBAAylg4NjIkVwNUL+e+bXPw5tJS1gTed6J6OTeunkPVio5YFxKSNi5gwYoq5qy+MWEjdqUFQWHU3+6ivJD+jF1YFtHOQL9KH2RhWZTfQdjvIbxfVK9lNdlkF60JGb3MTXD/yF0RGaQL88kuLCQ/7EuGjQu8XyaEX+u8omj9Cxp1Depf7qx8COuT9wuKMvLvSvz1A8gurOoIlkF9Cv4ca+iMKrx/23YGBVtv3yhbzdqgPlXtKCN7zpWJ72/gepaQHxSqvX9a3s9Vhdlkz7mSzv+peYN66HUN+mIs2t9rl01K/DUVEREREYnX4p//LuorUQLhe9XTq7Bn2rEPt7PpvXKeuvcOALIuyAHg4VsWM/WcqexrclDb1MCm97Ywwmpl9MjhMY1+L9jYEWiijhqW5AdCkLlxAZlA9drVlE082xsCStdQVLaQsb6R1+CA6x81K31wIRPvWtBFaADIZMFdE1n4YGImPeeuCGr7xgVkhoVVMyTceHX0q5SCvCLv7yO4/0FfFmR20q/qtathzhPclV/EmpCuJLZ/fv6p1mtmbWTB2QBXsmLWGu81CBnWzAxca9Oswptfo40Qd4x8h/Qvdxb5hPWpei2ry/KZldsL/ctdwRPc6P2SZPUcqlaMDYzUZi7YSNWE+7xlO+4ixiwZIaR/YyeQHRK0q9hRlk9+fhk7qvzbqtm5Lds3GyLR19M/wh088h32RcjC8JkYHSPk3i+ScllhVlGY3TGjIXiwP7Z/h8F6529WRERERKQvvLBhMy9s2ByxLRC+a/bUYB8xHKvVSln5FvbV1UG77wby224PHPTwLYv5vz/9GS7OwWobQcaAdGr2xDb6DZB55Ry2rYn8j+zg6eW+LTwYGDGuZvl92zqmLpfkh4xQ+kdcd27LZsLYGBoxdgLZIaOPCbDjQaYVFARN3S2gNOT+Z//IYEe/qpffx7bCqm5CXbR+dUxVz52VT9F9oVOWE9k/f+jOK/J+LsoLGunv2BgI4aH3Q3uncBfldXJv9LTlVEf0Lxfv4HfH30j12tWU5c/qmKae4P4FZiaULWRsWJsDZUV5PVxnIKx/mVcyJzsoaJeuoSh/FndOyO7oc/VaVpdN5Gz/P4eE/r36bwuoojDbP/IddAtA5gI2mk/AjcFTxTubdu5vYzU7t3XS31j1xr9JEREREZE43f/DW0JeR8IfwP0/A+G7fn89NlsGTqeTfXX7uP+Wxd6C73wfgIoUI1CJbeUfaHEDA2xYbdbAo8hiknklc7bdFzrFNGR6uX/TfWzLzycbvGFk4l0s6HIorYodwYHFJzj4Be4rzTybiWU7qIqspAe8o9dl2ybwxIpZkF1IVfBIoO9zVeHEQL8oLCQb78jqxqBOhd9n7A0/UfpV+iAL8f2+cmeRHzZlOZH9y13hm6Ls60fkCHZQiFuR69vft72wJOosgMDsh40LyIzSv9w7C4Om0/umnM8K+oYiwf3zfpfj70uU+9OrCsnOL8Hs0dB3eP8yuXJOR9AuXVNE/qxcMq+c0xE+q3aEftmQwP5WL58W9MVIx4j2tOU7AVhT0PGlSYfwke9o/H3s/t+hYRgYYxcSUlNC/02KiIiIiMQueHp5IqabfznngsD74BHwqOurW11OFj/oG+1e9jA1j/ySWsDZ5IjcN9kaZ1MyWfDEHFbf6B+tLaVg7GrmPBE6TbWKOTxx5wTfIQvY2F3wqd7JtuwJhA+4BU957gi6Y5mQvY2dCRhmWz5tDbNK8jvukfVNjfcPCvs/j124LdCvO6+MXlf4tPMVudH7VbqmKOie3Fxm5ZexOiR9J65/Af4p/xGv8KDmVb38RhYuzIs64h0S4KJdt8wrmZPtm3oeMuW8F/vnb3PE/fdHuCp7lP51BO2gUeLMK5mD90uU0jVFZIcMHSeuv5kLNvru984OnUniM2tF2N8fEH3ku4odRP57i+XfYeALjZA9eueaioiIiIj0heAA7v8cCN+Dhw2m9uMG73vb6cye2ZEQ7e0mI4DyoRk491ZQe/di0pO8ZU6X99i4ZC5g4107fGHuPiZUbYwY1c5dEBTGw1ekDrvn25i2nOq4Rs6ij871xIKNwat2B6/0fSc7p61hVuCzt48h/YpFRL9KWVMUOkqeVwRlCx8MComJ619AlyPfYftWL+fB1USs+h519feo161jdDhiynkv9W/bfdMYu+MuSvI7vgTxvr+THt7q7RWtf/5t1WtZ7Z/BQCZnTyxjR1Xw/d5+Cexv9XKmhS90mFdE2cKFYaufd1fPTrb512OI1re4G9YLf7MiIiIiIjHqbLp5T6eed3nPt32UnZq9dQBkTxpP2ebykJ3tv3gImxucm8px/LWE4RPPAaD2Ewf2UfYeNcgreKGpToQvYhZ2z7d/YTKIceSseifbut8rbh1TeiOn9UYuTBYpfNp5x+OXgvpVuoaioJHIjpWrgxYp643+xTryXb2caTfCnXdNjFj1vdPV36Nct8wr55BddB83robCO8Piby/0b+JdGwPT5u/a4b0O902oCrktoOfC+5fLrPwi1jy4A4JWFc+dlU/RmgfZQdiq/onsb+YCNoatdB6+2F+UJ6Wx0/e3PXZhGUV50yh4cDUTZ3X2tUQPRrB76d+kiIiIiJyYentl8iMRHLyDR8AD4Xve9fPYvbOGmroasiZmc/vNt4dUYL3tdsa3tGC7bh5Znzix/7uC2r011O2tYd7182JuSGBBrjWzAv+xP2tNeNjsCe/0626DPETeU5sg3im9vim12fnkZ+eTnx805babqfPh0869wS+0X6VriiCi7WGLlCW8f5HP7u585fId3OX/MiSWke/OrptvYbKy8CDaK/0Ddi5nmuFf0d3bzie4MeL5236dLiLnn5nRTf9yZ+VTVFTExJCb3WeRX1REUfiIci/9vYbrWFyvY8G00gLvl0ireSLo+kHRtjl0fCcSPAU9jn+HwY5SH0VEREREoumNEO8P3oEAbgZ5atVT5iO//b25Y9MGs7Zmt2m2tJhmuxnxamlpMRsaGsynVj1lPrXqKTMWhdmYgJlf0vk+VYXZJmCSXWhWeTeY2dEOKMk3iba9qtDM9h/b+VnMwuxss7DrnWLW0a+qwHtv+6vMwux8s8Q0zZJ8uu9XSb6Z3VmjYupXYOeE9i/Q9lhewX0qye9y35Du92H/Yu5jUINL8rv+O464lnH1L1zi+xuhq7+9qO3x/l0HX+Mj6+9R6KOIiIiIHHf+9re/mU0tLvPDDz803W73EdX14Ycfmg6HI+F1xfMyTNM0g9P5Yysfw+lyYh+egf1MO1abDXyLqqVb07Emg9PZwtrS1wC46eabEvKtQKJUL/feu9vZKHNpQSKnEx893fXLT/07NsXav3AnQ3+P1z6KiIiISO9au3Ytl+V8gYP1HzF8+HAslqjrhcdk37599O/fn8OHDye0rnhEhG+AVU+vYnt1DacPtZFhy8A2dDjW9HQcDQ04mxxs31HDuRPscU03FxEREREREYnViRa+k6Nt9IfqVU+vomZPDfVvvwN4VzW3j7Jz/72Le9xQERERERERkVhZLBba2tqwWuN9zLWX0+kMhO1E1mUYBlHGsjsVNXz7aWRbRERERERE+pLVasXhcODxeHp0vMViCYTtRNaVmppKW1tbzAG8y/AtIiIiIiIi0pdsNltfNyEhej7RXURERERERERikrx27dq+boOIiIiIiIhIVCdKZjWaWlyx3yEuIiIiIiIiInGL+qgxiY3LAxs/hGoHuBPwW0wyINMG0z4FybohQERERERE5ISh8H0EXv8A9rfAyIGJCcsuD7zfCMPS4dIzj7w+EREREREROTacMOOrDz/88FE/Z7UjccEbvPWMHOit168v+nU0nKj9EhERERERiUaPGvMxTRPDMOI6xm0mfnp4siX+Kexvb36Hl195Ne5zzbhsOp+dNjXu446mrC+/Ftf+ntRB/Kf4/F5qjYiIiIiISM/EFb5rHS2s/++HfG16Zm+1h6KiIsaPH88ll1zSa+cIt/t/u2hubmbi+ElH7ZyJ9PIrr7Lgu9/BY3rweEw8pun96Qn7bHowPSYPPrqaW+d/ieef+Uvc4XvLli1dlk+ZMuVIuhLBkzE08P6L5w8nOdkg2QJJFoMki4UkC1gsBiYGpgf+vLYioecXERERERFJhJjDd/X+w3zpF+s48zRbr4bvsrIydu7cCXBUAnhTSyN/3LqCiiFvM++1W7lmxnW9fs7esK9uX8z7fm9+LtDW43ONn3Bu1O0VO7b3uM7OmO0d0wCSk7yvaZ/pz+fO7wfAf3e28u7ONj464KbdZWC0OxPeBhERERERkSMVU/iurGvimode4YprZ7Ll72/2dpuYOXMmL774ItC7Abyx+RBPv/pndo8tZ6Bh5bmDy2j/7dNMsZ+Gfwa66THJvPjrGIMv6ra+f65+9Ijac8mcb/X42JGfOv2Izh2PdGvaUTtXUltz4H1KioXRn0rlc+f34+13a2lu+pjLPvtpMs+0sOxPH9LmyQAzti8VCn99ZNdq4Xd7fq1EREREROTk0234rvrIG7wv/3IObx3wkHIUGlVbW8tVV13VKwG8qe6//OefKwBY17CH/01xM6BfOs0tzQz//Kd4o8pgctpC/vTuON5pKmf1xVvY8c6LnDuz+/AN8PkrcmPa7zePv8it878U+PnqutIe98lv7cv/DPmcMWxY1P2yp4w74nMdLYa7YyTbYhh8XO9mRfFuNr3+AhnDzqHd05+Z08dgaf0Pze6LMczWmOvuy2slIiIiIiInly7D966PDzPrwVe4fNYM3mqApNRUAK765T86Pabwq+eTOWxAp+WvvPIKq1at6rJRqamp7N+/n6uvvjrhAby2cjVZ543kf00ZeN5xMLiulcMZrZyROZzD2xrpV2/yp53f5VufuZBB/ayYLfHVv/Lx52PaL9W3r/+nfUR63H2JZs61XwBg9XMvB0J22ZbKkPfx+NGPfhR4n5GRAcD69es73X/9+vU0NDQEPv/sZz+L63wRwsJ3s9Ok0d2fs875EknpQxk92vu3tm/fJ7j674eU1Jir7utrJSIiIiIiJ49Ow/d7dU1c+9ArXP6lz/G2wyApNYXk5GSMaZ+j2QTT7cF0eWhvbcPZ4qSxycmc0WkseuY/PHPrtE5PuGrVKr7whS/w4YcfkpqaSkpKClarlbS0NJKTk3G5XLS1tdHa2sqOHTuYPn16QgN4WvoAXOmZZCa/z/WZZ+HBZCWVpCan8eHfd/Hl1NEMGXImNf9rICnJu5S5zTYw5vq//c05XZa73R48Hk/E9ldfSexoasawYSEj4Wtf3h/y/sovxP67/OLsrwJQ8sLTce3/12f/HPM5OmPgDrw3PWAYBm5SMZOHkJvdjzFnJPPX9dvZt7+BUzP7kdRaG3Pdx8q1EhERERGRE1/U8B0cvN9qMEhK8wZvi8XAADymSUubi0NNbRxqaqGp0cnhphYaT4vtpI2NjbS2eqcHm6aJ2+2mubk5ZB+Px4Pb7Wbnzp1ccMEFCQvgbo/JoAFp0Gjh3NGn8Y9tu7AMT8HxPwcXjprIl2fkRRyz/rmXiL7EWKQ3/lV2RO1LlJmXdL7q+OrnXo6rLle791odOHAgrv0TwuwIv27TwOWCdo/BtMlpXHBuKv9483/88akS+g05F7fRD4t5OOaqj5VrJSIiIiIiJ76o4fvah15h5tWX+aaaJ5OSkkRSsgW3Bw45PTia22k83EZLs5P25lbaWpy4W1rB1S+mk6alpWGxWGhra8PlcpGUlERKSgopKSkYhoFpmpimGRgF3759e2AK+hGHb5cHTBe4PTjbXZS59tJqenC+3cCUwWdA4x7wL7Dt8dDU6oqr/q/NvTrw/oO6A/x6RTG/+Mm3uz3ud0V/jOs8XUl5B9rPg+dffCmi7JovXR3liK61tni/GPnkk0/i2j8RkoyOaeet7dDmApdpcukUK5u37mf5o6tJG5RJWsZk2t1uDCP2h6QHX6toOrt+ibxWIiIiIiJycogavkt+nEv+Y5u4Jm8aJR8BRhL1beBocdPsbKfd2Ybb2YbH2YrbH7xbWqG9PaaTtra2cvjwYVJSUkhPTw9MP/dzu920t7cHpp9fdtllrFmzhuuuO/LHgLndHkyzHcPj4U87/832kfV8XFZPQet5TD7jdEyXB0wzkL+NOOs3TZPvPVrGvsPJFH41M7DNr8G5nwVvzuJPl/XeqGv7ed6fPQna0bQ64wvT8e7fFcN9KPDe2QYu04Pb5aGf1WDvB++T0n8k/YdfRKvThdvtxuJu6KK2UMHX5cZXsllw/oNMGRx5y0TwNX329guPrEMiIiIiInJSihq+zxqczspvZnPz7zcy86rLeGy3m2aXh5vOMjBdFtyuFNxtBp52C662VMz2dN+QZGyjxDabjdNOO42UFO909qSkpECZx+Nh9+7dHD58mLa2Ni677DL++te/ct111zF16tQj7rDL7aHhcAO/XL+OyuEOLJs9/GDAxUydMgprchLudjfgC98mGGbsI6n+9hfmXwzAvo8dgW0An7Ts447Nc0K29YbnX3yJa750dcJGvvd9sAeAny5dFtP+G18rifscnbF4DgbeO9va8ZgW3B4Pv3z6AB/s2A7Jg2lpdeEyTcwkM2T/7gRfA3eym1/89zYWTHiAi4bOiNjPf01787qJiIiIiMiJq9MF10ZmWPljfjYLn3qTa6ZdyFPVblrboGZzeZcV/mJuVpflN9xwAxs2bOhyn89+9rPU1tZy6aWX8sorr3DJJZckJHgDuNrd7H1/P2Mtgxm57xTmX3oeHtMkOSkJ0+3BY7oxTf94t0m8Y9+maXLbyreijnzfsXkOY8ZexK6qt0JGXRPNH7ATNfL91f+7AYArvziLqZddztD+Jv98H8YO9bCl8m1wZ5B7/jgOHDbY9I9XWPvXNQDce9+SIz63YXZMO3e5TXOCvJcAACAASURBVNyeVtymQVpqMhdkz+DDv++n3fTganXhcsf3Ow2+BhZLEuPHXsTKivu58LOfi9jPf02LF553ZB0SEREREZGTUpePGjv9FCsPXz+F259+m3kXZOFu804r72o18+7k5OSQk5PTafmPf/xj2tvbmT59Oq+88gpf/OIXExa8AUyPyTlnDWVk+gSsKSm4XR7vCtqmBzBxe/At8mWCAaYRf/j+5Te9U5PrDhwKbAN46IJi7tg8N2RbosW7mFp37HY7f37qSQD2ftDA9fO+wqfHnsE/nnZx8xcO8YOiOqo/OJM77vg+/63ayzNPFgf2t9vtR3z+4NXO291u3G4Dj8fNrdcOAYZQUf0h2z5w4fKYuEw3Bm0x1x18DVJJ5f3d/+Wb5yyOuDbB17Q3vzQREREREZETV5fhG+DMDCsPXZ/FHU+XM+LcCUejTdhsNtatW5fw4A3e1c4tpotkiwWX241pgsVi4B3hNvHOKg4KWHEs4OX3/d+/HTLy7Tc4bQS/vPA5vv/2tUfShU6FPz7spSbvffRpBnwutZn6BkfcdRYUFIS8/2/V3sDn9e+uZ1vFmxxuGxrYVl29Oe5zxKrd7cHV7sHl8fDLpz9ikGc7m94oI3X4dNwpw8DtwRJH+A5hwrfO+QlZGdlRi/3X9C8LOl9FXkREREREpDPdhm+AkRnpLP+/KSx4agvEORLcE70VvAE8HhPT7cLjMYO2gT9w+0c2A0uumQbtMd7L7hc+8h3Mlnoqf/jsG/E3PAamJ/SLgtvqUgPvK85qpuK99wKfhw87tUfn2FNbz6fHnsFfr08G5nLr5+ZGlCWSScd6AK1t7bjcBqbh5vV/N9LeApZTJuK2DMXtcuPxGEDP7sl+9JJXuyz3X1MREREREZGeiCl8A4w4xcpvbjiPf773UW+2h7PPPptx48b1SvAGaDz4Cf96PfSRWW63G5fLTbvL5V1lvb2dtrZ22tvbaXe5cLncUetKMsDlgWRLx7bf//HPIfvYR6RHbOuKy+OtNx5fue4aHi58JGJ78AOyfh1WtmXLf8i7ovPp/1156Y3/9ui4nkj1vA+m93aH2s33dn+AkdT9Pj6xXJd4r5+IiIiIiEg0hnmC3MT68MMPc/vttx/Vc77+AexvgZEDQwN4T7k88H4jDEuHS8/0buuLfh0NJ2q/REREREREojlhwndfcHlg44dQ7YA4F9qOKsmATBtM+1RiwryIiIiIiIgcG4zq6mqFbxEREREREZFeZDgcDoVvERERERERkV6kyc0iIiIiIiIivUzhW0RERERERKSXKXyLiIiIiIiI9DKFbxEREREREZFepvAtIiIiIiIi0suSf/W7x/u6DSJHzfdumR94v2bNmj5siYiIiIiInEySAe7+0YK+bodIr7v3Z8sjtr311lt90BIRERERETnZJPd1A0T62kUXXdTXTRARERERkROcwrec9G688ca+boKIiIiIiJzgYgrf5eXlVFRUUFNTQ0NDAwAZGRnY7XbGjx9PVlZWrzZSpDfVOw7xzgEr7zen4jaPvL4kA0b2a+O8IU6SjARUKCIiIiIix70uw7fD4aCkpITa2lrsdjszZkzFZsvwlTVQU1PHc8+VUFFRQV5eHjab7ag0WiSR3jlgxeFOZeJQSE7A+v8uD7zfmMo7B+DCoS1HXqGIiIiIiBz3Oo0aDoeD5557DqvVyjV5M7jmmjymTs3Gbh+P3W5nalY2867J46abrqGhpYXnnnsOh8PR9dmqC8nOLqQ6YnM2BaVRD6Aw2wgtqy4k27+hupBsw+jkWJHYvN+cysiBiQne4K1n5EBvvQKPPPIIKSkpfd2M44p+Z8eWE/V6nKj9EhEROVZ1OvJdUlJCeno6M2ZkY3voEeqcDp6aMp7a2loARtgyyJ6QRVbWFG66dgaPPfUaJSUlzJs3L+aTlxYYrJllcmen5V+DP5msyCylwFjDLHMFuQBFeRhFwNRlVJkmmbH3VySC20xc8PZLtpCQKewnszNWnxp1+945H8dVT7RHys2aNavH+x3JuY+0vhNB4a9/h2EYcR/ndLbwwztui2nf7h4jqOsgIiIifSFq+C4vL6emppZ518zAZrNR9/zzDK+oYMaWDYyfdyt3PXwX2dnZlJVtoaa2jnl5ecyYMYWnni+hvLy863vAN93G2IJxmCtgTVE+s1YAlZG7lRYY5BUBRQb+/9wqKpiFeSeQX4K5Ite7sbqQ7AfHUeb/LHKEtpdv7/Gx9YfauOTSzv/+rf0H0ORs5+PGw9QdaqbO0cSe/fUY/QcxKMNGerIFa7KFfinJ2NKSGZiaRFqSwRBrMlZ3W5fn/uO63XG396OGFn70lXPjPu5omTn5PAakWrEmWxlqHcyvX3smIfWuWbMmJIB1FtbC90v0eRNVZ1cSeb7bvv8DDFy0tnmwGO38+te/ibsOwzBY8N3v4DE9eDwmHtP0/vSEfTY9mB6TBx9dza3zv8Tzz/wlpvq7+3349+mNAN7dFzhH8gVPPF/kBO+rLxpERESOHVHDd0VFBfbxIxhht7Opopyy+27n9mu/SdaUHDBNHrr9PgCeK1kL6bCpYgvjbSOwDx9ORUVF9PBdWkD2GmDqMkrGr6GgYCtFbKLIKPLtYOB/N3VZFWUrTMwVkXUU/G186LaqChh/VY9/ASLRbK9o4fwpn+KMEVYGDBwAwOGmJvoP6Hg/7IZPc/iF3SHbV720udM6P2jysPf9/7Hro3qq9tdz4FATh52ttLS102/4maQfBo/bjcUwwOPC0+rEcLXidrVySeaZfHXSmd22O2d8fA8weKIkKa79j7a0pBT2ON9jYOoAMgdentC6/QEslrDW0/q7Om8ihdeXqL6t+tHVGFgwLTD88gVcfdXlGIaJSTKmafDPf5XxQcnPwLSAYTLvgRdjqndf3b6Y2/C9+blA1188+cXT394K4EfL8d5+ERGRk1HU/1KvqalhxoypgJWy8i3UNjjANMEw4Dt3wCMPAfDQ7fdRl5NNzWubsLY0kJGRTkVFTdQTVVduZdL4OWzdCmOvGs/W26DELCMX7z3fD44rI2TwurqQ7LG3sSm4kvwSzBVQYPimnQc2h6d0kSMzaGAa1dUHSEvJIMPmDdYWA1J8WdXimzWbkhS6vStthoUvTBqNZ9JomtvdNLa042hpo+5QM/UtLg654JPmVvZ9tI+P6w9gwSQ1LRUzPY2k5NhD8qRJkygyOr4Ay6l+ljFjxrBr167AtjFjxrB169aY6+wr/VKs2CyDGGodylDraQmv/2gH76MpEW3wmAZNzlZ+8Pi/+NqN870hGzDwAB4M4Fe/W8ejt86g4cNdXdYVbOSnTj/itokCuIiIyPEmavhuaGjwrWrupLa2lvt8I93ceisAFYbBeNN7Q6vt94/RMnoCWG1YrdbAo8jC/W01jL8btgJkLqQslvthpy6jqmyh957u0gKMNQC5rDBNFLelN12aPZw/r97JwAFJZJySSr/0ZJIssLriPgYkD+bSEV8DvCPgD279IuNs2Xz5rEVd1tnquwn8sNNFm9sDJqSlJDF8UH8GWl00troZkmrB0phMw0ELRnIyaf2skJpCahyLIrW7nVG337bcG17HTNrNsjExV9enBqT2J8kYwbC0U8lIHtrXzTmm+cP2rFmzAoEsYV8CmAZPPvGnoM+A4f/p6VGVa1/+Z8jnjGHDou6XPWVcj+o/WSiAi4iIHD+6nqPqBKvTyV3338FDix+CRx6hxjCoBewOB9awR4tZrdZOq1pYVgbVhaz2fQ7c0x3QMe08v8RkxVi894cbQQvs5M/yhfBZ3nu+faPjLKuibKGWXZPEOev0wVx9RSYv/303Z33KxlmnD+bN919h08fFpCcP5CNnNQVAZcs6DMNgm+NVhgwYAlzSaZ0utzektLk9tLncNLvcNLd6ONzWTlObh0NtLppa20lPTyMtNRVPUhIpqakYaSn0s8Y+nfzp9buwlv458HljlZONVduZneffksSfXt4OWPj0Zwbw4qa91B9q4+tXjI7795QonS2uNiQtA5dhJSNlKP2TBmBJNhj5fEdIS7F6R2J35dV1WveRTL/uSajpq8W+ejOAvfDWewCYBiR5wGWxYODBMD34/2/EMONfRG3OtV8AYPVzLwdCdtmWypD30j0FcBERkeND1P+iz8jIoLa2AfsIOxm2EWRnd0xhtZsmTsOgPCODrN07qL3rLtJ9ZU6n99hY5Abd0x192jmdjHyj1c6l16UmwXkTh/Lutloqq+uxZbh5fOftfDdrOecOmcrif14LwJMVP+W743/P6GGj+fm/v8HwLsJ3S7sbj8fE5fHQ6vbQ1u7B6XLT4jJpdrlobnPhbPfQLyWV/tZUmjFISU0mJT2VLp4KGFXWp+IbjVz1v+6fR37xxRd3Wvbmm2/Gdb5orr3oEgwM+qWkc0rqIGwpNgalnEKL2ciA5EG0e1r5y5cfxelp4ZCrnoOuBj5xfsxv3+p+EbaeBPDeCDO9GZC6usf8SNtxzcXjMQF8dx+B/+/L+3f580fBfQRPDMgYNixkJHzty/tD3l/5hc7/XYmXAriIiMixL2r4ttvt1NTVkQ1kTxlPWdkmpmbN6Ch/6CEq7rgD56ZyHCUlDM8aD04nDocDu92euNZFG/kGrXYuva7B0QjAFy49g5VPV/Ju6gOcPTib0WkX0dLk4UefWQVM4dMZMxg9aCI44YcT/8IT7+/otM5237TzVpeHNpcHp8uD0+2mpd1Fc5ub5jYXze1uBqQnMSA9nXa3h5TUVFJTU/yJJy6TJk1i69atnDtxAhYjia1btzJp0iSAiPexePPNN6MG8EQEb4D0ZCu7WrYzxDKYJLOdfkYKbaRwSspgAPa2VeNor+dA+8fsd9ZR27Kf0Smfjrn+WAP4kQSYvrzXO3xV7UQuwvbcph0dCx14zJBHhfkHvJPo+bP1Zl4ypdOy1c+93ON6TzYK4CIiIse2qOF7/PjxPPdcCbVZNWSNz2bq1LyQcuvttzP+1puwWm1k+Z7rXVdTQ01NDXl5edGq7JnORr6DabVz6QVnDDsFgLpPDnL+jP08sfstZvf7W8h2gLs/+xvqPjnI8KGndFunYXjzi2lCS5ublnY3h1vdHHS2Ut/ciqPVTYvLxekD07Cmp5DS5iY5NYnUlGRcPXhoeLvbyZM7vs/ohvF8a/qvIspdnjaSLalx1RkewBMVvAEGpPRnKEMZljaMYWnDOSVpMMmWJFpch3F6DnPQ5aC+7QAHWj+hrnk/HzfXMzg99vuBYw2dvRVgejsUxfqIrXhYfIH72qkTOu7zxoOJd9q5fwG2n/8OzB5MOwdIeQfaz4PnX3wpouyaL13dozpFREREjkVRw3dWVhYVFRWUvLaFGVMayBhuZ/iIERB0T7fV6r3f2+l04nQ6eW3TJux2e9fP+PYrLcAIveGb4Hu+mbqMqsDaPqUUGHl4Z5nfCbmzyM/TaufSux7fO4+bz1pFi9vBcx/9iJz0n/JCyUe8UPJRYJ+fAG+/W8fIM6wxrXaeajFweUySDfCY0Oj0rnZ+qLWNg63tHGh14TI9JCX3IzUlBYsHjKQk0lKTSSL+YPP2nhIsRhIt7U1sr/0XcApbP3ydjbuep2rff5jcfCk3XPT/4q7XH8ATGbwBTk8/A/sAO7bkIViTrBgk0+pp4UNXNQddDoYln0V/41ROMRoZwiEOWpppbI6t7nhDZ08CeFfnOBqjkdGeJ52oRdie27TDN9rtwWJacBsWMDwYQd8JWYyejXy3n+f9qaB95DTqLSIicmzrdBWnvLw8nnvuOV7bUoF9RB12h923wJo3gKenp2O1gtPZwtq1rwFw7bXXdn22zIWUlXnfmhEP8Y7k3zd0dfNMrXYuvarNbOLFf7+F86P/x77Duzh/6OXMP+cqmN6xT7vLA/+AF16t4dzMU7Cf2UhKStc3vQ7tn0Zzm4vUJAtpKQYuj3extcbWdg61u2h0m1iSDJIsBunWFKxASnIyZySn84VRw6Ct66T5UUMLT5Qk8enPeB+N9mbNS+ScdTOnnTGEx/71AwZahmOzZXCR/YtMy/gmL37wU17e/ns+xUVx/44SHbwBfrr+NyGfU6wWHs5ZTKO7kY9bP6K/cSoPblwZd709nQp+PE3h7ayPiWr/l6eOw0JSlNXNO+75dvWw7udffIlrvnR1Qka+e/O57ce64+VvVURE5GTWafi22Wxce+21lJSUUFZRQ01tAxkZGdiGD8eano6joQGnw8GOmhom2O3k5eVhC1v9XOR4lGoM4C9Xb+LO1+exv6mO1bPepl9yfz74yMGZp3n/xj/4yEE7cNWlI1n7j/ep3tMEhkFKF7PPxwzpR8X+Jg40t9E/2YLFgGQDGtvcONo9NJsmaUYShsXCwPRUHC6Dy0YMY+LApG6DN8CPvnIuAC9u2ssrHz3MiFPGMNx6NhNGjOfr56zgo+ZqPn/RlwHvfd5fOvOnvLzvFxy2uoDY753uDXvnfByxbUzJcA65DvFJ635qW+oYbJwJdL2yeaIlIoD3diiKVn/4yHeP2+KbcPHCWzu9U8x9o92mgXelc0sSpse7k6WH0879ATtRI9/xBPDj6QuWrpwIfRARETkZdPn8IpvNxrx58ygvL6eiooKamhoatmwBvKua2+12rs3Li22quchxZEj6aay4vJT39v6Pfsn9O93vis+ewYSxAwKhfNGKsk739TgPM26QAYPSSB8wkPcdLaSkJOO2WGg/eJjDbe2kplrwGAYmKXzt3DMYZLb2qP2fO3seKQdHAJBkSfYurha2rpp3wbUfAPBvGnt0nt7W0PYJe5v3su/wR5yGI+H1J2qk9FgdbT3yUOYd5b7mwnMwDMM78O0P3wC+9794FIweTDvvrcXUuup3+LU63gP48dx2ERGRk01MDw/OyspSwJaTRv2htrAQHTkqC8DXi6GLsN2VlqZGTk2GU4elccGwNDypZ1DxSRNb9h9kUGo/Zo07lUMHD/aobiAQvCF0NfPO3h+rPnHWs+/wR9QdqudQUluvnKM3pyr3dTA60pFv/wTzX3x9Wrf7uuMc+A5/fNhLTSkApBnwudRm6hsS/2ULRL/ex2sAPx7bLCIicjKLKXyLnEwuufTof9FkaWvm3EEWzh2UAXBEwbv+UFtMz+0+LniSOSf1Qk7vB02HE1t1cHDpjQB+LASjI21DMgYNH+7CgwXDMLAYbtwApoHFNPEY4F1r0IIlzoFv0xN6wG11HSvvV5zVTMV77wU+Dx92ak+7ENWJcG/4sfD3JSIiIvFR+JaTXpIBLg8kd71eWlxcHm+9feHrV4zumxP3glX/WXvEdUQLWtGCS6z7xXrOvpaIcPmVB15MQEtCHXQ4eLjwkYjt3w56/+uwsi1b/sOC73wroe0Ivt6Jul7d1XMk54nn2GPh709EREQiKXzLSW9kvzbeb0xl5MDEBHCXB95v9NYrPZfIhdViDSPHc9gOdqy1J9g9d/2or5sQcCz/nkREROTE02fh2/Of77O7NnJqrOkxGfOpflg+88s+aJWcjM4b4uSdA7Dtk1TcPXtUcYgkwxu8zxviPPLKTgDf+c53aG9v7+tmHFf0Ozu2nKjX40Ttl4iIyLGq18P3ttXXc9AYHLH99KH9GTb6fAadfRMAi5+Hd5rKWX3xFir+t4tze7thIj5JhsmFQ1u4kBPkPmkRERERETnmJPAu1+jSThvDeeefxbTcq0Je1TUfY7bUcvA/93HwP/fxgzH3UfyZtZgttfGdoLQAo6DU/4ECo4DSKLtVF2YT2I1SCgwDI/yVXUh1V+URr6BzVReS3eW+2RRWx/3rExERERERkRNA74fv9AFYT50Eh6q8r8PV0LyLmXPm8Pd/bePtd3axbedHIa/uVVOYHSVkl66hKH8WuVGOyFx4N9zrD9fA1GVUmSZm4FVCfmDvXFaElJlULZvK1GVVIdtMc0XoufJLwso7XiX5iIiIiIiIyEmq16eduz0mmG7ABBNwm5CcBM27mPXVuVGPWf/cSz2Ydl5N4b1FsKkIoyhoc/4ylm29jds2eT8WZUNV2bhAcWlBNpV3lrEwM+4TRirKCz13iKksuzMB5xAREREREZHjTrcj34888ggPPPAAphm6EpVpmjzwwAM88kjkI2OCuV0eMF3g9oDH4/3Z7oK2dji0Bxr3eH8e2gOO3TR9tLNHHaku/Bq3TYoy8rxiIQvLOkavmTSOROTsqDTyLSIiIiIiIlF0O/J96NAhfvvb39LY2MgDDzyAYRiYpsmPf/xjnnzySb797W93ebzb7cE02zE8Hu/ItwF4Oh6AbJommCb+aN+jRyNvvZevbZ1DVVku1YXZjF09h6qyhaEhu7SAsbdNosTMhah3hSeARr6PS3fccUdfN0FERERERE5w3YbvRYsW0djYyJNPPgnA/fffz+LFi3nyySe54YYbWLRoUZfHu90e8LRhut1gGt6QbZr8qnRQF0ddxPZfPwrAwu9+q/teTLqbshW+u68XlmFe5V38jGVVlC3M9C6GludNxXkFszBXdF9lj+SXYK6Idse5b3p7L51WjsxDDz3U100QEREREZETXLfh2zAMHnjgAQCefPJJ3nzzTaqqqrjhhhsCI+Fdcbs8eFxteFweAEyTwDF/+MX9XR77jR8s7qQkk4VlvgSduwIzPO9mLqTMXBj4WPrgauaULIM14yibtYbswvFM8pawpmgTRVsLuSroPvAe08i3iIiIiIiIRBHTauf+AH7DDTfEFbzBN+3c047L5cHtMnG7PN77wAMtMBh04WCST0mJr+WlBd0+Csz/aLHcFWUsHIv/A2ULfUG7dA1FU6cyNb4zd073fIuIiIiIiEgUMT9qzB/AX3rppZiDN3hXOzfdbbjdHlxuNy63B7enI3wP+MwpjP3tZEbk2+NuvPfRX1UsmzqVZVUmZtUypvoeIVa1rKtIncuKsnE8mFdE/t13+0bBc1kRfp94TKopzDYwxt7GpqK8Tr8IyCvaxG1jg58lLiIiIiIiIieLuJ7zbRgGU6ZMiTl4A3g8Jqbbhcdjet+b3p8AFmsSI74xij0/rWDglAyso/oBYB3dn9QR1niaFp/qQrKNPLYuqyL0Fu1SCuIOx5mhq6lD0DPEqwh8B+AfFe9RwBcREREREZHjWa8/57vx4Cf86/VPQra53W5gKENnnY7H6ebA32pJHZbGGQvG4m5ykTIsjU+e/7DTOguzDd9zu4swbvNtHGvQ8db/zqBo6rLQlc9LCzDyoMQ08efu8eR1HJNfwqwCg7FR790e23E+v/wSqsbfy9jbNvlG4oOjtTeYL/Sf18hjqn8ROBERERERETlp9Hr4nvHV6EuLb//1o7TsaqLx3w0AfLxmHymnpdFS2UTDhv24DrbDZ6LXGQi08chciHeNtlxCH1meGaU+M84V0XMxu2tQ7grMXltmXURERERERI5lvR6+u9K4uSHw3lXfxvtL9TAuEREREREROfH0afju/FFiXvv3dT71XEREREREROR40Wfhe+F3v9VXpxYRERERERE5quJa7VxERERERERE4ten085j1djYyP79+32rpEsiJCUlMWzYMAYOHNjXTRERERERETnhHRcj3wreied2u9m/f39fN0NEREREROSkcFyEbwXv3qHfq4iIiIiIyNFxXEw79ytZ99oRHZ93xYwEtUREREREREQkdsfFyHewz1+R2+2rsrYt4meX9jzO3LmPsydi81zueSPqATw+d1xo2Z7HmevfsOdx5o4bF3nsG/cwLrDxDe4Zdw/Rqg897xvcM24c48JfgfZ62xJcds8b3jqi7y8iIiIiIiJH23EXvlsaD3T7+sa1n434GY837okSnEPKfwg/r2TJ9LAAXXyzN+j+EH5eWcmS6eANx1FC9huvUjz380yPUv+o+bfCb4LC8uRFrKuspDLwWsnckCPmstJXtm7RZDoOW9fJ/iIiIiIiInI0HVfTzgGW3P3DHh2Xk3tt1zu8u5Qr7hlN5RJ4tXgun18C7I7c7Y17xnFzMVA8jqW+bcX3fJ7KbwBzV1K5xBen9zzO3D+MpnjJyCgn28PjvymGd4sZVxy0ee4iFlUuZem7vnrnwrri0UHnnsvubxQzf1R4fcXcHFTR3JX+Ll3BOH8jJy/iG13/BkRERERERKSXHHfhu76+odOyL2UMB+DFhrrYK3zjHua+CkxexMrRr3LPPZUU8y7FgTA7Dv+7yYvWUbykksolkXXc84/Rodve3w2jL4t6yj2P/5Cl41ZSWRxt3Hs+8/FOG79i92gicnaEUcwvrmR+SP1z+SE/p7Lyfe4Z9xtGr4sW2EVERERERORoOf7C94F6AL6eOYE/Vu8IKbts2Kc4td2FbcAglv0vtjuc9+yuZNzoXCorYeRlo6lcCisri5mON8T+YXQxS4Iz8p7HmXvFUt4NrmTuSiqXwD3jbg4ZyZ67cgmE32ld+Rt+WJnLuuLp3oBdmsu64vmhIfuNe7hi6ThWVk6HqHeFBzdnLlcsfTdKSdCo9xW+UfrJiyLPJSIiIiIiIr3uuAvfLqfBnePO4vNtrdjOGsXS7bvAbXLLeZ/G0tbOIxhcb0nj+cxzAsd4DIP1ndT3j1IYfStUAoyaT3FlDI0IDrFv3MO4VwGms6SykvBB8QjjbqXYn+bnF1N5mXdxNhato3j+KG+4v9mb4G++5/ORo+xhRs0vpjIw7P0G94y7mcpF67h19xXcTNA0eBEREREREekzx134vnPcWUz2mPy+rYk5/Qbwxwl2TI/JEJeTwqZm/vzm2zyaYmBJAtP0HtNvYBo/zv1i1PrmFxfDnscp9X0O3NMd0DHtfO7KSpaMxHt/eGBYGZj7eV8I/7w37PpGx/2Ben6xL0FPX0JleBYeNZ/ijvTMG38oJXflInh1NMWff5W5j49mnLeEV4vfpbjycS4LuQ88uL3ehde8Z6uk8o17GDfu5o5zaeRbRERERESkTxx34XuMxeBldwvrXXsSqgAAIABJREFUWtp421nPnH5WLMBjh5uocEM7btrbgfaOY1raPTHXPz3onu7o087pZOQb72rnxQRWJw+E3DfuYVxooo8wd6V3dfTpS4qZ7v8yYPoSiqe/wT2lu72ro0+ezOSw46YvWceiyit8i7R5F16bu7KSJYSdU8H7hGKz2fq6CSIiIiIixyyHw9HXTYhw3D1q7NtVFbz48QFoa8TR1kiR42N+88l+tjcdgrZGpkzM5DPjxjBl4lgmnzuGKZMyyRx5WmIb8e5SrvA/P/vmkJu8vY/2Kp7PqODnfuN/7Nc6Fk2ezKJ1lVSuW8RkX0gPfjxYpOksKR7NH24uZu6tt/pGwaezJCRI61Fjx5b1LLTZuPx34cvle7fbbDZstssJLe6qLDrTNDt9/eQnP1G5ylWucpWrXOUqV7nKT8ryY9aSpYXmsa6ystKsrKw0l/3qd+bZo0aYY0aeap6beYY5MfMM8/yJY80f3vl984d3ft+8cNLZgfcXZZ0TeH/2qBHmsl/9LlBPxGvdInPy5EXmurDt6xZNNueu7GbflXNN5q7s+Bm0ffKidWHv15mLJk82F60LrSfiPOsWmZP9da1bZE4G3/ErzbmBc/vfrzMXTcaEjtfclb52BW0jSv8qKyv7+tIeVUuWFpoOhyPwevzxx81bbrklZNuRvbaYSy/EhPnm/PmYFy7dElEW2PbMfBPmm890Wxb9BXTaz5/85Cdd/h5UrnKVq1zlKle5ylWu8hO5HEjgf+Mn7nVchu8hg6zm6UMHmKcPHWCePWpETK+Ywnd4YA1/TV5krguE5pXmXN/2QDAmPARHBuNu6w8O3yvnmjDXXBloa1h9c1f6tnXsEwjyweE/JLQrfPde+O54PRMevrcsNS8MCdTewD3/mW7K4gzfx9r/8Klc5SpXucpVrnKVq1zlR7tc4fsIBIfvI3l1Gr5P4tfJpE/D9zPzTeY/E32frsriCN/H4v/wqVzlKle5ylWucpWrXOVHu/xYDd/GkqWF5t0/WtDLk9uPzM6dO/u6CSess88+u6+bcNTc+7PlfO+WjpXl16xZw1tvvcXSpUu7OKpn1i+08eC4Lbxyi3dl+t2/u5wplXfiKJwZsc+jfKvTMv/x4QusmYCR8FaLiIiIiJwYHMfggmvH3WrnIsej0ZkTfA+Tj6/ML+J/PGy2Y3sxCRERERGRPmIYx+Yw1XGx2nlSUlJfN+GEpN/rUbajmo5FzHdTvQMmZI7uvkxERERERI57x0X4HjZsmIJigiUlJTFs2LC+bsbJY+b3WMoifrXe93n9r1jEUr43s5syERERERE5IRwX084HDhzIwIED+7oZIkdgNLc8upTLp9jw3r09n2cctzC62zIRERER+f/s3W1wW9ed5/nfpSTr0QpjO3Zsd8cJBZiR3IwSxa2EcMedTkw5oDUzSk2bXZmJNarNNhH17LrBbNg7iqNOVcuRupupAJPxRgFT3euRd7aq6UnMzcpEbDqbxHFAW9NWwqYjhgZEP1uxJUWgKPHx3nv2xQVAgACfFEMQpO+n6haBe889OEDZL376n3MucDmoivANVJumaFpFheu63Xoyvbv0DfNdAwAAAFD1Kha+3f4vafjEeNF54xptuHmNajZ/swKjAgAAAADgnVf28P1C1+c0Yl1TdP6m69bq+rrbtf7WL0iSHvi+9Py5X6jr40c1+Mpx3VbugQEAAAAAcJGUfcO1lTds0Edvv0V3BLcXHKmXTsqMn9BI/4Ma6X9Qf7XhQf3T5sdlxk8s3GkqqlA0JSmlaCCkuKRUNKBQXFI8JCsUL3lPIHM+HrJkWaWPwltn+vfuCyiamn9c2c9QKqqANXPvrIaKBoo/NxUNFI4nEFXBxy26fwAAAADApaT84Xv1Oq16T4N0Nukd51PS2HE1tbTox8+8oCPPH9cLL75VcCzIF1a7duaC8lA0oJ06pFhQSg0NqHVHcIEOGhVJGhlTePS0znNLKqp9Ay3a7puzgaI729TX2ewFZ3+b+tSp5jnDfat6Mp+bjDTOjCySzIynR62/U/8AAAAAgEtF2aedO66RjCPJSEaSY6Tly6Sx49rx+T8reU/v934w77TzVDQgf1ufJL93ok+S/ArV90htfeqUpc5s48aIIg1tasucsDpb1drap06/pbYSfbfukFdV7qhXIubPnY93tKmvT/Jbs+5q7ZGJBaV4h9oUUdKE5eXzuEKBIbUnsu9n61Sz1ZnfjfdV2vzKfURjRO0zA1hi/wAAAACAS8WCle+HHnpI+/fvlzGm4LwxRvv379dDDz007/2O7UrGlhxXcl3v77QtTU1LZ1+WRl/2/p59WUoP69xbLy44aF844VWqI61qbZTUGFHSGLUP7VNn5rVXOW5VTyKscMzIJCNqbO2RMTHtmKPybYxRrFTRPB5Sc6fU2pNfJc/0EQt6Yb1bau1rkz9XhW5WZ8H7/GnkPoUThZ/bPuRV771xZ/rOBusl9w8AAAAAuJQsGL7Pnj2rb3/72/rKV76SC+DGGH3lK1/Rt7/9bZ09e3be+x3HlTHTM8HbdSXb9SrgrpGxXRnbkWs7cl0ja1HD9tZMd9e3a6Na1bN3UDujcR0ebFCrBpWUpNSQBho3yr9gV1EFFgit3d0DikRaNTCUbZXS0MDM9XhHl1rad+T+ESA3bbzg/UyYLlrbbVnyt/V5VW+rWZ3qU5t/JlBHl9g/AAAAAODSsuC08z179mh0dFSPPPKIJOnrX/+6HnjgAT3yyCO67777tGfPnnnvdxxXcqdkHEcyloykZ3/r09CpCb14clKvnz6nqVXv0vobb9JKy9ZVlqtx60Z98x97deO6q/SPLX9c1Gc8tFM6ZBTzpRTdJynYrpbuw9oei2l7NKTDKSmYHJRa2gvDaGezrIGIIg1euM2fQJ6bTt4YUfJQ4eftiCUUVFyDoaQkn6SkBtWi9kznwcz1UF9b0bT0zvz3jRElE2Gvch/OfRuFrGYNRJLaO+hXszLT2AuEvXaL7b/oFwMAAAAAVNKC4duyLO3fv1+S9Mgjj+jZZ59VMpnUfffdp/3798uy5q9VO7Yr156Sa7uSJGOkD31ou+omprT1/LhOnj2nt86N64xj9PrJUzr++iuamHR09foJrVyxumSfXthNKRrYKR1KKCgpGMuk2XqprSOuenWqYUdMXpXcr7Y+ZdZn+xUNdCmSTCjslaHldZMXWlPRUp+qHQoomgoqnOzWwOxgL80Kv3OvyY6HLDXnlnt7G6/FvF9HJh6SZTWX7nOR/QMAAAAALi2L2u08G8Dvu+++JQVvKTPt3J2WbbtybCPHdlVTU6PVK6/StevW6Peuebd811+nuvXrdGvtWq1fsVxr16zWu695t1atXlWyT+9RYX619RVOz05JUrBdkYFmNQ9E1B6UcuurkxF5e4onNdjXIB0OzOwanls7nf8osW6FrExozwi2t6irI6RQ84Ba8rY996aRz16DXWJNtmUpEE0pGEtqZoNzb8fy3GPSZlJ5Lmxrif0DAAAAAC4ti37UWDaA/+AHP1h08Ja83c6NMyXHcWU7jmzH1bTt6tzElNJjEzp9bkxvnz2nt0ZGNWVq9K51V+uqNWu0bt0qLV+xomSfwfaIGnOP6vKCbOvebAU4qcG+krd5MmvB61W4gVr+o8ZSh7vU1yntMPkhWZKvXg2dneps3etVzbOnMxvAmdx4GtXa2qjG1lY1zlqXncjduPhHjV1Y/wAAAACAS8WSnvNtWZa2bNmy6OAtSa5rZBxbrmu818Zo2jUan5rW+clpnZ2c0sj4tE5PTMu1alRbu14r16zRmtUr5c61/ZovrITZoW4rWwGXOrvjXuXYapZ6jJItXfKX2Egt3tEmtWyXX1Jnc2HVOFt09sJuTPkrr73q9j5tTBqZHd2zquSZvkOWLMubCt++UdLGdiUOSTstS1bRA7hnntHtzyuve5uuZSrbs8e+pP4BAAAAAJeKJYXvCzE6ckrP/HRQ/zzweu5YVuNteH763IROnpvSifNTeu2cq3Et19o1V2vV2vVavfoqjU25Jfv0QmgmCGervju65eVu73FhvnBCZu+g/IGooiFverk2Dql7IKJDmerwXJXv2bpDlvyDe2VMZp14MCZjDkk7vdDrjcdS9w4z0ybLF1YiO76Cx4EtvvJ9Yf0DAAAAAC4V1t8ciJq9/+kvL+qHHj91XitqpNSpc/r12yN67dyE3pic1ubr1+q61ZaOj03p3LSl4dfOqfvzH7+oY8Pla9/f/mfdv3tX7n13d7eee+45HThwoIKjujDvqq31di8EAAAAUMCyLKXT6UoPo8iCu52Xw1//6EVtvn6dVi6zdH5qWqOOo+nlNVp+1TI5NZZSp6c0Pm4I3gAAAACAy0JFwvd/+7OP5F7f8w8JmRqjsRU1ennVcr16ZlLf+9PbKzEsAAAAAADKoiLhO9/jXwhUeggAAAAAAJRV2TdcAwAAAADgSkf4BgAAAACgzAjfAAAAAACUWcXXfL8T3P4vafjEeNF54xptuHmNajZ/swKjAgAAAADAU1Xh+4Wuz2nEuqbo/E3XrdX1dbdr/a1fkCQ98H3p+XO/UNfHj2rwleO67WIPFAAAAACAPFUVvlfesEEffd96rXpPQ8H53q4uOVfdoP/n6b/VLwdPauz8Ge1ufK/csTWL6jcVDcjf1rdAq1b1mJiCxXcrGtgpHUoo7FvUpyka8Gtwr1GsuLNSg1PAP6i9JT8bAAAAAFANqmrN98rV67zgfTbpHedT0thxffKzf6rnXnD01psjWrdsWidPjujvvvuMfnTkN4vuuzGSlDHGO5IRNbb2zLw3SUUa57rTp/DeBrXtjCpV6nIqqoBlycodfrX1SZ3N+ecsWVZA0VTePYFMf76wDkUGtG/moqKBkOKL/mYAAAAAgEqrqvDtuEYyjiQjGSM5riTJGntJn6x/l77QVK/P/eG79cF323rz5FlNrni33nztxDs/kHioMDg3d0p9bfLnnwvkhfHGiJK5IF/66GnN69+3XS3q0uFMB77wIbV0dWQCd1KD2ij/O/+tAAAAAABlUl3h23YlY3uh23W9v9O2JkenNTp6XuOTtiamp/W+a5fr1uuM3rVqetF997X5Z4Kzv019nc1F1ep8BZXyoqNHuSztCyuRCGuhGenBWP60dZ+2t0hd2fQtn8KJzLTzeLcGWrYv2B8AAAAA4NJRXeHbcWXM9Ezwdl3JdmVcV6+9+opefPFXev03p7W6ZlL1N6/VB9+/btF9X/i08/mlooFZ08vnPgLRmYnrPi99z5rKnlJ034BathO9AQAAAKCaVF34ljsl4zgyjivXduVO21qxzJU9PaFXhod1+tQpnUmf1af+5DbdeM3i95NrqF9aoC2olBcdzerMtPOFE8WV8aJw7x2J/B3bfGEdaunSzrxArniH2hr2LnJjNwAAAADApaK6wrftyrWnZNuubMeRbTtyXKNlNUYbNl6rl4Z+pbfePqXx0VG9+cbbct3F912wAdoC085TQwOLn3aevScaUGiJu6T5wnvV0LYzsxFbXKHmAUXa2fMcAAAAAKpNdYVvx5Vxp2XbrhzbyLHd3LHi+ptk3xLUuZOv6nz6bZ16d1D/x//YpFdOmQX7TQ72qbVnvsp08bTz+SvlQcUK1nmndLhL2pi/S1pBuJ+1QVt+P8kWdfm9arp6Fvs4MwAAAADApaSqnvPtuEbGmfKmn8vb8LymxtJvxqb0s2X/s3x/nNSUfq3pW/+trIZ/p6vXXKXkspv1/oY/0ssDz8zRa0pDA63aEVvsKFI63NWgHYklDDzeoba+PrUmpVwib+2RWcyDvpODWugJ5AAAAACAS1tVVb5d18g4tlzXeK+N9/fIyXdrLL1ON1yzUl/45hNad8cX9e41y7XWOaMbb/49/UnLf9S69bWlO413qG0pj+6Kd6itYYcWP/k7M1082SM1F26qNp/cRm3dO3IV+B3dXpV8qdPXAQAAAACVVVWV79GRU3rmp6cKzjmOo6T5lFZe87YmV7s6kjqvkd+O6do1yzU+Na3zo+O64eZb9N733Vqyz3h3p1r3mtKP7kpFFfC3eZXnxoiSkuLdA4q0L7pMrnioWeox3nRxYxQPWbLavGtW56zGrT3qUbOaO7O7rxeOKhgzMjF5fTRr8dVzAAAAAEBFVVX4/tTni0Pv//7wsxobTet91xutWn+zXnxjRPakq/NyNDExKce1dNWqtXLd0mu/gzFTXMX2hZWISVJQCRMuvBRLLKHqXdx/NkDPbaHri+kDAAAAAHApqarwXcrf7fq4bt7wIf3rP39Av11Ro+t9t2n51dfKrVmuaU1rYmpUqV/8RCdefbHSQwUAAAAAXKGqPnxL0hvH/0U7Pv+/6tSqNfqX5/8/GcvSylXrtGbtWp09dVJ9Pzms8XMjlR4mAAAAAOAKdVmEb0nq/r/+yzxXH7po4wAAAAAAYLaq2u0cAAAAAIBqRPgGAAAAAKDMCN8AAAAAAJTZZbHm2+3/koZPjBedN67RhpvXqGbzNyswKgAAAAAAPFUVvl/o+pxGrGuKzt903VpdX3e71t/6BUnSA9+Xnj/3C3V9/KgGXzmu2y72QAEAAAAAyFNV085X3rBBH739Ft0R3F5wpF46KTN+QiP9D2qk/0H91YYH9U+bH5cZP/GOfG48ZMkKRJWaOaOQFVI8v1EqqkAoXnQvkDN8UNtqa1WbOcK9+Rd7Fc5d26aDw5UaJAAAAIByqK7wvXqdVr2nQTqb9I7zKWnsuJpaWvTjZ17QkeeP64UX3yo4FpZSNGDJsuY+uncYmURYvuwd0X0aiLQrmN+Nb7taBpoViKaKPwJQr8Jb9mjTo2ml02mlH92lh+8Ny8vfwzq47V4dO3A0c22T9mzJXgMAAABwOajItPPnnntOk5OTuvPOO5d0n+MayTiSjGQkOUZavkwaO64dn/+zkvf0fu8HC0w79ymcMApn3sVDlpoHIkrmhe1CcXW0NWiv8UnxkKzmzsLLfX5Zbd7LxkhSiXDpXnAl2qV7mjIvm+7RLnUoNSw16Qk9dmSX2p+sy1y7Xwe2btHjvVE1Nc3ZGQAAAIAqUpHK9+TkpI4cOaLe3qXV9hzblYwtOa7kut7faVuampbOviyNvuz9PfuylB7WubdeXHzn8dAcVe6ArLwp5qnoPqknpmAqqkCz1GOMTDKiRrV6r/MOgjdmNOn+A8fUkZ1P3vu4Ht7Vrt11ko4P6ciuezSTs+vk2yQdSzH3HAAAALhcVKTyfeedd2pyclL9/f2SpKZFlvccx5Ux07Jc16t8W5JcSwNn577/vX/YrIGBAUlSQ0NDyTapaED+tj5JUmezpYJadmuPjMlOMI+ro61PnfLatPYYL4TvlA6ZmBfYs+/nrJzjSnZkzxbV7vFebz1wvyRpOHVM0j3z3ldbW1vw3pRjcAAAAADKpmK7nWcD91ICuOO4kjsl4ziSsbwAYrwYcvvHkrJX/57k/L7+9b+/Xv/L7hqNTXgz00fOOrrZPDVn+PaFEzLhmffxkKVm9cjE/Eql8iN0UDFj1B4NaKcOKRaMK2S1qU+SPzvXPMMfqpeJFawKx5Vs+KC+uEc6cDTtVbvVq3DtFoV9aUV9m6Sh+W9Pp9OFJ2aFcQAAAACXtopuuHbXXXfp2muvVX9/v06cWHhncsd25dpTsm1XtuPIth1vHbikFe+alrvyrNy1I3r1lfOqrbG04VpLt91k6Q9+f5nsaXuB3uMK5W+wFgtK8inZMWun83hI/sG9mSnlXhg3Pa2ZCnmPWjPTz5Mb97H5GnKGn3hMR7LTzCVJTbpnV97U8mMpzUwyH1bqmLTJV1fUDwAAAIDqVNHw/dRTT+n06dPavHmzbrzxxgXbO44r407Ltl05tpFju946cEn+D0gr7NPS9FtKDp9Q39FxpV529MKQ0dCw0fQ84TsesmRZzbnp5p3NMzudN3dK6muT3woompLi3Z1SZ7N3PS+UN270F/TpCydY842curs/q60Pd+Q9QqxXjz+cCdhN9+uA9uhb2S0Qer+lPTqg+9lsDQAAALhsVCx89/b2qr+/X5s3b178mm/XyDhTcpxM5dtx5bhe+F612tXVq8cl+5TG0ic08KtTeuXV83rplUmljo/JtucO38FY4UZpJhlRY2NEyYIN1A5pe37bZESNfYNKygvkDfWzgjbP/Ua+ut168tFN2rMl+yzve6VH04o2SVKddn/ngI7dm7l2r/Tok7tF3RsAAAC4fFQkfD/99NNLDt6S5LpGxrHlusZ7bby/kvTmG+dUUzMluaNyJs5o4Fdva2DwjAaHRvTLwbdlO848PWee9Z0/vVxSbip6IKqUfPL55IVqy5KV2WTNHw2oWT0qWt6dHFTfor8ZrghNUe853pkjmv+fft1uPZm7FhVFbwAAAODyUpEN11auXKmtW7cu+TnfoyOn9MxPTxWccxxH790ijZ8Z1ZQtrTNGchy9/upqTU9PyDUr5FrTsu8oHb69nc6lSNLIJL3HjUmSWnvky6zpjmUCtyIRNbQNaq8xCmYCe1dLUiaWrXoHtaO1Wc1WZ6aL2JK+HwAAAADg8lSR8P2xj33sgu771OdLh9mBgQH96Kkmvf3Wm7JtW9O2Lccek+2MynGczOGWvLdgp3NfTMaU+AxfWIlso9yu6D6FE0bhWU2DMaNSXQAAAAAArlwVe9TYOyn7CLGBzPu333pDb574jTLLwfUf/sOuygwMAAAAAABVeLfzcpmcmtSyZctkWWZmGjkAAAAAABVyWVS+s7IV8OxfAAAAAAAuBZdl5RsAAAAAgEsJ4RsAAAAAgDIjfAMAAAAAUGaXxZpvt/9LGj4xXnTeuEYbbl6jms3frMCoAAAAAADwVFX4fqHrcxqxrik6f9N1a3V93e1af+sXJEkPfF96/twv1PXxoxp85bhuW+oHxUMKDLUrEfb97oMGAAAAAFzxqmra+cobNuijt9+iO4LbC47USydlxk9opP9BjfQ/qL/a8KD+afPjMuMnFuwzHrJkWbOO5k71tfmLzweiSs3cqEA0NbszWaH47E9QKL+PUFypaGCevgvb539GPGSV6L+Y139As4eXuahQyQuSlFI0kP3sOe4HAAAAACxZdYXv1eu06j0N0tmkd5xPSWPH1dTSoh8/84KOPH9cL7z4VsGxkGDMyJhZR0+rGiPJ4vOJsLK18Hj3gFq2e+/ioQWCamNESWNkkhE1Zk619uT33aPWUu17WiUdzoXx5k5Jnc15oT2k2VE8FQ3I39WipNmrQX+JcfnC2jHoVyguKRVVoOAfAfwa3JsdU0IU/gEAAADgnVFV084d10jGkWQkI8kx0vJlGnjp97ThzgdK3uMupuNUVAF/m/oKTnbKapt519pjFAvOtN830KJDPkmKq3ugRe0+ScnFf5fOZkud+ScaI2qfs3WrekxMwYJzcYWs7sIzIUvN6pFJeC1jySEF/AEpWRikg7GkhkJRpWJhJUw4+6UUDXSovvBDAAAAAADvgKqqfDu2KxlbclzJdb2/07YkqaGhoejIGhgYWLjz1p45K9/JSGNB09ThLvU11HtV8Hi3Ovva5M9MV8+vTAeyZefs9byAP2/lO78/bVesKHhLUnDmfKaCvW9jUiaW19IXVsIcknbOmjIvn8Kx7TocKKx6t/V1qnmuafYAAAAAgAtWXeHbcWXM9Ezwdl3Jnr+2nQ3hcwfwuEL+NvXlT+eetebb39angaFUrn1HWzZCpxTdN6BIcia054f43IZtjRH1RBq9QB9bqLQcVCwT+Ft7vD5KrhG3LIXimfXdO6VDpkcNpdapW361NfTI7B30An3uHwakcCL/HwCSijS2qmeOafYAAAAAgAtXdeFb7pSM48g4rlzblZupfEvSNzo6JHlBO//1/LywO++a756ZunQquk8Dra3e2u3UYXU17F1gbXRQsURY/llnO5vzA3LzzBT0vE3bOpu96rkvnChef268afC+cCITkkt8j+wRC0rBWMnvAwAAAAAov+oK37Yr156SbbuyHUe27XjrwGd54oc/1Jfb2/XED39YNAV9tkXtdp59H4jqsFp0qH2jd7MvrMRClexUVIFMmM72kZTU2pNfaZ417Tyjtccosf3wrE3RZk0LL9o0bZ6jxDTymar6rGnnTDkHAAAAgHdMdYVvx5Vxp2XbrhzbyLFdbx34LHd/5jP6RkeH7v7MZxbsc1G7nWffJ8IKh/OmYsdDRaG9YDfyWQE224dXBfdpe8uA9kVTuXXjO0ttme4LK1GwNjxvangiLF/BdW+6esmd2ueZRl7UPm9XdgAAAADA7666wrdrZJwpOU6m8u24clxXr732miTpy+3efuENDQ36cnt7QcU726bYrOdwz1H5Lil/KneJNd8LrZn2hQ+ppcsvq3tH4RrxPKlUqvj54fFQ6cp0PCT/4N5cP/GQty68tKSigYA6BucZIAAAAADgHVFV4dt1jYxjy3WN99p4f8fHxyXNrPXOrvPOrvuWlGtTbGlrvn8Xuanrg33yQr9fg3uTigw0Z3ZGTym6z6ue79Qh7ei21NHRIWvfRiXzp7cHY94GavkBPBVVYFa7YCypjfuswuCeG0uzuloOqX2jCv+hYdau7AAAAACA311VPed7dOSUnvnpqYJzjuNoYvkHJM2s9f5GR0fROu+JiYkF+4+HLGWL3K09sZkLwZgSF/j863hHm/o6pZ2RpIzxyXuedps6O7vVY4z3qLCgUX3IkhXqkUkYhXN3e9djmep8pzcwxTJjMrkxZXZsl+TPfzi5GhVJGvV0WApEk7mKeGpoIPfc8lTUm3ZeUHVPRRXYeWHfFwAAAABQrKrC96c+Hyt5/rvf/a6k+dd6j42NLdh/MGZkSn9EIV9YiVLtCgLxXH36FC4I2Hnt5h6ZYsZo7qEtcD1mCp4T7gsncm194YQSs9v7wkoUnQQAAAAAXKiqCt9zyVa1Z+9snl0Dnt8GAAAAAICL7bII3yMjI/ra176rsV47AAAgAElEQVQ2b5sVK1ZcpNEAAAAAAFDosgjfX/3qVys9BAAAAAAA5lRVu50DAAAAAFCNCN8AAAAAAJQZ4RsAAAAAgDK7LNZ8u/1f0vCJ8aLzxjXacPMa1Wz+ZgVGBQAAAACAp6rC9wtdn9OIdU3R+ZuuW6vr627X+lu/IEl64PvS8+d+oa6PH9XgK8d128Ue6ELiIQWG2pUI+yo9EgAAAADARVBV085X3rBBH739Ft0R3F5wpF46KTN+QiP9D2qk/0H91YYH9U+bH5cZP3FBnxMPWQpEU0u+LxUNFN0XD1myrFlHc6f62vzF5wNRpWZuLB5DPCQrFJ89WoXy+wjFlYoG5um7sH3+Z8RDVon+S39Pywqo5E+Uiio052+XUjSQ/ew57gcAAACAy1B1he/V67TqPQ3S2aR3nE9JY8fV1NKiHz/zgo48f1wvvPhWwbEYs8Nqc6dKhONsWMwPkCVC8yzBmJExs46eVjVGksXnE2Fla+Hx7gG1bPfexUMLBNXGiJLGyCQjasycau3J77tHraXa97RKOpwL482dkjqb875bSLOjeCoakL+rRUmzV4P+EuPyhbVj0K9QXFIqqkDBb+jX4N7smBKi8A8AAADgSlFV4dtxjWQcSUYyRnJcSdLAS7+nDXc+oPf+4Ze0/oOtBYf73s8tqu/CsDr7SCqSTbXyKZyYdf2QtNOy5G/rKwjtgWwynR1CS1S+CwrOqaj2DbTIy95xdedeL15nc37obVbn/N9ePUXfeVZgl1cZ9w/uzfwjQVCxZIu6SgTwYCypjd1RpXxhJQp+w1btCC7tewAAAADA5aC6wrftSsb2Qrfren+nbUlSQ0ND0ZE1MDBQ3oFlQmYy0piraCdn0rqntWfOyvfstqnDXeprqPeq4PFudfa1yZ8J7fmV6UA29Wav+9vUl/u4eYJ0fn/arpiJqTgTB2fOZ/7xYN/GpEwsr6UvrIT3Lw+zqv8+hWPbdThQWPVu6+tU8yJnDAAAAADA5aS6wrfjypjpmeDtupLtzntPNoQvFMALK8WzD7/asqk2HirZZu6l0nGF/G3qy5/OPavy7W/r08BQKte+I/dhKUX3DSiSnAnt+SE+t2FbY0Q92eAfW6i0HFQsE/hbe7w+Sq4Rz3ynVDQga6d0yPSoodQ6dcuvtoYemb2DXqDP/cOAZs0Q8CrfBRX2vGn2AAAAAHA5q7rwLXdKxnFkHFeu7crNVL4l6RsdHZK8oJ3/ejHmn3aet0Y5GMtVq/PviQWl5GCfGupnx0kv7M675rtnpi6diu7TQGurt3Y7dVhdDXsXWBsdVCwRln/W2Tmnnedt2tbZ7FXPfeFEye8cC8q7lp1mPtdvEwvmfpfZ3wcAAAAAUG3h23bl2lOybVe248i2HW8d+CxP/PCH+nJ7u5744Q+LpqCXkhz0Ks0ldyYvuflYSocHW9QejCuUO5/S0ECjNs5KwYva7Tz7PhDVYbXoUPtG72ZfWImFKtmpqAKZMJ3tIymptSe/0ly8flvy/sEhsf3wrE3RZk0LL9o0bZ6jxDTymar6rGnnTDkHAAAAcAWprvDtuDLutGzblWMbObbrrQOf5e7PfEbf6OjQ3Z/5zCJ6zQ/NjTNTvOfccE1SvEODO7xqcHtkQN1xeVVqFW6M1lDvW9xu59n3ibDC4byp2LOnuM9a8z07wGb78PK/T9tbBrQvmsqtG99Zasv0gk3RetSav/laIixfwfXCde3z7daer6h93q7sAAAAAHAlqK7w7RoZZ0qOk6l8O64c19Vrr70mSfpye7skb533l9vbCyre2TbFkhrsa1DRbPE5pRTdJ+0IZnb/butTZ3dc8Y42qWV7Lnxmq+lFz+Geo/JdUv5U7hJrvhdaM+0LH1JLl19W947CNeL53yaVKn5+eDxUujIdD8k/uDfXTzw031r3pKKBgDoG5xkgAAAAAFwhqip8u66RcWy5rvFeG+/v+Pi4pJm13tl13tl135JybYrEu9XZuiOz23ef2vwLbLiWOqyuzPTp7h2ZanFns5oHIjpUcnH20tZ8/y5yU9cH++SFfr8G9yYVGWjO7IyeUnSfVz3fqUPa0W2po6ND1r6NSuZPbw/GvA3U8gN4KqrArHbBWFIb91mFwT03lmZ1tRxS+8YSz0zP25UdAAAAAK4Eyys9gKUYHTmlZ356quCc4ziaWP4BSTNrvb/R0VG0zntiYqJkn/HuAUXaY5l3jYokEyU2OEspGsgEeV9YCRPOu+bXxsZGRQ6F5VNK0UA2qLeqJ1bYSzxkKVvkbs2/GIwpcYHPv453tKmvU9oZScoYX2asbers7FaPMd4/KgSN6kOWrFCPTMJoZvTe9VimOt/pDUyxzJhMbkyZHdsl+a22vE/3pun3dFgKRJO5inhqaECtPd6GbamoN+28oOqeiiqw88K+LwAAAABUI+tvDkTN3v/0l5Uex+/ku9/9rv78z/9cAwMDeuKHP9Tdn/mMGhoa9I2OjtxU9GwbXLn2/e1/1v27d+Xed3d367nnntOBAwcqOKoL867aWskUbzYIAAAAXOksy1I6na70MIpU1bTzuWSr2rPXemeDd34boKJ6w6qtrc0cYfXOXFA4d36bDg5XcIwAAAAA3nFVNe18LiMjI/ra1742b5sVK1ZcpNEAc+gNq7ajXkfTadUVXBjWwW336tiBo0rvrvPabQnLl46qqUJDBQAAAPDOuizC91e/+tVKDwFYwLAOdhzTge9EZwVvScNP6LEju9T+ZOZK0/06sHWLHu+Nqon0DQAAAFwWLotp58Alb/gJPabPSt+qzU0735adW358SEd23ZNX5a6Tb5N0LMXccwAAAOByQfgGLobjQzpyZI+G7kkrnU4rffSAtOeLOjgsDaeOLXj7zDpx7wAAAABQXQjfwMWy9YDuz5a363arfdcRPfbEsOp8mxa8NZ1OFxwAAAAAqkvF1ny7/V/S8InxovPGNdpw8xrVbP5mBUYFlMmGem2d7/qxlIbVlFkPPqzUMWnTPUWrwwEAAABUqbKH7xe6PqcR65qi8zddt1bX192u9bd+QZL0wPel58/9Ql0fP6rBV47rtnIPDLiY6u7WZ7VFXzx4t57cXScNH1THw1v12aN1Ut39OtCxRd/q3a1ok6Teb2mPDugom60BAAAAl42yh++VN2zQR9+3Xqve01BwvrerS9dcs14j/Q9Kkv5qg3feFBfDS0tFFdgpHUqE5YuHZDV3lmjUqEgyobDPexcPWereYRQLzrr/gr4ZsBR12v3koxqq3aLaPd6ZXY+mtbsuc+07B7RtS6281dy79Gh6d/Gu6AAAAACqVvnD9+p1XvA+m/ROLLMky1JTS4u6/+t/1drVq7Xm6nUF99TWXr3kz2mMJJUI58folKKBDtVnT8VDau6U1GkpP6b7rbb8TpQkjKNsmhRNpxUtdalut55M777YAwIAAABwkZQ9fDuukYwjyUhGkmOk5cuksePa8fk/K3lP7/d+MO+083jIUrbQ7be6FIk0lGiV1GCfVC95Ve5mqccYBbOXqXwDAAAAAC6SBXc7f+ihh7R//34ZYwrOG2O0f/9+PfTQQ/Pe79iuZGzJcSXX9f5O29LUtHT2ZWn0Ze/v2Zel9LDOvfXigoMOxoxMMqLGxoiSJqFwffZKStGAJcuyZFnN6mzd4YVtX1gJE5sJ3gAAAAAAXEQLVr7Pnj2rb3/72xodHdX+/ftlWZaMMfrKV76iRx55RH/xF38x7/2O48qYaVmu61W+LUmulbte+8z/VnzTSkn/7WH5b3q//sefvLSEr+NTOGEUnnU2v1I+W8G0c4mp5wAAAACAd9yC4XvPnj0aHR3VI488Ikn6+te/rgceeECPPPKI7rvvPu3Zs2fe+x3HldwpGceRjCUjScZIliXJ0vLMCGJ3fV+uXI255zSmEY1pXP/38wfnH1xfW27aeV+bX7NzdG7DtZiRiS30TQEAAAAAKI8Fp51blqX9+/frvvvu0yOPPKJPf/rTueCdrYTPx7FdufaUbNuV7TiybUeOa+S6RsZx5Y5K7qg06Z7XeZ3VWZ3WW+Z1vTk9LDPhluwzGrBk+dvUlzftvDHSo0hjq3qMkTFGxiQVaWyY2XBNcYWs7JT0UkdA0dRSfz4AAAAAABa2YPiWCgN4MplcdPCWMtPO3WnZtivHNnJsN3fYjiPZkmzprEnrpPOm3nBf1omp13Rm6jeyx0zJPsOJzJrvgrN+hfdKzaG4JCkV3amulvbCdd6NESVz4bzw6GldzC8BAAAAAMDSLXq382wAv/fee/WRj3xkUcFb8nY7N86UN/1c3ozzmhpvyrlkZI167U6b3+iMOamRyVMamx6V7UzJHrOX9m2CMSWHArKs5szabVZuAwAAAAAqb1GV7yzLsrRly5ZFB29JmenlttzsVHNjMq9dua6R3qiR3qjRb+yXdWr8TY1O/FbnpkZ0buqsnHOlp53PLa6Otj7vZd+gkrMv97XJP8e087k2ZAMAAAAA4HdV9ud8j46c0jM/PVVwzsms/Z62bZn0MknSmXMnNWnGNDE9ril7TI47Lfd86fCdigbkb+uTWntyu5J7G655a769vdW8Nd7NrT0ysczk83l2Mo+HAhp6J74wAAAAAACzlD18f+rzC2wz/kyXJGl0akRTZlyT02Oanp7UtBw5Y6XDty+ckMl/nlgwJlO0nXlQsVwQz7xPzP2k72AswXPAAQAAAABlUfbwvfAIjBzbaGzirJyaaU1OT8ixJ+TUuHLPl95wDQAAAACAalLx8L3sxdVaJumX4TcqPRQAAAAAAMqi4uH75M9HKj0EAAAAAADKakm7nQMAAAAAgKUjfAMAAAAAUGaEbwAAAAAAyqzia76X6kc/+ZkePf/wku75zj3/UKbRAAAAAACwsKoK3z/6yc808MvnZb+wXBsP3Jw7v9papVU1a7SqZrWWW1dp1fKVkl2jNdZa/d33/r6CIwYAAAAAoMqmnQ8N/VoNH/6oln/W1ttn0nrj7Gt64+xrSo0k9cKZfv3z6Wf17Kmn9ZPf9Oonp57QS5PJRfWbigZkWdYCR0jx0ncrGggomlrst0gpGrAUKt1ZqcEpMOdnAwAAAACqQVWF7/r6D+rnT/9Y9mPLZVxp+fTV+tljz+pnjz2r/h8Myj28VjWd1+rUPqPf/P24Tv1LetF9N0aSMsZ4RzKixtaemfcmqUjjXHf6FN7boLadUZXM36moAgUh3q+2PqmzeXa4zwvwqagCgUx/vrAORQa0b+aiogHCOAAAAABUk4qE7+eee05PP/30ku8bGvq17rjzT7T8s7Ymp6Y0OTUlSXq2bUCH/s0/6O53v0+N71upW6+VjvcPq//xIdVMl+ErxkOFwbm5U+prkz//XCAvjDdGlMwF+dJHT2te/77talGXDmc68IUPqaWrIxO4kxrURvnf+W8FAAAAACiTioTvyclJHTlyRL29vUu6L7/ybU/Zsqfs3LW11pjuqL9G2//w93XHB1boulW2Tp88IzO5uL772vwzwdnfpr7O5qJqdb6CSnnR0aNclvaFlUiE5Vvg84OxhMK5Rj5tb5G6sulbPoUTMQUlKd6tgZbtC/YHAAAAALh0VCR833nnndq8ebP6+/uXFMDzK9+2bWtifEKSdPLMmE68ndbLr7+p5Otva8qeUsNNy/SBuvWyVluL6vvCp53Pb3Hryb0jkLdw3Oel71lT2VOK7htQy3aiNwAAAABUk4qt+W5qalpyAK+v/6B+9GTcq3xPz1S9/9XDH9N3jvwXvXo8qWQyqfSZtLTOaNWHr5G7zFlU3w31Swu0BZXyoqNZnZl2vnCiuDJeFO69IxHOG4MvrEMtXdqZv5NbvENtDXsVJnsDAAAAQFWp6IZrd911l6699lr19/frxIkTC7YfGvq1Pr0tqFfuGJIz5Wjc+q1uveP9ev/Hb9bIB6Z09O0hvfziMZ1Jn9Mb507JvWF60WMp2ABtgWnnqaGBxU87z94TDSx+h/MMX3ivGtp2ZjZiiyvUPKBIe3BpnQAAAAAAKq6i4fupp57S6dOntXnzZt14440Lts+u+b7l5/VyXEf2tK3zoxNyJlylV0woueFmvf7WmE4e/4Wuda/W9LH3SWfXLdhvcrBPrT3zVaaLp53PXykPKlawzjulw13Sxvxd0grC/awN2vL7Sbaoy+9V09WToOoNAAAAAFWoYuG7t7dX/f392rx5s5qamhZ1T3bN9yt3DGlqalqO48ixHU1OTMoaW6P3r/qPus63VTWr1ul9fxzW5g/+pW5b/wV96JN/Ok+vKQ0NtGrHogvKKR3ualhCe3nTxfv6NJj/2PHZ087n2pQtOai+UucBAAAAAFWjIuH76aefXnLwlgor35MTU7KnHdXU1MiZlN4ztVUf/OAdav53/5M+/ZX/rnUfadEN66/Sxz98txqb/71uuOXW0p3GO9S2lEd3xTvU1rBDi8/emeniyR6puXBTtfnkNmrr3pEL6Du6vSr5UqevAwAAAAAqqyLhe+XKldq6deuSgrc0q/I9OaXz4+eUHj2jqXOrdMPYH+n8b1+Xrr5Zk9dtkTG2NDGisZFTuqW+Qe/zby7ZZ7y7U61756g6p6IKZNd8ZwJ6vHtp667joex08aBixmjvoL/EmvLMEYorHvJe79QhL3THZj4rGCsM4RYpHAAAAACqwvJKfOjHPvaxC7ovu9v5LW/X6827j6vGLNOq5cu1ftX7pTFp1fo1evuc0fE339C0kX67zNa5sUmtXHW11q6/pmSfwZgprmL7wkrEJCmohAkXXoolllD1Lu4/GDMysfnuWOj6YvoAAAAAAFxKKhK+L9SnP/kJffqTn9Dmv75dGpg5f1Iv6IMfkF5KDenMmtW66sYPaPVVa2RPT8hdsUKn33xZb770q8oNHAAAAABwRauq8J3V/zf/XHSurv4jarzr38h2bTnG1fIVq7Vm7dVyHVv9z/5YbwwPVmCkAAAAAABUafguZXjoF/Nc/fJFGwcAAAAAALNV9DnfAAAAAABcCQjfAAAAAACUGeEbAAAAAIAyq7o13z/6yc/06PmHl3TPd+75hzKNBgAAAACAhVVV+P7RT36mgV8+L/uF5dp44Obc+dXWKq2qWaNVNau13LpKq5avlOwarbHW6u++9/cVHDEAAAAAAFUWvoeGfq2GD39Uv/YP6O0zaU0vG523/cb1De/I58ZDlpoHIkomwvJ5ZxSyurXDxBTMNkpFFeioVyIWnLMfAAAAAMCVqarCd339B/Xzp38s+9XlMl+WlrtX68eHe0u2/fAnPqTxZROL6DWlaMCvtr65W7T2GJlY3h3RfRqIHFIsv5Fvu1oG/ApEk0qEfYv5OgAAAACAK0RFwvdzzz2nyclJ3XnnnUu6b2jo17rjzj/Rm+cf1uTUVO78s20Dudcn0+P6V//nVkmSI2cRvfoUThiFM++Kq9yzxdXR1qC9xifFQ7KaOwsv9/lltXkvGyMEcQAAAABAhXY7n5yc1JEjR9TbW7pqPZdc5fux5bKnbNlT9pxtz5w/pXOTI4vvPB6SZVnq3mFk8oJ3KhqQZYUUz73fJ/XEFExFFWiWeoyRSUbUqFbvdd5B8AYAAAAASBWqfN95552anJxUf3+/JKmpqWlR9+VXvm3bkj3the8Xf/2LXBvXGP1j0z/Kdlw5Z21t23iPfv7Mj2Xbjv74k3eV7DcVDcifmXfe2WypoJbd2iNjsuu44+po61OnvDatPcYL4TulQybmBfbs+zkr5wAAAACAK03FnvPd1NSkzZs3q7+/f9EV8Pr6D+pHT8a9yvd0YdX7w3/4kv7gzml96I9u1F93btFvr9qqE1ZAJ5b9kVKTn9C0PXeV3BdOFFSse1qVCd1JJdvzN1ALKmaMkpFGNUaSigXjCvnb1NfXJr9lybIsWdn3ofhcH4crXq/CtbXadnC46Fxtba1qa7ep4BIAAACAqlex8C1Jd911l6699lr19/frxIkTC7YfGvq1Pr0tqFfuGJIz5Wjc+q1uveP9koxWvGta7sqzcteO6NVXzqu2xtKGay3ddpOlP/j9ZUVhvVhcoUyA7t5hZGJBST4lOyxZgahSuWYh+Qf3ZqaUe2Hc9LRmwnqPWjPTz5Mb9ykQTc35abhyDR/sUOGT6od1cNu9OnbgqNLptNKPbtKeLWEtbVEGAAAAgEtZRcP3U089pdOnT2vz5s268cYbF2yfXfN9y8/r5biO7Glb50cn5Diu/B+QVtinpem3lBw+ob6j40q97OiFIaOhYaPpecJ3PGTJsppz0807mzNVbMtSc6ekvjb5rYCiKSne3Sl1NnvX80J540Z/QZ++cII13yg2fFBffOyzOrAr/9wTeuzILrXvrvPeN92vA1sf1uOkbwAAAOCyUbHw3dvbq/7+fm3evHnJa75fuWNIU1PTchxHju3IcVytWu3q6tXjkn1KY+kTGvjVKb3y6nm99MqkUsfHZM8z7TwYK9wozSQjamyMKFmwgdohbc9vm4yosW9QSXmBvKF+VtBORRVg6jkKDOvgF/doU/vuwv0Ajg/pyK57NPN/QZ18m6RjKeaeAwAAAJeLioTvp59+esnBWyqsfE9OTMmedlRTUyPbdvTmG+dUUzMluaNyJs5o4Fdva2DwjAaHRvTLwbdlO/M9diylaGDW9HJJuanogahS8snnkxeqLUtWZpM1fzSgZvUoFpzVZXJQ8zw6HFeg3vAWPfbZo4rO+k9+OHVswXtrc+vBvQMAAABAdanIbucrV67U1q1bL/g53z97aa9WTK7WlHVO08607Fpb42dGNWVL64yRHEevv7pa09MTcs0Kuda07DtKh29vp3MpkjQySe9xY5Kk1h75Mmu6Y5nArUhEDW2D2muMgpnA3tWSlIll65hB7WhtVrPVmekidqE/ES43vWHde+yAjkbrii7V+TZJQ/Pfnk6nC08QwAEAAICqUpHw/bGPfeyC7svudn7L2/V68+7jqjHLtGq5t/N51z99SI7tyLZtTdu2HHtMtjPqTU13vKnppfjCCZlw9k1MxpQIzL6wEtlG4dxJhRNm5m1GMGZUqgtcyYZ1sONh6Yi0pXZP3vktqn3sgI62SzqW0rCaVJdpnzombbqnOKgDAAAAqE4VCd8X6tOf/IQ+/clPaPNf3y4NzJz/C7VLknzXblCwfpt+/6obdObMGf2/J57QmxMn9Mxf/6RCIwYkqU67n0xrd96Z3nCtOuqP6snddZKGdaBji77Vu9ubkt77Le3RAR1d/IoMAAAAAJe4qgrfWf1/888lz//85z+VcR2dHR3VsmXLtP2921ThDd2BRajT7u8c0LYttfImk+/So+ndou4NAAAAXD6qMnzP5Y47/rjSQwAWpSmaVkFhu263nkzvnqs5AAAAgCpHWRgAAAAAgDIjfAMAAAAAUGaEbwAAAAAAyozwDQAAAABAmRG+AQAAAAAoM8I3AAAAAABlRvgGAAAAAKDMCN8AAAAAAJQZ4RsAAAAAgDIjfAMAAAAAUGaEbwAAAAAAyozwDQAAAABAmRG+AQAAAAAoM8I3AAAAAABlRvgGAAAAAKDMCN8AAAAAAJQZ4RsAAAAAgDIjfAMAAAAAUGaEbwAAAAAAyozwDQAAAABAmRG+AQAAAAAoM8I3AAAAAABlRvgGAAAAAKDMCN8AAAAAAJQZ4RsAAAAAgDIjfAMAAAAAUGaEbwAAAAAAyozwDQAAAABAmRG+AQAAAAAoM8I3AAAAAABlRvgGAAAAAKDMCN8AAAAAAJQZ4RsAAAAAgDIjfAMAAAAAUGaEbwAAAAAAyozwDQAAAABAmRG+AQAAAAAoM8I3AAAAAABlRvgGAAAAAKDMCN8AAAAAAJQZ4RsAAAAAgDIjfAMAAAAAUGaEb+Bi6Q2rtrY2c2zTweGCiwrPeQ0AAABAtSN8AxdFr8Id9TqaTiudTiv96Cbt2RJWryRpWAe33atjB46WuAYAAADgckD4Bi6KJkWf3K263Nt7tEvHlBqWNPyEHjuyS+27M1eb7teBrQ/rcdI3AAAAcNkgfAOV0Pu4HtYm+eokHR/SkV33qCl3sU6+TdKxFHPPAQAAgMvF8koPALjiDB/Utnsf1q5H02qSNJw6JumeeW+pra0teG/KNzoAAAAAZUD4Bi6i4YPbtGWPdOBoWtlZ5nW+TdLQ/Pel0+nCE7PCOAAAAIBLG+EbuEh6w7W6V48qnW4qvngspWE1ZdaEDyt1TNp0T11xOwAAAABViTXfwMUwfFAdD+/So9ESwbvpfh3QHn0ru8Fa77e0Rwd0f4mmAAAAAKoT4Ru4GI4P6Yge1r25Z3l7R7hXkuq0+zsHdOzezPl7pUfzd0YHAAAAUPWYdg5cDE1RpdPRua/X7daT6d0XbzwAAAAALioq3wAAAAAAlBnhGwAAAACAMiN8AwAAAABQZoRvAAAAAADKjPANAAAAAECZEb4BAAAAACgzwjcAAAAAAGVG+AYAAAAAoMwI3wAAAAAAlBnhGwAAAACAMiN8AwAAAABQZoRvAAAAAADKjPANAAAAAECZEb4BAAAAACgzwjcAAAAAAGVG+AYAAAAAoMwI3wAAAAAAlBnhGwAAAACAMiN8AwAAAABQZoRvAAAAAADKjPANAAAAAECZEb4BAAAAACgzwjcAAAAAAGVG+AYAAAAAoMwI3wAAAAAAlBnhGwAAAACAMiN8AwAAAABQZoRvAAAAAADKjPANAAAAAECZEb4BAAAAACgzwjcAAAAAAGVG+AYAAAAAoMwI3wAAAAAAlBnhGwAAAACAMiN8AwAAAABQZoRvAAAAAADKjPANAAAAAECZEb4BAAAAACgzwjcAAAAAAGVG+AYAAAAAoMwI3wAAAAAAlBnhGwAAAACAMiN8A5eEXoVra1VbW6va2m06OFzp8QAAAAB4JxG+gYob1sFt9+rYgaNKp9NKP7pJe7aE1VvpYQEAAAB4xxC+gUobfkKPHdml9t113vum+3Vg68N6nPQNAAAAXDYI30ClHR/SkboKkAMAAB7jSURBVF33qCl3ok6+TdKxFHPPAQAAgMvF8koPALjSDaeOSbpn3ja1tbXFJy2rPAMCAAAA8I4jfAMVVufbJA3N3yadThe8r62tLTqHGfw+8+P3WRi/0fz4febH7zM/fp+F8RvNj99nfvw+cxSuLgFMOwcuBcdSmplkPqzUMWmTr66CAwIAAADwTiJ8A5XWdL8OaI++ld1grfdb2qMDur9p3rsAAAAAVBGmnQMVV6fd3zmgbVtq5U2Q2aVH07s1X937Sp9KtBB+n/nx+yyM32h+/D7z4/eZH7/PwviN5sfvMz9+n0v3NyB8A5eCut16Mr270qMAAAAAUCZMOwcAAAAAoMwI3wAAAAAAlBnhGwDw/7d3/zBtpPkfxz/8tN0Vcb2l1+YkQoVECqjNraEhhWlxhRcKmIbogrjmLoJTaGwKOFOZNhTQgG8zNUhJJCriU7DX5V7r6HTX+lfMeDz+iw2MZ2y/XxLarBmPx1+emWe+z78BAACAx0i+AQAAAADwGMk3AAAAAAAeI/kGPGXKCIW0cFx+0u9DoZBCoQU1bub+nSGzwx66f063/Q9CAOJjGvY2D+1jTOPTdTu/41M/Bv/PsU6f5XeM/I9P+XjBdY6FFDLMDvsYtfg8xz6IT/dt/I5Pt2Pr7/dPitHY1mOP2UfQ6rEgxKfbdoOIT8BjUD7WwjPGgOQb8ERZxwshhUKXUrLLVscHynXdR0KF/VtVKhVVzqb0dqZWaZR1vHCppUpFlUpFZ8mcEka7W99ux9Ft/14LSnxMGQd/1K29Xes+xj0+3bbzMz61zw9CjLp9FmVIkn779lmvavuoVFRJx3rYv9e8js9z7IP4BLcOe+jYXFt5HqNxrcf62UcQ67GgxKfbdl7HZxhiYMqYeaupM9f59cuxnpJ/k3wDnghr/WNFlUpaS502KR/rl/PX2u90wSn/qvPPSW2vh63/j21q/1VOl2Zt/2nVbmFjS0mpUGpzMehyHF3377WgxCem9Md1hZ3/XVJSBZXKD+3fa0GJT5ftfI1P7diCEKMun0UZckxFwq0vjnR8nmEfxKf7cYz8NajHfYxtPdbjPgJbjwUlPl228zw+QxAD81K5V/vadArQpvZ1rl+fkH2TfAO+KOv4l7ea2l5XpOHlYy3UhrT89k2fk0tOhSGFFZmSCqXWM968zOnV6z9Zla97H930sf/B8yk+5qVymlIk3N/+B8+f+DRsF+j4SIONUYfPCnSMBhWfskoFKZdoM+Rz5OPzxH0Qn+4CHR/JtxiNVT3Wf3yGpx4bZHyCWocFIAZtfda33x7/rUi+AR+YxozOX98qHeu8TblU6L4T1xyUy6WKPq636Vnq9vaH9u8jX+JTPtZCIqfkmdVCTny6bxfk+EiDjVGnzwpyjAYXn1rPhvVzu19QYsEasjfq8XnqPohPd0GOj+RTjMasHus5PkNYjw0yPkGtw4IQA/30R736/FaHtVZj81BvPz946F398LS3A+ibaShR2Ndtus2NanhdHyvr1r8jU9K3LvtxbWsaIYUO9nX7cV1h9z66vf2h/fvFh/iUjxc081bav62olj8Qnwe2C2p8pMHGqMtnBTZGPl6DwuvbSr490K/lda2PcnyeYR8jXX563UcXgY2P5EuMxq4e6yc+w1aPDTI+Qa3DAhIDhdf18eybQomQNRf81b72k6+knx7xnWz0fAMDVdbxQU76/FYzditsIid9fjuj0EKbBRwa5lBawzfbzZ2Mpc+U/PyIOSg97n9wBh8f0whp5tu2KpWPaum4Iz7dtwtcfKzjGFyMeviswMWIa1B3zxEfPV+MiU93gYuPdRyDjtH41WOPL0PBr8cGGZ+g1mEBi0EsXV8w9GNE33L2tI5HIvkGBqpxCKa18qaslYA/rivsnoMS29S+moa6yF70oXysBdfKwuXjA+Vevdafwup9vly3/ftmwPEpH+sgl9RZu/FIxKf7doGMjzTYGD3wWYGM0aCvQWWVXdci00gEvAw9R3yeKcbEp7tAxkcaeIzGsh7rLz7DVY8NMj5BrcMCFIOmIzONhAr7m3pKCBh2DgRWWOv/2NfCTEghSVJSZxX7QhBe1z/+uKBQKGFv6/rdc+x/KDxDfH77ps/KKRFqfLBE8qyidIz4dN9u2OMjcY495Hni8+svofocuVf2cM+H9j8UnuP4u+2D+Pi7/0F4hu8wrvVYz7sY5XqMc8z7YyzreGHGqcNe7d/2vcZSs4m/7qerf/nz1jMcHBBsf/t7Rpvr9ecHXFxc6NOnT9rf3/fxqAAAAACMA4adAwAAAADgMZJvAAAAAAA8RvINAAAAAIDHSL4BAAAAAPAYyTcAAAAAAB4j+QYAAAAAwGMk3wAAAAAAeIzkGwAAAAAAj5F8AwAAAADgMZJvAAAAAAA8RvINAAAAAIDHSL4BAAAAAPAYyTcAAAAAAB4j+QYAAAAAwGMk3wAAAAAAeIzkGwAAAAAAj5F8AwAAAADgMZJvAAAAAAA8RvINAAAAAIDHSL4BAAAAAPAYyTcAAAAAAB77we8DAOC9i4sLvw8Bj7S6uqrv37/7fRhtUa6GF+UKXqBcwQtBLldeo9wOr07lluQbGBPLy8t+HwJGEOUKXqBcwQuUKwwjyu1oYdg5AAAAAAAeI/kGhkj5KKaQYfp9GAAAAAD6RPIN+MaUEQop1PEnpqNy4zvCG2+UzF2qffpt7Y/cfIyVjxTrWqbqP045KR8pFjtSvaiVdRRrLXsYd/1frxrfbijUUM4A6anlqnwUo85Dq/KRYm0KRsfy0lIPPrB99w9vqUPLRzHF7BfKR7GH62WMNJJvwE+ze7qtVFRp83OWrG9Wv1gnlFNOiVBIoZAh0zRcF+5LLVUqSsf8+zrwWXhDZnNZOktqdu+2pXx1LCflf+pcr/VzeKBHjmHQ4/UK6AvlCj4zD8/1OruhsGQ1FNr3VTM7X5RLNDUENdx3hXoajRjeMJVVSrGjssIbJmU9UKwGwIXjXpqG223rbkBcUC+7IfkG/PRlRzMdWkATufpm4Y2s9maTOrMv0rd7s5rd21RMkpJn9sU7LfJuWA01RofREZJphJwW+La/P9zRlzblkhZ59Hq9AvpCuYKXOibTdj1ZPlJxydRG2JQRiunop7STEN/uzSp5VkuQTW3YjdJOg/ZZUtJl0+iNGe18+aKdmZA12sfuha8l4M1lvFt9DC+VdbxgdVypx4aP8vGBGi9JZR0vJFTYr5WHKb2d6Xz/VUPyDfip5xb/sDayk3pvX8hT929kbtA1iVZWq/qSLpsTZvsG5HKp4pQd0wgpNFNPto2jI73/2lomaZGHpL57KN1DLV2v6ihGYw5ceixXptGanDcmUyQ0cNVruYTVW90xmU4rprKOUjvaSVgjC7/uvZFSXcpX2wvXktIN5fZWe7Oz2rutqGLaveku9c+vJe/wR1jrH61ysNTL5uVj/XL+WvvuP1n5V51/Tmp73f4rxza1/yqnywfqNx41BgxcWUexGe18sf4vF9rpvGkupJ3ZpJLKKWdvPzNj/TeUk5LJpJRLKORuipvd022bCz7GSUzpSsX6Z60SiKVVqaQbt0pXVNk8UiwlZc2f9c9YSpPZNzoMxTR5W2/lxzjr93pVu/6YOtx5qTeV5kIU1kZ2T7EZQyajdcbYY8pVRU2XMJmG1aDIdCvUOPXaYVRmWlavdMMWoXrvpV2uNsr29hsxaaOiqBHS+8nbhk6O8lFMKf0kSfqyMyOnyCaXJNNQrLhJp8ioKB9rYeZcr28/ysqryzr+5a2mtiuKXL6tb/fbN31OLrnqsbAiU9J5qSzFOpcFer6BgQtrw2xugT1TslPrv5lW2my/XXpJzrDzs2TnllaMh3Y9Q6FEzrpRaH69ZXGZsDZMUxvhmNKVrJRy907OavKngX8dBEK/1yvr+lM+eq+vtakxLbvc0JtkTgm6v8fY48pVo7KKX6XcQ91MGE+5hLMWTrtRFfVyVdZR6l5vai04pqGEzvTmfkaGacqojTjceak3dnLdOOxcUiytN/epnhYqbehJZ17FUDCNGZ2/vm1p5CuXCo/aH8k34KP6RTihnO51GGtOnqy5Iw0Lrjnz4x6eVzLe2i2CEfTXniaWbnNz0WHBte6NNNaN8WYxppBxpOLXpx/b6AhSeRlMuarp9Xql8pFS56+V7dILFEufKZlLMPzcEaTyEtBy1RKyQ+28PNOZ3vN0ho6CVF4GUa6saS2hmR19SZ51WAvHlOEqU6Yxo50vroVsY2ndTr7X+8lbpX8q6qtkL2bafaRObPO1zg8fvqAx7HwIhNf1sWL3epuGEoV9/WO9tT4LR6YetXuGnQM+Sp7VhsuZMmJFbWb39PUwKjMdsx59cRi1LvY/v9bszku9qSzpMnYpSVoy0/rpKKbZyU0fv0GQWUOv00P1mn9+O4oppazMjd9khBLKyW7dT0tHsXO/Dy9AglReBluuer1eWSsHmw+MwIlpc29WM++PtBljtE6wykswy1UjU0biq/Zu04qpqPeHpjYYe95GkMrLIMqV1XBsDSOXmqc3uOVCOWfYeX06g5W8J75IUn1o+UztH8kzVTpNEA5vyExb+8CoKOv4ICd9lmZCruHmmlHofF+325IKJZUVs+uwskoFaWqpe41G8g34zDTqK7rmZpLa2ztX7Kiolzv3elPZkFTWUepcr29NxWTqUpPaNKM6jB1p8qX0epPbVjyetbq59P71rZN466yiinMfy40E6h6+XkmxtNnTXO7whin7LRhzvZQr19bOdcoaXLGh7GRMIUOqkICjQVgb5q1+LocVdm6VTBmhSy25e7LLR4rN7OiL7KfKWC/qKHao+5c5yb2ugHnZOue7D7lESI3L9NCBEjjuOd8fK1p3/co0Qjr4460+rocllbV/MKNDc90qH+ah3mpftw9chhh2DvigfBRzVtG8XHLPdUtr4+fX0s6OcrOT9tIetbm47j3ElM5K5195HjMez7QXlalUaiug270QDRXHb7r/8lJRytnY6u96BfTmUeXKNBSyE2/3dSq8YepMCaZjoa1/ptqtc2IxjZBCKSnrfmRr+UixUErKppVOV7R02fj+ljnffWgYdl6puBZpY22V4RPW+j/2VahNnUlIZx/XHxzJRc834IP2PT7WXLecrAVnwuUjxUIha95S+qf60KnkmdKyeixfvqkwXBOPFktXOvRQms7Qc0lOmcN46v965XQRNZSj2b1brldw9FuuzpRQwn4UYrty5KxyHQop0VAOMU5qoyhm927tV+yh6Pb88pwkze6p1t8cS9d6uiXnmjW7p9tKfepMLF1RxTQUMkxV0mmZMecXziixWmOS7P3ftimk4Q2zsS41Ddeia0mdUdH6ouVeKLyuj5X1J2/bycRf99PVv/x5q9/jBIbO3/6e0eZ6vZXy4uJCnz590v7+vo9HNRgXFxdaXl72+zDwCC9evND379/9Poy2KFfDi3IFL1Cu4IUglyuvUW6HV6dyy7BzAAAAAAA8RvINAAAAAIDHmPMNjIHV1VW/DwEjiHIFL1Cu4AXKFYYR5Xb0kHwDY2Bc50rBW5QreIFyBS9QrjCMKLejh2HnAAAAAAB4jOQbAAAAAACPkXwDAAAAAOAxkm8AAAAAADxG8g0AAAAAgMdIvgEAAAAA8BjJNwAAAAAAHiP5BgAAAADAYyTfAAAAAAB47Ae/DwAYFofHOb8PAQAAAMAQ2FxPtrxG8g30od1JBAAAAAA1nTrtSL6BPr148cLvQxio33//XT/++KPfhzFQfGfg+VHG+kO8+kO84DXK2Ph46t/6+/fvHX/HnG8AAAAAADxG8g0AAAAAgMdIvgEAAAAA8BjJNwAAAAAAHiP5BuCLfGpCqbzfRwEAAOCHvFITKeVbXptXpuTTIcFzJN/Ac8qnNDEx0fVn3rmilpSZ777txMSEJuYzCvw1OJ9yHWdeqYe+RymjdyfSyWKn2ARZXqmWv0m7CrTpXQ80NpQy88FtjChllOrwt2n7vZztS8rMW3Fxvl8+pYnWN7ScC6m89Z6hOxfwTKwy8dA1YajPq2eUT9Vu1kvKzD/uxj2fGu9zrGNZKWU0/8D1Hei7nlRJmflFnehEi+77oPl3OtGNjGi7uq9ep1of2VRHjsPFbgSQfAPPbC5dVLVabf9ztebaMqKt6w7buX+utxTx7dt051z4F0+kG0PRiQlNTFxouVpVtXqltbm0ii3fI6/UqnTa8D2vtKY5rSwF9Zs+VUn3d2taVnPjzJC0bke2tFyI9p7ERLa0rVVn+/vMvFZ1qmxcKt3faW053uZNa7qyy0MxPee8Wj+frrTW5l0YES0Nl1EZN9KNEW1pyKuXwyE/r55JKTOvRe1qKyJJEW3tTsuINsfg4cbei+Vg1zdP0ZKk9JxMl5RZNXTTlCD1/n6MjT7ryXwqqg8rRbtuq9V/V5rWinXfdLUm1e6hupyXa1f2fVQxrbkO2yBYSL6BZ9buZtH5WTzx+/CeVWTrWsX0nJ0gFZWem1O6mFU0M6+JiUWdOAl57Ya5pMz8hZabKpJ8alF36VP75nE0NLR0ly71YXpZ8Xi2qVHiWpMHwzH8Pp69kt711itWyswratzoZDEq4+ZEhnGjGyOqVD6vA+OmccSD06Jfv7mNGjfOvurn06JG6+xBs64Nl20aZkbhvHqyfErRDysqZl0NWvGsqlfNCXhjY+/Vmuo39vZPtl2b2IiIbF03NvbOTUlNCXm0dm1q6GVclU7dZbCo9Jy0dpXVCIcLj9RPPRnPVnW9dKn5CXfvt+u+ye7UOLCvY/lUrVHS3nYsLnCjieQbeGa993yPhsjWrqaNA+XzBzKmd50E2mmNdW6YS8rMR/VBd009CBOy6ph6o8VwDD/vLJ+a0LuponMzmz8wpKmo/T8X9cp1qCrPuLI99orVbnSv0mtam5Nzk799/04nzg2/3dp/vaVIm1Eg2/dWb3ltVES6OLq9cnApZTTfY8/1aJxXT5BPaWLxTnPTbX51caK1tTY94PYIg+ZebqtneIR7c/Oper1Sutfd9KTiDQm5VU+tXdXiYtVXxk3T8F97REa9AXGEY4ZH6L2edKxd9dTYGM/WerftXvJRbi0bcSTfwDPrree7x/neQZ/rWsrUW20XT6STRU1MpHTp/No9h85KsE5XGhso6j3nbXq2gsrVo984DNaa736xXNW1042f14XTZVtS5t2dlUherWmuljgEnFNW5zMqNQ0PXmyeuz+fUcku3xeT25rSmq52C1rN5HVZmNaaCipK1g3w3JSiajck1OqFss6lxcb5b0E9F/A08ax1zkS2dF09lVatRrhSZr6hMS6ydW03ag3/efU0eaUWpavqrqZPPuiy1Pi7i5M1LWftHnC766yUmXfqoOb1NqKFXVWrI9ybG89qt7BqNUQUC1ajTSmj+Q7Xk3xqVYXpuYZG5GoxrbmG0QJWLzggPaaetJ0sdrz3c48Ck6TS5Qd7CgSNPsOM5Bt4TvHsg8MmraSs03zvpnnSQzDv22q1tW5CrCQ6qyW/j8lrbYdrnmjRnu/ubpAuZd5Ja2v2v1dlaEVLEWvu8/RkYP+qDbauXfPJmsr41VrjKIfq9ZaK1qT+ehzi21op3Gspm9X2inRfuwFeWVJEbYaEyipLV2tq7RUI8rmAp8mn7Pna1vWx1oDV7jwZhfPqaeLKVrOKK67ttJwEW7Jic5fethLpeNbpIYs09fTWz6+iitsjm3Y74tldFaIppS5OrDIS2dLpygetthlmEc9ea3uqKWGKGrppaHi1esEBqf960rlK9djzLZWsBuy5NV0Vp/RuXEb4jCCSb+DZuFfBdq842+n12ttSbYdZN/f4BNeFUhNWsnW9dKl5V4VQLLS/M3GPDqj3cLZv6R0ea7pq03NU1Iq2l61/XX6Y1tVuQdH5jC4L02q77tgIiGevtRWpzZfMKq6ItrLWzUZk0koU8rUbYNXmstV+rAaM662INcxu+WI4RoHg6eJZVV293lLna8g4nledRLZ2tXayaI3AKWW0akxrt+MCGvWnUVws14auRlQ8GIdzK67slXRysuaUkcjWqVY+rLad5uA0VjgLWdUXhaz1fBeLIzxaAIPRY893KbOqwvK2piRrhFA27gziwHAh+QaeTVzZ3YKiXVojS5lVfVhxLSxWymj+3ZRO29woRbautdvPCtO+WVbWXuBoYlU6dbo7S7q/m2tbMXSbFz8Uw857UcpoPpVXfKvWwh3V1nXWWhxqtyBDyyN701ZfGKbNcPH4ttJ3i1q8S6vW2RbPuodvWovJOI8lcy9SOJdWkZ7vkVSfetC4ynnLcE17Tvc4nledxZW9WrPiFDU03WExMOu8rC9c6I7r4ons6TSjvVJ86f5O0okuGqZDXbcs9tnQILgqnRbTmmtZ8XxVq5eBr6ARdD32fBe1osYBKiXd302rdaDPw48+hb9IvoHnFM/qSu/a37zkU4oWdl1zgUvKrH7QymnnZCKeLWrqXYBvhooF3ejemt+7XJXVaZVScetaWR1YyddB3jVP82GRrWtXjIKuyzN1OzZJ2/NT7Vo0nh22VYYbnzPaTnzbtShMbXXg3Vo5L6p9ZyaPGhtnzUOinWHRtcX23L9re8IM+3n1RNGpBx8zFM82xbFlDnNV1erp6E4bskcFXFWvpMUHrmFZ13XoxlB0VTqtLZi6dmUPI77W9dY4FTL07uF6Mp+ypzI80PNdW4E/utV0r1i61AdZ66a0mOvwOgKB5Bt4ZtaQ27a/aLhpzKeiKuw2bVu6113DmyLaOl3Rh9VgDge0ntm8pa3roqbeTWgiWtBuNat4PqWJRemqWlVx6l3/K8LmUwFfsbigg3mr50On7f/eVg9LK+vZnkP6WLUbQ9GJqAq7Dwy1jGzpurqsC/fqwBd5e07vonRVVXHlg6INw1x51BgstV7Hd1NFZxh6rce783uG+Lx6itrCTqvSqd3YNfWu01Mj7IU+W4aX20PR5zMqKaLISMYwr1T0g1aK1jx564lQnWvVUqb2tAV7VM6NoejFstUIeHevaNaKc6CrKfijx3qy3hhWe3xd8yPtXNMc2oz4yh8Ymt5t03ljr+Y/kqfxiCD5Bp5J47xV95Dbxudd14bgRl09M857o4azCJUjsqXrgA61LRamtayUnYRWVa3az/h+N6WiPf85snWt6pW0aN/wRZZWpG4rwturwq8FdeJm6V53N3eaOrWeJ2zd7Me1vNY4JDHaZt5l7RFk7p792t8+agR87laxoBt7eNxDPYrWd3qnKXeP5fKF0yCTjdvlwp6na90C0/M9ztzXz4vlDotT2vP/mxOeoT6vHsmJ18Vy0815PV6nWnWScGtYv32d3i1Y9VHU0M30pCKKK1utjVwa/kc9tpNPLUpXrobS2ur6pYzmXdfsWrVTLNTWIlmVTu1rz8miJiYWdbey5DwecfliHObKo2d91JNS7TxuWqC0F6WM3rmmbkmSIpOaPlm07iNH8aI3Qib+up+u/uXPW34fB+C5v/09o831pPP/FxcX+vTpk/b393t6/+FxTpvrSb148cKrQwyk33//XT/++KPfhzFQfGfg+VHG+kO8+kO84DXK2Ph46t/6+/fvTt7QjJ5vAAAAAAA8RvINAAAAAIDHSL4BAAAAAPAYyTcAAAAAAB4j+QYAAAAAwGMk3wAAAAAAeOwHvw8AGDbfv3/3+xAG6g9/+APfeQyM43fGYFHG+kO8+kO84DXK2Pjw8m9NzzcAAAAAAB4j+QYAAAAAwGMk3wAAAAAAeIzkGwAAAAAAj5F8AwAAAADgMZJvAAAAAAA8RvINAAAAAIDHSL4BAAAAAPAYyTcAAAAAAB4j+QYAAAAAwGMk3wAAAAAAeIzkGwAAAAAAj5F8AwAAAADgMZJvAAAAAAA8RvINAAAAAIDHSL4BAAAAAPAYyTcAAAAAAB4j+QYAAAAAwGMk3wAAAAAAeIzkGwAAAAAAj5F8AwAAAADgMZJvAAAAAAA8RvINAAAAAIDHSL4BAAAAAPAYyTcAAAAAAB4j+QYAAAAAwGMk3wAAAAAAeIzkGwAAAAAAj5F8AwAAAADgMZJvAAAAAAA8RvINAAAAAIDHSL4BAAAAAPAYyTcAAAAAAB4j+QYAAAAAwGMk3wAAAAAAeIzkGwAAAAAAj/3g9wEAw+TwOOf3IQAAAAAYQiTfQI8215N+HwIAAACAIcWwcwAAAAAAPEbyDQAAAACAx0i+AQAAAADwGMk3AAAAAAAeI/kGAAAAAMBjJN8AAAAAAHiM5BsAAAAAAI+RfAMAAAAA4DGSbwAAAAAAPPaD3wcA+GlnZ0f/+c9//D4MAAAAACPuB0n6298zfh8HMHCrq6t+HwIAAACAMTHxr3/9q+r3QQAAAAAAMMomKpUKyTcAAAAAAB5iwTUAAAAADf7973/7fQgIGMrE05F8AwAAAADgMZJvAAAAAAA8RvINAAAAAIDHSL4BAAAAAPAYyTcAAAAAAB4j+QYAAAAAwGMk3wAAAAAAeIzkGwAAAAAAj5F8AwAAAADgMZJvAAAAAAA8RvINAAAAAIDHSL4BAAAAAPDY//3vf//z+xgAAAAAABhp//ff//7X72MAAAAAAGCk/T87xi4rhJ+xLwAAAABJRU5ErkJggg==;" vertex="1" parent="1">
          <mxGeometry x="-280" y="870" width="736.67" height="420" as="geometry" />
        </mxCell>
        <mxCell id="4WqvR_2e5_eg9FRiqzZN-2" value="" style="shape=image;verticalLabelPosition=bottom;labelBackgroundColor=default;verticalAlign=top;aspect=fixed;imageAspect=0;image=data:image/png,iVBORw0KGgoAAAANSUhEUgAAAzoAAAKtCAYAAADvpRv7AAAgAElEQVR4nOzdX2xb933//xeTIMl3Wb+h3WBBCvz6ayRS3hShmVXYQMhgA2bQMakbGbC03kk3ISNfiMyFMtgTNmBQ4zbCUFIXlsneSL1qJQPWDcXEhH/YvgiZwUZlDFA0WKTkbL/fGgxwYroo0LRNfH4X55A8pEiK+kuKfj4AwTbPv8+hLJ3z4vvz+RzH5cuXjcHBQZ06dUoAAAAAcJQ8fPhQn3/+uX73u9+pq6tLTz31lBwOhxy/+c1vjG9961utbh8AAAAA7MrXX3+te/fu6ZlnntHLL78sh8Ohpwg5AAAAAI6yZ555Rq+88ooKhYJ+97vfyTAMPdXqRgEAAADAXh0/flzf/va3VSgUCDoAAAAAOse3vvUt/fa3v9Xjx4/1TKsbAwAAAAD74fn/9b/0//5/v9ZTzzxPRQcAAABAZ3jxf/9v/e9vvaD/+/96haADAAAAoHP89re/1YMHDxp0Xbt/S4m05Aue0au6r1uJtDZqrthtrSNJD3X3+oqcF4r/buDhXd367Hs6c/JYjUMntNkV1JlXa62v0jGcd69rxXlBZ3RLic0uBSs30N3ri7rzpa2lvqD6C9e1aH/x+CkNXTipra0AAAAAcNB+8Ytf6K/++q/1nVdeqbn8159/rv/zr/+qH/7wh03t70/+5E90/PjxBkHn1TMKDt3V9cQtKXhGZ4JBnZHMALQlVDTw8K6uL96RLVqo2xfUmVdPqmsloVv3qwJNPcdOqv+z67p1/4yOSyrcva5f6YwuvCo9vPtQ3V21dlIOYQ/vXteK9erxU0O6cPKYpPu6db3Q3HkAAAAA2Hd/9dd/rf/n1i39zZkzW8LOrz//vLRspxpPRnDspC4EK1+6v7mh7q6tB3p411YpSVi1n26fgv2qqJrYA8erZ3zavH5XD1/dvqJS3v+iWVn6UpIWdcvpk+58qQ0lyhWn46c0dOF7kjaUTpTrUN0+888v7ywqcae8bv82xwYAAABwML7zyiv6mzNntoQde8ipV+1ppG7QuX8roV8dNysf928llLb3W9uwhYpi1eTkBQVP3tetxKa6gmf06sO7ur6ydb+VXtWZC8019NjJCwqelO7fvaXNjQ1tyAxPuntdi6UgZR3fClXHLgR10raPh3ev65bOKBgs6FbiVzo+dEE1es4BAAAAOETVYUfSnkKO1CDovHomKN1K6PrdIV04E1TwjC38OFd21n1tC9v4meOnNPSDL7WYrhoBtLG1QvPZ9UV9+YMhHZfU9YMvdevufXV/eUzd+lIFScceFvTw+HE5VVVhqlCu5mwsJnTH2n/wwska6wIAAAA4DPawI2lPIUfapuvaq2eC1qQC5mQED0tjW85oqHBdieuF+gP5C19Kx78nqdYYmGM6eSGokw/v6votmeOBguXucLUmI7h/67p0Jqgzxx7q7q8kvdqv7luf6Xtnzuh7d2/ps4fWMbv7zfZYFSBVtf8HXy4qLd8eQhoAAACAdtcw6Ny/ldDm8VN6eGdD3UNBnTlmjbFxXtCZkxcU/N5dXU8kdMxnhRJbRWW/vXrmgsxK0C3pzAUzgJ2xIpZTWly5L6c2dMwaP1TZ3a5bvmAxtAUVvH9LiUS6vHMqOgAAAEBLVU88cGBd16SHKjw8ruP9J3Xm5Ek9vHtd1z87Y868Vrir69el7mN3yiFHkgpf6stjXQcyVXNFcLF1ORu6cFLHXu3XqV8tKq1TGrLa8uqZIZ16WJxe2pyUoNsXNKeitneTs/YBAAAAoDVqTTxQa4KCnWjwwNCCvlS3vndMku5r5c4x/aA4ct/5PXVrQ+o6pYfpW7pvbWHOyLabLmFmpeZ+gzVe7T+l41ZlJhgc0qnjUvcPit3mCvqy1nCc0vpBDZ06Xnr1+KkhBYNBBYM+de+itQAAAAD2R73Z1exjdn79+edN7+/x48f6+uuvG1R0Hhb08JjTmhL6V3p4ynoejSTpmL7XLd0qfE9nTm3o1t2HetW5ovTDckXlYeFheV9f3tFiaT7n8jTP9mXdvsoZ0rY4dlIXgvd1K5FQqdPZ5n2d0aYSabNaM1S4rsXrso0bYnppAAAAoJ39n3/917pVm2LY2ckDQ4vqBp2Hn21Ix83+ccdOXtCF+7eUSGxIOq5TQ9KxVy/InBn6gi7ooe5ef6hTZ87o2P1i17DjOjV0TNJndZ+jo8KX+rK7uYkBzK5rx3XKGitkvahEWrbxNxcUdN5S4vpd6zk6PDAUAAAAaGfbBZjvvPLKjkLOU089paeffloOwzCMvTYOAAAAANrBzZs39frrrzcaowMAAAAARxNBBwAAAEDHIegAAAAA6BiGYcgwDIIOAAAAgM5C0AEAAADQkQg6AAAAADpGcVJpgg4AAACAjvH48WN9/fXXBB0AAAAAnYPJCAAAAAB0nKeeekpPP/20nnn06FGr2wIAAAAA+4aKDgAAAICO8vjxYz1+/JigAwAAAKBzGIahb775hqADAAAAoHMYhkFFBwAAAEDnYYwOAAAAgI5SrOg80+qGAAAAAMB++e///m99/fXXBB0AAAAAncPtdusv//Iv6boGAAAAoPMQdAAAAAB0HIIOAAAAgI5D0AEAAADQcQg6AAAAADoOQQcAAABAxyHoAAAAAOg4BB0AAAAAHYegAwAAAKDjEHQAAAAAdJx9DTpXfU45nU1+RdKSpM2rvibWjyhtrqzI1c2ax05HnLJ2WVZaf1NXfeY+Nq/6zPXSkVIbbBtsOYdIukYbfVdVuxUAgAOVjpSvCUorst11Q5L9GtCcTV31+VR5uan1mrguAUAbMgxD0j4HnYvpggqFBl8r7+vUqfe1UiioEPWVtjv1/krlOqOLtu1W9P4pa8WuixpY79964ain66LGFSqtn7vqU0hxRX3SZu5TjQ74amw0qkXr2CulA9vbuKjRXb07AIA980VVWOnRB86I0vIpWrxWLI5KFdeOqGr9hi/ZvCqfc2uAMJd9qBuvvaeLXfb1a7wmte11afOqryo0VYVCa1k64pSvTlADgKPumVY3YKd80UUlfVe16buo6utNtc2rPvVfviOp33zhjiT1K+JelC7f0ZycmiuufOp9raTPSZrTkLP0qkYXrU0v98t5ubzu+D6dDwBgh7ouKl2ofCmdnNPoQHTLquXrgKTi7/bRRRXGZf3eN68lm1d9mpHMqsrQnG31U3p/Ja1zH97Qnbk7Kl8ezNcvdrXhdWnzqkI3zmslbYUm65xGFwsqFHNUOiLf1W6loyvK+UK6ei69NcQBwBG372N0anZF2+ajrjuX+8vr9l/Wnbkh2/b9Kl6jTD5F09tfTCSp62JahUJBi++PavSUzItGoaDx3AeaK1aWCosa1agW0xfVpa4tVanxnPlpm7neKb2/UlChyeMDAPaXvQKRjpSvM0Nz0tzQ1q5r5nXA+j1f7DWwzTHKlZJij4K0Zm6ct64Z5tdiRQmlva5L6ZnLeu294r/TilghJ2ovFvmiSl/sktSli++9psszzXfsA4Cj4kAqOqfeX7F+gcrsHjCz0/XdSpd+I2/qqm/G+tMKPafe18p76+ofmqvc0dzWT8I+9PVr/b0V9UhafG9doatpnV9/TaNa14akrs2cPj3Vo3FVffJXwfapWb9Tl0v7J/AAwGHyRQtSxCnf1RWlowUVombg+aBnRWn3jJzJgYqu0fthfeYD6b10jd/37XhdOqfcp6fUUyzvpJNmgGr0lnT36NSnOW3KxzUNQEdpOug8ePCg7rKXXnppT414zd3U52C6mC7o4uZV+UIy+2kXyt0U0hGnkgOVn1ilIz4pXlC0a1NXP5DkG9f55Ic6F43q3NWIPtyUfBvr0vlx85f7xbQKF0tbK+Ic0qfvr+i99X4NabHuxbPRewMAnW6v14CiZq8zvmjBGn9T/j1tflgW1UrOJ6cvV/+DqI11qeecpFzdY1V0CdMpvR9Pyz3jVERVVZG2vC6ltX7nNQ3sJLF0ufXanaQZsqyXuK4BaCe7vc7sqKKzXxezanNDtk+8LM6KF0a1uIv9+qJp+bSpq76QFE/LJ8kXta4YbunyTFpuzek1q193OmJ2fygds1CQuaSgQjoip3OovHNbReeg3hcAaHf7fUPczO/TdMSpZM/7+vTyDZ1fKSjaZY2xcacVvZhW4Zw50cBrxe5atgpJM8q9DKzrh8qVpK1hZ2cO/LoU147O1dStnlOfKrcp+aykw3UNQLvYy3XmQJ6js2XMTYN1N9bvmAMkm5l1bYfM/tv9unznji73V03B6RvX+58OaejT9zVuXbR8Ufux5jRUnIXHNjhVEt3WAKBlNs2uWecuKl1I69yHvvKsYbmr8vmu6urM5XLIkaSNdd15zb3n39m+6Ip6PtjJNNVbHfh1qcut1+6YXeDMHQxo9M4NfdhwYrUNrd95TU11rgCAI+RAgk7FdNFVU0lX2lTu01HVnE1zW9s/F8E3/r5OlablNC8Wo6UBmhtar5nAmF4aANrXhtZ1Xue6JCmtmcuv6b3iGE/3OZ3XDWngfX06VL4+mDOy7ce4nS5dTEfl06Zyn9Za3i7XJbM6Yx1R4+9Ll/urngGUjpQD4mZONU8HAI64fQ86XRfT5YkFarF/qpae0WX1qHunB7lzWf3Ofq2/t81zErouKl0YUNI2e9tcMm09cG5IWixo5fwN9Vc8aM38xMzpdFYMAC1XqYa2dLMDABySzZw+ta4jm1c/0Kfvj9uuA106d166kTun+Puf6oOrm1I6UlEh2bQnlDuX1d/w9331rJ9FNSogbXNd8mlg9I7WN+yHTKuw+Fq5guR0ypkcKF+rN9Z1Z3SgcbsB4Ag6kIpOJdtTnfsvSz3lWJNOztk+yarerPgwt/7KMLSxrjtW17bt+kmbXQQ+UM+Krbo0kJR5LTG377qYVuG9ddtFhYoOALSrzQ9vlK4jXRfT5kxrTqeKl5fih23mn9LVDz7V+/GL6kpHSuudP2dddUrTOdf7fW/vNmZ/4OaQ5uzBoM2uS77x9/XpB/agJGuihFo9LTbN92icmAOg8zgKhYLRzIoPHjxgcCIAoMJ+Xhu4zuyfzas+9a+/J80NNVxvcVTm1Nw8LRRAm9rNteH27ds6efLkwTxHBwAAtE7XxbQKkhQtbLsutRwAneoQuq4BAAAAwOEi6AAAAADoOAQdAAAAAB3l8ePHBB0AAAAAnYegAwAAAKDjEHQAAAAAdByCDgAAAICOQ9ABAAAA0HEIOgAAAAA6DkEHAAAAQMch6AAAAADoOB0SdNKKOCNKb3ntrGY3W9QkAAAAAC3zzGEdaHP2rN7RNd0c6yq+otmzM3LdjMpXuaIiH72laGm9snTEqeRAQdHKDTR7dkhzkuacc6VXT58+rdu6LfU7dan04hWt3BxTV9WxN2fPqv/S7fIuRxdVKB5kc1Zn+2/o/MpNjXVZ/55x6Wa0u3b7Vb1Ov+y7th1Ei4WofDs939L6Kh2/e/asZlw3FVVEzuRAue2l96eyDaOLBY3nq8659N4AwNE1Mzu3/UoAgEMxPjba0uMfWtBpWteYBu45FUlXB5ra0pF+3Ti/osLNDUWcSQ0UovIprcjZvK4VbqorHZFz+sS2N/Gji9bxNmd1dqayPTcLLrM6tHJTrplLuj0nlTJV6S+ndaUYhsoba+zmilQdiNJmIPHt4nzVNaZxnVUkfU0nJOVnz2pa13TTJ23Orml0IFrr7MxQJTPUFU/v9JUVK3ia75fd5uxZ9d+bUKEU1mqdn8xtnUOas4LSRsSp6RMrtkALAIer1RdWAEB7fPB0qEGn19Xcza8vuqjk2Vlt+ravMPiiBfk2Z3XWeUm3VVnVmXOWajmaSY8p6jOrJEP2kDK6qJUT27ZI0YLPDChaVKHgU72KlH3/5u4Lit4cUMR5VvmVmxrbKAav8lY7Od9y9anffOG2JPUr4lqULt3WnJwqvQOnr2jl5luS5jRke19GF61NL/Wr9BadvqLx8kH0zo3zVhvNvn+nT0s3PtrUWFWA2Zydlv2/sS+6ovzZdzT7Vq1QBACH48UXX2x1E3CE/PrXv9Z3vvOdVjdj33A+OGzV36NHjx61sDVlLRyjs6F7t9eUrzmGxqfoTrtRjS6qUCjU/Fq5crq852hBhZUrOq1RLRYKVd28qm1q9qxTTqdTZ2c3JV90m/Vt+7faY67u0/gV6VK/U84haXHLuTV/vl1jN1UoFLR4ZVSjp2WGmUJB4/lps6pSKKhQWNSoRq3jdGnsZuX7MZ43uxGa653WlZWCCrbjp2cuqXeisj29589Ll2aqxkFt6qMb0pUr9k9PuzQ20atLM5VrAgAAAIfpUIPO2pZUc1v3Nuz/LgcL59lZbaYj5t+tr6E5aW6o/G/n2VmV9jg3VLGu/au/apDM5kc3dFtzGtoygUE1KyQsmjfy6Yh9v/26dHtOQ/ZjRar3Vj4fM1gUVCgMKFlaf3YX52vuM+ka1wmNanHint6ZTeuje70a1T1tSNJmXmunT6hbZgWo1vtx+1K/nM4hzem2GcBs+8+vndaJ7qpTcY1pYnRO0/bZHdIzuqTzestVtW73CZ1ey5vfm81ZnWVSCAAAAByyQws6G/ck3eg3KyOSeTOu6vBjBYuVKzotmRUUWyVicdTsClZ6zV4FabKiI22aoeD0qBZXTmh6Szipzxct789sx6JGS1WUqurQ3JCczhm5rGrKzbEubc6eVSTtU7S0/tiOz3cj8o50zTaexzeu8/fyeisa1fh5mRWyjXvS+bfUpXIFqFCq9JhjcxZHa7xnN8fUpQ3du92rWr0MfQOjul2q6mxqdnpOoxM1KlFdLvXetkIXAAAA0AKHNEZnU/m1Xk3cvKb82X5FXAWN529IV66o98ZH2hzbh9m+5obkbDDmqTguZXP2Hd0buKYTazPmRANRKR2Z1om3mj/Uxr3bUnUVIx2RM3lCV9YumTOcWTO3bc6elbOiolQeQ1OaAGEHfNGb8mlTs2ffka7dlE+SLzpmLnRJl2bScmlOvdakBBVjkqzueuaSggrpiJzOofLOT1/RyjVp7fSJ8nidioOP68rpfk3PjsvnmtElXdGKT9paFuvWidNmt0Rf15huFsZ2dpIAAADAHh1ORWfzI93QCXWrS2PXrmhtyKn+S9L5t8Y00HtJ+zKco8mKzobOa7xqeur8Wq0KRq1n80hKRzS0dqVqH6bTJ96qrNCosqJSrgQVbON3dsbsPtevS7eru5zJDCJrQxXt80VXVD59s6tdJG2eh3PIlgyL00s3rMZ0aWxiVLdvfKTZ5JxOW1WjrepXhQAAAForpZAjpNSW17yK5etsgiPpUIJOxeD2rjFNjEqnr1zTWJfkG7+itaF6Y2U2NXu28TiadMQpZ/8l3d5mjM7ckBkIuqurR6UQVkNxnEt+zVx19mzVVNXdOqFL6nc65Rxa0/m3qu7sq8bclNpRa4xRk+frG7dNpFAwQ0y5+9iG7tV9Zs/W0Hf6ykpFl7ayepNESPINaPT2JV2aG9VEvWnVrG6J5t8ZowOgjeRjCtW5k0mFHAql6q2fV8xr3hjlY15zvVRIjq0bKOZ1yOEof4VS5jb21xzemLifOppSoeLNcF4x7+5ujFOhdvo/YP6f9W5zIjV/Pux7Kf5cHLad/kwrr5g3oIQSCth+Jr3eKSWUVcRd6+e0/PNvHrLq57klJ45mHHzQqaqApCNODa1d0bXiTXLXmK5dWdNQ9U3/7Uvqd/br3kSNB3LaFMfNlG767WNaCiu6crp8k1+oMbNZrRnGJJk3670udaUj6r8k6Ua/Zlw3q/Zhn9GsxnTKVWNuqis6Fftq8nzN5/oUJzQwHwQ6l0xboWpIWixo5fwN9Ve8n+VJE+wTM5gTEjitSQlKjdbAaPUkERUnpfErp6XRgfrt3Lin242WA0CruMIaXHM3f0PmCmtCI6X112NejWhecb+UX19VcNBfY6Oglg1DhmEoF/WUXvVEczIMQ4axrOCeTwStkI95FdCkwi5Jcik82aeIuzrsbA271V9Lg4aMTHhLL/hDkQpVtcetSFbKRtxb2ln+OclrfTWoQVVv2wYVkB3+TKdCbi0M56yfw+LP6rL6NKycYchYDkqeqPn3Bt+j4LL5M27kovLUWQetd+BBJ51c05Vr1g29FXqqH97ZNXZTi72X1F+cGGDjnm5XTM+8zTEiTjmdVYP0m7E5q+nqbmhdLvXODcnZf0k60W22f+Wmbt5c0Ynp2hUj+6xrxQrT1mnLGtjB+ZrnOq0TK7bANJA0p622tu8au6nCxD1b2NlZRcc3fkVr08VtzTBnb1fX2M3KiRd8UVto29Ts9JquFN/UrjHdrBUCAaBF/PFlaaq5T9PzMa/ckawSAbci2YQikayyEbdCqZSmI1klArU+/S1/UuyOZEv7Kt9IBpQ4oHPDAUqF5F4YVi5uC7f+uIzl6rDjUjhj3QQbhpaDKt84W1/xWvn4EJVDd/0ve0hXPqmFvkH5/XEzIJTOJ6Oe6caVnsOwk59pf9xQZiApr8Ne1QkokY3I7XDIEUhI2YimrXNKhYph0Fq31SeLHXEUCgWjmRUfPHigl1566aDbgzaxOXtW/fcmpLmh7Ve2WRyVpk+s6CbJBngi7Oe1YT/2NTM7p/Gx0V09MDQVMj9pr3UTmoqFtLSQUEJR5TJhKeY1b3ozYbmUUsixpEEjrlr3r3mrCpQJ5xRyTKk3l7EqAmgX2z6QMhWSI7AqT3BY8/HKT/lTIYeWFFQisaqo/XubCskRSCi4XPl/ygzPfVqu8/9lPzQ8n1RI3vUJ82bfvaDhOv8f8zGvpnsyivvNc5zqzSkTdpXOS5IUXNayAloaNDSxXl7/UM+ngbo/0/mYvNM9ytRprP3cS+u71zRpfc8qlm+zrydFrQeGFn8f79Vurg23b9/W66+/3soHhqKdFas29SZ4qPflixYIOQDaVqlLkTemfFUXnkBCNSo0ZjekpZ4J9Sqo5ck1jcRSSq71Kag15SQpv65VT6/cqtF336rqmNWcQOUYgLYZo4HGUgoFpGVjUn2JBSXzlcuWEkENxq3KjlUGyMe8pTBQ8X/K4ZB7bVLGAYacbfnjZmBxhZUx5qURc3xOPuatGKfjChdv9FNaKpUg84pNrSqaM7t4eXrdLTiBSjv/mbYkAnW7FtorsZKUTy4oq4QCWyYwQLsj6AAAnhjhjK1PvT9e0VVnOWjrd2/1z8+FRqR52yfC/gkNr61rIB7XxLC0npeUW5OGB+SSeXNY3qc5FscTzZndl4LLld2DWjVGAzvkV9yIyy+/JqIqhRlJysemtBqdMEOLPy7D+o9S+f/AsH3/c8pNtMEn/6mQNb7G7GaXsUo6fT1b/0fmY1NSMGj9fUQRDWvAZY5Rq7X+Ydvpz3SpxdU/j/W67SlvfrDhCWo516spuq4dKQQdAADq8MczCrvyinlHpPm4/HIpbHVdcvWYN72ppUTphs/sz1/8WtKgYd5E+uOGjMElZl474lzhSQUTAXNMSj6mkUifJuv2Q0wpZJ98IO6X5FJuug2+9/64DFs1R5Jya9maq+Y0rIlB82/JhT4tT67J7Y0pudanmnNxHBVNVnTysRGtDU6oVzKrYHG/cmtSGxSz0ASCDgAAdZQHItfocuafUHQ1oMBqVMUP6f3xnMofBpuDl0tTUQdsUxB4otb4HhwtfsWXg2Z3KHdEfcu1u6CZ/2/Kk07Yu08FEpKyEblbNGNZuXtl5WxrW7p5WQPv/eHi/1O3wpm4OSHB5JoiGmxd97v90GRFJ6dhVRbh8lpf7dPWYlatZ/Og1Qg6AIAnVOWzMWrxT0TlKU1Ba4aY4GTxxi+n2h+CM710R3P3bjudsD9edfOci8pTNfOaYcxr4FAaXKm6W12pa5085tgb+7KaA+ytcTrW3b8/3vpZ5Mq2/5lOhcyQmt2mopMImB9quMNVH0jkk1qQOSZvC0+d19EyBB0AwJMnG5Hb4dba5DaDwl1hZYxBLdk+AU8spawxDgFp2VBueEHuiq5ITC/dkYoD3UekeSv49k5ZD5vcUpqxnqWzpYua1Z3NG1NeLrlaXNIrdrWc6s2VurJt9wBM8zk08+03c2CTP9PlEGp9cGEfw2PkFPWUP6ioNY4uNR1R32SNamx+Xat9PVRp28R//Md/KJ1OE3QAAE+Y3JqyVreV7T6JNm8Ep9Rr/6R7cElmxjG3d4UzMqxxC+ZNLRWdTlIad7U0WHXzW35ezrxGSoHH7BpmTmJhTK6Zz2ZxR5Tt65FLfsUNQ2amqBWQDvF8imOHjOJkBLbn/1jjyarzTsU001X7c0daOG5lBz/TUrHNVRONNCMf05Stq6okydWjvkRAjpa+AajW7T4h71/9Dc/RAQDsXic9RwdPrt0+p6VdcT44bDxHBwAAAAAOyTMHfYDNzU1ls1n9/ve/P+hDATjinnvuOXk8HnV18dBZAACwNwcedLLZrP72b/+Wbm8AtvXgwQP98pe/bCro/OEPf9DDhw/11VdfyTCa6oGLKg6HQ88//7yOHTumZ599ttXNAQBgXx140Pn9739PyAHQlJdeeqmp6u8f/vAH/c///I9eeeUVOZ1OORyOQ2hd5zEMQ4VCQZ9//rlefvllwg4AoKMceNABgP328OFDvfLKKzp27Firm3KkORyO0nv4xRdf6OWXX25xiwAA2D9MRgDgyPnqq6/kdDpb3YyO4XQ69dVXX7W6GQAA7CuCTtNSCjmqn7abUsjhVQumwQeeaIZh0F1tHzkcDsY54YnWaVMXcz44bO36PToyQScf8zZ+sFYqVPNJvvmYd8sDr5SPKVRnX6nQ1gdkmU84Dihhe9q1w+GQ1zulhLKKuMuvlZ+CnFfMWw5G5gPEbOs1eOowAAAAgL05MkFnR+qEnhJXWINr7hqBpt7u3FoYzllPsy4+8XpZfRpWzjBkLAclT9T8e+mJyVsFl60nDuei8tRZBwAAAMDetWXQ2VL9cDjkjmSVjbi3vN6wylO0FLLWL3cz88eXpali9aUxf9xQZgzG/xkAACAASURBVCApr8Ne1QkokY3I7XDIEUhI2YimreCUCjnkcLgVyVrrUr0BAAAADlVbBh1XOGNWPozqCkixmlL+yoSlmNcKG4mAHMVxNIlAKSAlEtKyYWg5aD+KX/EG1ZeagsuV7bJ95aLlGo0/Xmyz1d64f+9vCoAD8KFmZjZs/3xHT7/z4Za1NmbelPnyh3rnzRltWOu+aW27MfNm6e8AAKA9tEfQycfkddQaGyNJecVG1jQc9cgT7dXSlpVcCmes7mPBZRm5Xk0FEqVQkot6FFyOy6+81let/Xlt42lSoYoKkZmXao25USk81fpyR7KVrU4uKKuEAlsmMGj0HjCxATrLH//4R3322Wd1l3/22Wf64x//eIgtqvKhtLbWUw435yb009Ulmf/a0Mybb2r7/PKhpt/9RJ+826Onn366/GULTBszb5b+/eE7T1euVwxO1jICEwAA+6OFQccWOEakecNQrcJHKuTW2mRcA5KkAcUHlxp3V3OFlaks3dj0qcdlBaNilcgfr6jMmHnJVq2xV32arOhIeSXX+hT0BLWc69VUM13XXGFljHlppBiemgxIQBszDEPRaFQrKytblq2srCgajerx48ctaJnl3Dldu/aNvhlcsoJHj9795GcaePppPf3mtNaa2MXGzJRWf/pTva23lfzmG31T/Lp2rriCRhaGtV78t6Q3frpeWi/Z9656rBB07tq6hhdGmghXAABgO60JOvmYvA631iZrhAmbVMihqd5cZQDyxzW55m5ubE7RUsgcM6NeuffS7iYrOvnYiNYGJ9QrmQEm7lduTerd9uBWCDMMszJVt8oFHA3PPvusfvSjH+nnP/95RdhZWVnRz3/+c/3oRz/Sc88917L2ffiOVbE5d60cUL75Rsm339BP562f4UbWpjWyMKz5gQFNJGUGpKqubx9Ov6u+yXF119mFu/cN27+6NT7Zp3ent3afAwAAO9OaoOMKK2Pk1DtVr3phVnumenPKhLdGIH/c0OSau/lB/oNW1SbTo+m9VEqarOjkNKyJiupUXuurferZcirVz+axVbnca5qsU+UCjpIXXnihIuzYQ84LL7zQ0raduzaptR6zu1i529iHWvpZn3pqJpNzuvaxFVrOXdPH167p44/H1d3drW4rLK33TtnCzobWV99o8CHHhpILn+jtwXK1R+5evbG6Loo6AADszTOtO7RZvQhLpTE6S8vmjb3ZXc1QRiE5HAnbNm45IpLkUTRnaHnaIUdouTzYPxGQI+FRNNpX+5D5da16ejVR+aJi3mn1ZOKqlylSIXPsjiRVNGcLhxKeqHKZsFz2+dzySS2oV/O1NvFYVaZ8TF73goZzhowdzZAAtL9i2Pn7v/97SWqLkGM6p2vffGP9fV3rb45opmdYq28P6pqk9VqbbMzozZ539Undfb6t5DfF4JLT2id9GqwKTZ+826On37X+8cZPtW7LOeruUd8nS8pJdatAAABge+0xGYErrIyteuGPW3+3jZ/JRT3yRHPWvzMKu6zZzeJua9a1VUVz1rKB3tJzalzhTLkqkltTtq+n3E0uG5HbYY4BalQ48ceLlZucop6qMTxGTlGPbTa4Gt3wUtMR9U3W6J6XX9dqsT2usDLWeQGd6IUXXtCPf/xj/fjHP26TkGP58ENr8gGr29jAu+qzV1hqeTtZ0dWt/JXU2/b1Nta1+sbWLrP2MTrfTK6p5+l3VO6s5lbvG6tap6QDAMCetEfQ2ZPiuBZbSHANaHi1xniawKqixT5luTVlra5ozXQPM5+NMyLN77A7WT6mqdVoZVc2V4/6EgE53JFmBu4AHeP555/X888/3+pmVNhYn9JSMWW4e/VGw7W3MmdRswcVm+4e9X2yplyjHZwb1NuyBxuzClS76xwAANjO48eP9fjx41Z2XdsZVzijTPNrl7vF1eOPy6gRWPxxo2Z1x6we1TtWrQXl1/1bGu5X3DBUc3cADtGGkgt9GvzY/PvMyIKGkz/VwtSMNs6Na/zjj6216vlQSz+rtdsZvTkizX/cI1kh5ly94PLhkn6mPiWLyzfWtSppsLifngUNr3+scdX5O4EIAICaOqCiAwC7tGGOn3NrQzNv9mhheF7j58Y12feuRurN8dw9ro+vnTOfjfP0lHrX7d3VzunaN9d0LremT/p61K1zGnz7E61VlXQqnrkzICW/uaZSZ7ncmj55e1DbdJ4DAADbODIVHQDYbxvJBWl4XpoZ0cLwuj62yiPnrn2jczK7pQ38TJLe0E/X7f8ujrPplrShmTd+poGnK0s7byevmfua+KmmRswKUbe172+u1W2RZqZW9dN5a4XucX38zbi1rN7fAQCA3RdffKHPPvuMoAPgydU9/rHMzmnFPyttCSU1Q0q3xj/+RnVjR/e45offVM87PdLPBhq2J/m2zMBFdzQAAHbthRde0PHjxwk6AHDQusc/1jeSdO2b7ValyxoAAPuEMToAAAAAOs6BB53nnntODx48OOjDAOgADx480HPPPdfqZgAAgA5w4F3XPB6PfvnLX+r3v//9QR8KwBH33HPPyePxbL8iAADANg486HR1damrq+ugDwPgCeJwOGQYhhwOR6ub0hF4LwEAnYjJCAAcOc8//7wKhYKOHTvW6qZ0hEKhoOeff77VzQAAYF98+umn+s///E+CDoCj59ixY/r8888lSU6nk2rELhmGoUKhoM8//1wvv/xyq5sDAMC++K//+i999dVXBB0AR8+zzz6rP/uzP9P9+/f16NEjPTaMVjfpSHrK4dCLL76o7373u3r22Wdb3RwAAPbFd7/7Xf3pn/4pQQfA0fTcc8/J7Xa3uhkAAKDN/OAHP9Drr7/Oc3QAAAAAdI6vvvpKv/nNbwg6AAAAADoPQQcAAABAxyHoAAAAAOg4BB0AAAAAHYegAwAAAKDjEHQAAAAAdByCDgAAAICOQ9ABAAAA0HEIOgAAAAA6DkEHAAAAQMch6AAAAADoOM8c9AFmZucO+hAAgD0YHxttdRMAANh3Bx50JC6iANCu+DAKANCpDiXoSNKLL754WIcCgCfCo0ePWt0EAADaFmN0AAAAAHQcgg4AAACAjkPQAQAAANBxCDoHIqWQI6RUq5sBAAAAPKHaIOjkFfM65HCUv0KHnhC2tsHhjSl/2M0oNScmL0EJAAAA2LU2CDqS5FE0Z8gwDBm5qFYDXsVakDKCy1YbDENGJizXvuzVDFE7CW/55IIUnZB/X44PAAAAPHnaJOjYuMKaDGa1kGxZPaXFUpqOSMMD+xOzAAAAgCdR+wWdavmYvHW7taUUKi3zKhYLVXU5sy93yLubMlG941d3L6vZ3SylkMOtSFZKBMrd4fIxr62bXNU2qSUlPMMq5pz66zY6t304bwAAAOAIa7+gk49pKuGxKhp5xaal+WJ3suWgEoHizX5KIUdAKnU3m5cWErYdpRRyTKm32CXOyGl4wd2wC1kiUB0OGh2/GX7FjZyiHqtbXCYsVz6mkUiflov7NOIVXdRSSwkFJ61uc3XXbXRu5vuyGs2VuuFlwlSHAAAA8GRpk6CTVcRthQz3goZzGZn35i6F42GpWNUI2IJMakkJT1QTpZTgUngyWLncvl+rsrK6Xr+6YR+jY4aDBsffLVeP+pRQwFFjHFI+pqlEUIP+bdZtdG7W+zJPuAEAAMATrE2Cjm0yAqMYclTqNjai+dJEBZ4d7TaqnGGbYGCn1Y29Hr8mv+LFCtSI1eXOCjH55IKywUFbhaf+uns+NwAAAKCDtUnQqSO3pqytOpFPLihbXOYfVDAb0XR5kIxiU7aKy5blUiq0wymbGx1fkrSqdXtIaWaf+ZhiKUlyKZzJKerJai1ntj+5kFVw0L/9uo3ObcuylGKM0QEAAMATIplM6p/+6Z/aPOj4JxRVRG5r3MzIWp+touJXPBfVamlczYg0HLRvXLXcoaXB+M6mbG50fFdY81GVuo9Vts3OpYFhT3kyAldYPUu2Lmd9y4r7JeWTWpC9K555jJrrNjy36mVL6qHSAwAAgCfEwMCA/uEf/kGOQqFgNLPBgwcP9NJLL+34QDOzcxofG9WLL7644213LBWSY6pXuX17Bs7hSYUcmurN0f0MQNMePXq0530Uf0fv1m6vDQe1r0O95gAAanr06NGery9Fu7k2/Mu//Iv+4i/+os0rOg3lFfNWTbccSMgzPHDkQo6U0lJppjkAAAAAe/VMqxuwey6F53vldTgUsF7xRI9qRcSvuLGjTnUAAAAAGjjCQUeSK6yMEW51KwAAAAC0mSPcdQ0AAAAAtjIMg6ADAAAAoPMQdAAAAAB0HIIOAAAAgI5D0AEAAADQcQg6AAAAADoOQQcAAABAxyHoAAAAAOg4BJ1G8jF5HV7F8pKUUsgRUqrVbQIAAACwrTYIOnnFvA45HOWv0KGnia1tcHhjyu/T3lOhg9s3AAAAgK3aIOhIkkfRnCHDMGTkoloNFKsohyu4bLXBMGRkwnK5wsoYGYVde9+3J5or7Xu5LyL3tmnODF+HH/oAAACAo69Ngo6NK6zJYFYLyc6tebh7Pa1uAgAAANDR2i/oVMvH5K3brS2lUGmZV7FYqKpbmH25Q96dlonyMXnrjsvZ7b7zSi5kFRz0q1i1qdg2FZLD65XX4VYkKyUC9q5u9Y+Zj3lt3eMYSwQAAIAnW/sFnXxMUwmPhgdckvKKTUvzxe5ky0ElAsWb+JRCjoBU6m42Ly0kbDtKKeSYUm+xS5yR0/CCu2FXsESg2eCy831nI25r325FFNWEX5JcCk8GlV1IlsJZaimh4GRGGSOnqMfqTpcJy9XomPmYRiJ9Wi6+T0Zc/mbeawAAAKBDtUnQySritkKGe0HDueK4GJfC8bBUrFYEbEEmtaSEpxgYrHUng5XL7fu1KiSr6/UDjH2MTqbRwJxd7Ns+RseYXJO7WHXxDyqYXVDSmtltKRHUYK2U0uiYrh71KaGAozVjmwAAAIB20yZBxzYZgX3wv9VtbUTzpYkKdjS6xRNVzrBNMLBdgDmsffsHFdSqzFzk10RUWkjmlY9NKREcrF+NqXtMv+LFqtaI1Y2PwAMAAIAnWJsEnTpya8p6opq3AkQ+uaBscZl/UMFsRNOl7mJ5xaZsFZ8ty6VUaJ/Grux136klJdSnHisXuQaGpYVpTS9I0Yk6MafRMfMxxVKS5FI4k1PUk9VabqcnBQAAAHSO9g46/glFFZHbGjczstZnq+j4Fc9FtVoaVzMiDQftG1ctd2hpcL/Grux83+UxOg6ZQ4ts67vCmuxLKKFhDZSKQi4NDHtskxE0OKYrrJ4lW5e2vmXFGaQDAACAJ9A//uM/6s///M/1TKsbYlYhMg2WGQrbX4rbF4eVMWxLUyFF1GB5wzYYNV4Oq/yyX3HDX7WsmX1L/rghI779ep7hAdk7v7nCGVUcosExmz0GAAAA0Ml+8pOf6Pvf/36bV3QayivmtXcXSykUSGwJC0dCPqapRFCT+zV+CAAAAHjCtUFFZ7dcCs/3yutwKGC94onm9m+ygUOSCjkUSJgzvtHbDAAAANgfRzjoaEfdx9oVXc4AAACA/fXP//zPRzzoAAAAAIDN3/3d3+nf//3fj/IYHQAAAACo9JOf/ES//vWvCToAAAAAOg9BBwAAAEDHIegAAAAA6DgEHQAAAAAdh6ADAAAAoOMQdAAAAAB0HIJOI/mYvA6vYnlJSinkCCnV6ja1nbxiXodCvDEAAABoI20QdMwbZYej/HX4N81b2+DwxpTfp72nQge3751ph/caAAAAOHhtEHQkyaNozpBhGDJyUa0GilWUwxVcttpgGDIyYblcYWWMjMKuve/bE82V9r3cF5F724RxUJWS9nivAQAAgIPUJkHHxhXWZDCrhWTn3n27ez2tboLpCXivAQAA8GRqv6BTLR+Tt25Xq5RCpWVexWKhqm5h9uUOeXdausjH5K07Lme3+84ruZBVcNCvYtWmYttUSA6vV16HW5GslAjYu7rVP2Y+5rV1SdvtWKIG59Tw+6Ct69EnDgAAAC3UfkEnH9NUwqPhAZekvGLT0nyxO9lyUIlA8SY+pZAjIJW6m81LCwnbjlIKOabUW+ymZeQ0vOBu2BUsEWg2uOx839mI29q3WxFFNeGXJJfCk0FlF5KlcJZaSig4mVHGyCnqsbrTZcJyNTpmPqaRSJ+Wi++TEZd/x+91o3Nq9H2wvy0hOdwLGs4ZMuJNtQAAAAA4EG0SdLKKuK2Q4V7QcK44LsalcDwsFasVAVuQSS0p4SkGBmvdyWDlcvt+rQrJ6nr9AGMfo5NpNDBnF/u2j9ExJtfkLlZd/IMKZheUtGZ2W0oENVgrIzQ6pqtHfUoo4GhmvE2d97rhOTX4PhQthWTmzv0Z0wQAAADsRZsEHdsAefuNstUNakTzpcHzOxrd4okqZ9gmGNguwBzWvv2DCmpVZi7yayIqLSTzysemlAgO1q/G1D2mX/FiVWvE6sZXN/DUea8b7b+J70NidVWe0jkBAAAArdUmQaeO3JqynqjmrbvxfHJB2eIy/6CC2YimS/2n8opN2SoNW5ZLqdA+PQdnr/tOLSmhPvVYIcM1MCwtTGt6QYpO1Ik5jY6ZjymWkiSXwpmcop6s1nL7eE6Nvg+W4GRGmdywFtxMWQ0AAIDWa++g459QVBG5rXEzI2t9tkqCX/FcVKulcTUj0nDQvnHVcoeWBpscu7J9w3a87/IYHYfVxcu2viusyb6EEhrWQKnC4tLAsMc2GUGDY7rC6lmydTnrW9bOh8g02H/D74ONK6yMsSwF9jIhAgAAALB3jkKhYDSz4oMHD/TSSy/t+AAzs3MaHxvViy++uONtdywVkmOqV7lMWEdtmEgq5NBUb27/utYB6HiPHj3a8z6Kv6N3a7fXhoPa16FecwAANT169GjP15ei3Vwb/u3f/k3f//7327yi01BeMa+9apBSKJCQZ3jgyIUcc/azoCYJOQAAAMC+eKbVDdg9l8LzvfI6HApYr3iiR68ikgo5FEiYM74xITMAAACwP45w0JE1JiTc6lbsiT9uyIi3uhUAAABAZznCXdcAAAAAoDaCDgAAAICOQ9ABAAAA0HEIOgAAAAA6DkEHAAAAQMch6AAAAADoOAQdAAAAAB2HoAMAAACg43R40Ekp5Agp1epmtINUSA5vTPlWtwMAAAA4BG0QdPKKeR1yOMpfoUNJJsXjehWrvvt/AkNBKlT5PXjSzh8AAACdpQ2CjiR5FM0ZMgxDRi6q1UCN8HFAgsE+RUa4qZckTzRnfg8MQ8t9Ebm3TZxmWDycYAoAAAA0r02Cjo0rrMlgVgvJQ4oegxOKKqKRw0pWR4S719PqJgAAAAC71n5BZ4uUQvYuVVvG3Gy3fDsuheejUsTdoDLR6BgphRxexWKh0nJvKTQVKx6V21ccJx+Tt263Pft21jEqupRV7tdbEdaq2hxI7OA9ySu5kFVw0F86h4p9p0JyeL3yOtyKZKVEwN7VrX6b8jHvHr5PAAAAQPPaL+jkY5pKeDQ84JJ50xzQqq1LlbEsBUo3ydstb5IrrPmoR4lAre2aOUZWkbXBUtc7RUYqut4lAksaLG0btB0nr9i0NF9zmXlcLVvLjHlpIVHVrin1Frv8GTkNLxTDWvW2hpaD278N2YjbCiFuRRTVhF+SXApPBpVdSJYCVmopoeBkRhkjp6hHCi4bMjJhuRq1KR/TSKRPy8VzNeLy7+BbBAAAAOxEmwSdrCJu65N+94KGcxmFXZJSS0p4opoPu8qr+icU9SS0lGpi+Q64wvOKehIKVJd1mjqGR9EJ67bdNaDhql5fwWXbTX3Fti6F42GpWOmwV12s406UNjQDR8Vy+/tmVVdW1/M1tpX8g9snHfsYHWNyTe5imPMPKphdkNmbMKWlRFCDtVJKoza5etSnhAK1Jn8AAAAA9lmbBB3bZASGFXK2Wb/XvZfltZhd2DyJgEJLzay/m2NUsbqtjWi+VA3a0cgYT1Q5o1y1MQxDme3fvOb4BxXUqtbzkuTXRFRaSOaVj00pERysX42p2ya/4sXK1Eid2e4AAACAfdImQacO/6CC2aqJAlLTimhYA64mlu9UsQtbwlZZ2YdjJGzlpXxsRJGsVRHJrSlrqxblkwvKVh13urRpXrGpre2athWgUiF7BabBts1ILSmhPvVY5+gaGJYWpjW9oHL1qlqjNuVjihWrWJmcop6s1nI7axIAAADQrPYOOvIrbiyrrzR2xCFHQFrOhOVqavnOmV3YdtKG7QW1VNrWHenTcnF8it+c8c1tLRtZ67NVdPyK56JaDRS7gY1Iw/buZ9XLHVoaLHaR8yu+HDQnCai5bW3Z6nO0j6NxhTXZl1CiIuC5NDDssU1G0KBNrrB6lmxd2vqWFWeQDgAAAA6Io1AoGM2s+ODBA7300ks7PsDM7JzGx0b14osv7njboy+vmNettUljf27qUyE5pnqV20OQ29vhHZrqze1f9zgAe/Lo0aM976P4O3q3dnttOKh9PdnXHABoD48ePdrz9aVoN9eGTz75RK+//nq7V3SeZHnFvFXTWAcS8gwPtCTkmLPhBTVJyAEAAMAR8EyrG4B6XArP98rrcChgveKJtqaakgo5FEiY00jT2wwAAABHAUHnQLkUzjTVM7DO5mFljPD+NWeX/HFDRrzVrQAAAACaR9c1AAAAAB2HoAMAAACg4xB0AAAAAHQcgg4AAACAjkPQAQAAANBxCDoAAAAAOg5BBwAAAEDHIegAAAAA6DgdHnRSCjlCSrW6GY2kQnJ4Y8q3uh0AAABAB2mDoJNXzOuQw1H+Ch1KMmnVcXcmFapsI6EIAAAA2F4bBB1J8iiaM2QYhoxcVKsBr2KHcjffquPujCeaM9toGFrui8i9bSIzQ1w7BjcAAADgMLRJ0LFxhTUZzGoheciJo1XH3SF3r6fVTQAAAADaXvsFnS1SCtm7bm0Zc7Pd8l3Kx+St263NfkyvYrHqcTaVbfJWlImq2htI7KRRSi5kFRz0q1i1qdh3KiSH1yuvw61IVkoE7F3d6rcpH/Pu//sHAAAAtIhhGG0YdPIxTSU8Gh5wybw5D2jV1nXLWJYCpZvx7Zbv9rh5xaal+dI+g0oEKo+pZWuZMS8t2MNKSiHHlHqLXeKMnIYX3FZQqt7W0HJw+6ZlI24rhLgVUVQTfklyKTwZVHYhWQpYqaWEgpMZZYycoh4puGzIyITlatSmfEwjkT4tF8/ViMu/0/cOAAAAaDNtEnSyiritioJ7QcO5jMIuSaklJTxRzYdd5VX9E4p6ElpKNbF8t8eVS+F4WCpWOuxVF+uYE6U0YAaOiuX2/VrVldX1fI1tJf/g9knHPkbHmFyTuxjk/IMKZhdk9rZLaSkR1GCtlNKoTa4e9SmhgKM9xycB2J1f/OIX+sUvftHqZgAA0DJtEnRskwIYxbDReP1e916Wb3Ncq9vaiOZLExXsaGSMJ6qcUa7aGIahzPYn1Rz/oIJa1XpekvyaiEoLybzysSklgoP1qzF12+RXvFiZGrG64hF4gCPviy++0BdffNHqZgAA0DJtEnTq8A8qmI1opGIcyrQiGtaAq4nlu5VbU9ZWKconF5StatN0qWKUV2zKVvHZslxKhewVmAbbNiO1pIT61GOdn2tgWFqY1vSCFJ2oE3MatSkfUywlSS6FMzlFPVmt5XbWJAAAAKDdtHfQkV9xY1l9pTEqDjkC0nImLFdTy3d72AlFFZHb2ufIWp+touNXPBfVaqDYDWxEGrZ3P6te7tDSYHHci1/x5aA5SUDNbWvLVp+ffRyNK6zJvoQSFeHOpYFhj20yggZtcoXVs2Tr0ta3rDiDdAAAAHDEPdPqBpiVhEyD5WbXqviulvsVN+rdtTc6rkvhjKGw/SX7AVxhZQzb0lRIETVYXtGkuAyjsrXhOquaqxsy6p98iWd4oCLcucIZVTShQZuaPQYAAABwVLR5Racd5RXz2md1SykUSGwJGofXnJimEkFN7tcYIAAAAKADtEFF56hxKTzfK6/DoYD1iiea27/JBnYgFXIokDCnkaa3GQAAAFBG0NmNRl3TDhFdzgAAAIDa6LoGAAAAoOMQdAAAAAB0HIIOAAAAgI5D0AEAAADQcQg6AAAAADoOQQcAAABAxyHoAAAAAOg4BB0AAAAAHefoBZ18TF6HV7F8i7YHgCPg29/+tr797W+3uhkAALRMGwSdvGJehxyO8lco1eo2bS8VqmyzwxsT2QlAu/jhD3+oH/7wh61uBgAALdMGQUeSPIrmDBmGISMX1WqgQcXFFVbGyCjs2uWhKrY3Q9Zug5UnmjPbbBha7ovIfRQSGgAAAPAEaJOgY+MKazKY1ULyaNVH3L2eVjcBAAAAgKX9gk6FYsUlpVCxe1g+Jq8jpHLtxFpW+rIva7R9SiGHW5GslAg45PCGFPI65LWXklKhJruk5ZVcyCo46Le9FJO3Tne8fMxbp72V5+JlIBEAAACwK+0XdPIxTSU8Gh4o901LBJY0aBgyMmFV9lhLKeQIaNXWhcxYlgIV4aHe9n7FjZyiHim4bMjIxBWfDCq7kCwFm9RSQsHJ6mOWZSNuK5S4FVFUE6Wck1dsWpovtSmoRMBqUz6mkUiflovLjLj8pXOZUm+xC5+R0/CC+0iMVwIAAADaTZsEnawibquS4V7QcK5yDE5wuRgGqqSWlPBENW9f2T+hqCehJVtAqLt9Nf+ggtkFmb3mUlpKBDXYYEP7GB1jck3uUsByKRwPS8XKTSBR3sjVoz4lFKie+S21pIT9fbCqTavrVHUAAACAnWqToGObjGAvEw3Y9tfr3s12fk1EpYVkXvnYlBLBweYCkmSGJK1qPa9St7URzZcmWCiP4PErbhgyjHlpxCGHPfB4osqVKj3mV2bvbwYAAADwxGmToLNL/kEFsxGNVIyrmVZEwxrYZT5wDQxLC9OaXpCiE03HHKsi06cel6TcmrK2SlM+uaBscb18TLGUJLkUVy5MoAAAIABJREFUzuQU9WS1liufy7StEpUKVXbBAwAAANCcox105FfcWFZfaayMQ46AtLxlLE89Lg0Me6zJCKxJB1xhTfYllGgiLGWrj1scb+OfUFQRua1lI2t95YqOK6yeJVv3tL5lxf3WueSiWg2UJyNYGmyyyx0AAACACs+0ugFmZSPTYJlR9VJYlS+ZXcHiu9zeFc7ICG/d0jM80DAs+eOGjNoHLR23Yre2detu6worU6sxAAAAAHakDYJOm8nHNJUIatJgbAwAAABwVBF0bFIhhwIJc7ppuowBAAAARxdBx6ZxdzQAAAAAR4FhGEd9MgIAAAAA2IqgAwAAAKDjEHQAAAAAdJyWjdF59OhRqw4NAEfeiy++2OomAADQ1qjoAAAAAOg4BB0AAAAAHYegAwAAAKDjEHQAAAAAdJyjF3Q2Z3XWeVazm61uCAAAAIB21QZBZ1OzZ51yOstfkXSr21RfOlLZVufZWZG5AAAAgPbSBkFHkk7rykpBhUJBhZUrWhtqULHpGtPNwk2Nde32WGaw2kuYOn1lxWxroaDF3kvq33Znez8mAAAAgOa1SdCx6RrTxOht3fjoaNRJuk+cbnUTAAAAAFRpv6BToVgJSStS7Ca2OauzzojS1rKzttLP5uzZcleyzVmd3dIdLq2Is1+XbktzQ/ZuZ9b+ra+zTQ8A2tRHN25rdMBXamvFtumInGfP6uwOj7k5e9bWPS4iCkEAAADAzrRf0Nmc1fTcaZ1/q9w3bW4oqYFCQYWbYyq/2qWxiVHdvvGRFRys0DExpi5tanZGumZ1LyssjmpuKKK0fIoWVnTltDS6WNxfWhHntE4Uu84VVnT+Rn/Dbma3L/VbIaRfl3RF475a7ZHSyTmNTtzUzZ0cc3NW71zq1WKx7YWofPv+JgMAAACdrU2Czm1d6rcqGP03dH6lcgzO6GKdm33fgEZv39BHm5I2P9KN26MaKIaO6JhUrIwMzdU/dDqpOfvxrerLWr5+Vcc+RqcwcU/9xaqLvT1KKzlXbM8OjtnlUq/mNMTMcgAAAMCutUnQsU1GsKOJBnwasMbzbH50Q7oybgYiq9vaO7pWmuCg4Uia01e0UqqgmF83m22Eb0CjWpOZi3wavyKzPbPTmhsdqF+NqXtMn6KFggqFa9I7TjkJPAAAAMCOtUnQ2T3f+BXpxoxmbqjc3W3jnm6fvqJrVljZ/OiGbtfdwYBGb1/SjK2rWjqyg3Ex6aTm1CuXdeiut86X2nNlvE7MaXTMzVnNpiWpS2M3V3Tl9G3d22i2MQAAAACkDgg66npL5zWnud6JciXIN64ruqR+a0D/O/d6bRWdLr11/rRtYgCfoitXtDZUnhggOdB4XEx5jI5TziFp0T6OpmtME71zmtN5lYcZ7eCYXWNyJW1d2noXFWWQDgAAALAjz7S6AWbl4maDZYWql8ZU+ZK5zliN7Spei9p3cVMF+8KuMd0s/P/s3X9MW3ee//vXCWmSquqEdJJ2qpFG8w02CSzZ0TfajYqDKu3VhcbQap2Vws4fV00qTTDcP8D8QbTRplrpJqOMwh8Y/uFHRmpSrXR3iLRh1IJTsvqu1AumN1rxVb/NQIMN071S1emGJs5WO03Toef+cY7tY2MbkwCGk+dDsgQ+53zOx55u8Gvf78/HmSPkUx9OKBFe+bwjx1+Ts/ltNfcs9h4AAAAActsEQcdlFvrVfeWUuhKP/Y2mAAAAAJ4QQWcN3QyV68QVaxtpus0AAACA0iHorCFazgAAAIDNYetvRgAAAAAAWQg6AAAAAFynZK1ru3fvLtWtAQAAALgcFR0AAAAArkPQAQAAAOA6BB0AAAAArkPQAQAAAOA6BB0AAAAArrPJg05EQeOoeuOluHVQxtFeleLWAAAAAB6PaZqSNkHQiQQNGUaORzBS6qkVIaLglpszAAAA4H4lDzr+QVOmaco0x9SiFo2Z9u+D/lJPrbBIUIbRKI0l52/KDIzo6LqWn+LqPWqIPAUAAAAUVrIvDN3aIgo2DqllzFRGHvMPanKT5zMAAADgaVDyik5RRoM52sOS1Q27fSy1niaznSyjwhLv1VHHsczKSFYbWuNQ/vlERjTkC6urYKjJGs8IKnW7eK+O5v3dXpfUG8x6DREFDa9CUWmo0WD9EAAAAFDAFgg6UYVmAlZrWCws39CFjM0JhhpHFDBNmZMd8iiioHFB1bFkO1lMzcNeO9DE1dstXU22mY21aKjRGS4y29DGWp5kztZ4t8OxdFvbmNToDDereM0KnVRv3K9BM6awT2oZS75eAAAAALlsgaDjUzhZOvE0qdmXebRlbFCpwkpkREOKKuRNVlGsCsjtubgkjzoGO6Teo8srNjkqNP7AEyQde7yrHY4o4u9S2DekkaKSTuHXDAAAAKCwLRB0VskXVsx0bBBgmprs8KTa1k7qaro69Lj38AfUEh3W6Kp7x3yq9j7uTQEAAAAUy11Bxx9QSzSkbkfVJBK028ViM4o6qizx0WFF814XV++FAmt05FdXWAp5s77jJxK01tPY4510Hox0K6RmNaWKPLc1Zx/OmAsAAACAJ+auoCO/BmNh3W5MbwIwErBb2/xdCiskr/38yZkaR0XHr8GxFmuRv2HIME5KzYVb1zwdkzLHahxtcoaMkYBVPZJfg+aYakJex+YG0lhyXY2nQ1fDSl2bOZeCd1VTs4/NCAAAAIAVGIlEwizmxMXFRe3du3fVN+jrv6L2tlPavXv3qq8FAOT34MGDJx4j+W/043rcvw3rNRZ/cwCg9B48ePDEf1+SHudvQzQa1Z//+Z+7raIDAAAAAK5rXQMAAAAAgg4AAAAAFyLoAAAAAHAdgg4AAAAAVzFNk6ADAAAAwH0IOgAAAABch6ADAAAAwHUIOgAAAABch6ADAAAAwHUIOgAAAABcZ/MHnXivjhpH1Rtf7xtFFDSCiqz3bQAAAACsu5IHnUjQkBFcHi/ivUdlHO3VuuebIkWChgzD8dhEcwMAAACQqeRBxx9okYZGsiopcY0OR9VyrkMeT4cmzUl1ePKNEFfvUUM5stKa84VjMk1TpmlqrCYk74o33bi5AQAAAEgredCRP6AWDWnEGQbioxqOtijgL9msVuSt9pV6CgAAAADyKH3QkV9WUSeddOKjw4q2BOSX7DU6ybUzyQpJREHDkHH0qI4aXoWi0lCj3U6WcX729cnf0y1oj1dtsStOAX9qTkedi4giwdxzsw5ac7cfzuvivUcd7XGsFwIAAAAe1yYIOpK/Kyxfqn3NGSJyG2ocUcA0ZU5OatKMKeyTWsZMmZMdytvhZo/d2y1dtdvPzLEWDTUWHyiiIa8dQrwKKawuvyR51HGuRdHh0dSancjIkFrO5ZpbREHjgqpj9v3NmJqHvVbYivfqZKhGY8m5mYPaxAUtAAAAYFPbFEFHniY1++z2tSLa1lrGHjcEeNQx2CElKyeNQ6u62rlGxzw3I2+y6uIPqCU6rNG4JEU0MpRn/pERDSmqkNdIB6aodHsuLnkqVaMhNW7IDnMAAACAu22OoCOPmpp9GhqJZLatrTW7be2krlphJRbWY6+08QfUotuai0uSX11haXg0rnjvBQ0Vmr8vrFiqamM9Jjs8kvwaNE2Z5lXppCGDwAMAAAA8tk0SdCRPU7N8Qxd0clgKdz1pzEkGEHu9T/Lp2IyivrCu2lu4ZRxbrciIhlSjSrtXztPULA13q7vQ/P0BtURD6nb0ykWCdlUo3qveiCR51DEZU9gX1UzscScHAAAAPN02TdCx2teiiqpZTYUX2mRfaFWDkgv+PR26GlaqPezkTE26auPvUlgheY0cx4qQXqNjyGiUxpzraDwdOlczpKGM+WfNTX4NxsK63ZjejGAkYI/h6VDliKOlrWZMgyzSAQAAAFbFNE1J0vYSz8PBo45JUx3Lnu7QpJl5zvJTJmU6L8z+fbDAPVLH/Bo08ycL/6ApczDv4RRfc1PGhgjL5ubp0KS57FWu6h4AAAAACttEQWeLi/fqwlCLzpmrKkcBAAAAWAcEnTUQCRpqHLK2kabbDAAAACg9gs4aoOUMAAAA2Fw2z2YEAAAAALBGCDoAAAAAXIegAwAAAMB1CDoAAAAAXIegAwAAAMB1CDoAAAAAXIegAwAAAMB1CDoAAAAAXGfzB514r44aR9UbX+8bRRQ0goqs9202pbh6jxoKPp0vHgAAAC5U8qATCRoycnzCjvcelXG0V+ueb4oUCRoyDMejZHOzQolzLgQUAAAAIFPJg44/0CINjWRVUuIaHY6q5VyHPJ4OTZqT6vDkG2HjqhG+cEymaco0TY3VhORd8abrNTefwjFrHmYsrNuNG1HxAgAAALaOkgcd+QNq0ZBGnGEgPqrhaIsC/pLNakXeal+pp2DxdOhcS1TDoyQdAAAAQJJM09wEQUd+WUWddNKJjw4r2hKQX7LX6CTXziQrJBEFDUPG0aM6angVikpDjXY7Wcb52dcnf3/Sti+74hTwp+Z01FlSiQRzz806aM3dfjivi/cedbSkPe56ofzjF/3ak+fREwcAAIAtahMEHcnfFZYv1b7mDBG5DTWOKGCaMicnNWnGFPZJLWOmzMkO5e1ws8fu7Zau2u1n5liLhhqLDxTRkNcOCV6FFFaXX5I86jjXoujwaGrNTmRkSC3ncs0toqBxQdXJtjMzpuZhrxU44r06GarRWHJu5qCKKmjFe3VhyKfmJo9UaPxiX3skKMM7rOaYKXNwE5fUAAAAgAI2RdCRp0nNPrt9rYi2tZaxIkPA8hupY7BDSlZOGodWdbVzjY55bkbeZNXFH1BLdFhW91hEI0N55h8Z0ZCiCnmNdGCKSrfn4pKnUjUaUmNRO8w5xvAOqzlmr2EqNH4xr30kKKNRGiu4JgoAAADY/DZH0JFHTc0+DY1EMtvW1prdknVSV1ML+R97pY0/oBbd1lxckvzqCkvDo3HFey9oqND8fWHFUlUb6zHZ4ZHk16BpyjSvSicNGQUDj2MzguxQkm/8Il770O3b8qVeEwAAALB1bZKgI3mamuUbuqCTw1K460ljTvrDenx0WNHk07EZRX1hXbWTQcax1YqMaEg1qrRDhqepWRruVneh+fsDaomG1O3oF4sE7apQvFe9EUnyqGMyprAvqpnYKudUaPwiXnvLuUlNxpo17GXLagAAAGxtmyboWO1rUUXVrKZVtU3Z1aDkgn9Ph66GlWrfOjlTk65c+LsUVkheI8exIqTX6Bh2i5ejhc7ToXM1QxrKmH/W3OTXYCys243pDQFGAvYYng5VjjhazmrGtPolMgXGL/a1ezo0aY5JjU+yIQIAAABQWkYikTCLOXFxcVF79+5d9Q36+q+ove2Udu/eveprt5pI0NCF6pjdigYA6+vBgwdPPEby3+jH9bh/G9ZrrKfpbw4AbFYPHjx44r8vSY/zt2FyclKHDh3S9ie+OyzxXl0YatE5k5ADAAAAlBpBZw1EgoYah6xtpNmQGQAAACi9DQs6a9FisVn5LiWUuCRJD+TilwkAAABsGRsSdPr6r2zEbQAAAABA0gYEnbVYhAQAAAAAq7F5tpcGAAAAgDVC0AEAAADgOgQdAAAAAK5D0AEAAADgOgQdAAAAAK5D0AEAAADgOgQdAAAAAK5D0AEAAADgOgQdAAAAAK5D0AEAAADgOgQdAAAAAK5D0AEAAADgOgQdAAAAAK6z/kFnoV8N5Q3qX3D8HropaUH9DSHdXHkA9TeUK7TyiQWm0JD7+oV+NZQXOwfHa8j7XL5ry9Wwwok3Q4VfY97XAAAAAGCZ9Q86+9s0nujSncNWKLjZd1a3rpxQeflhnb11RSfKy1VeXq7yZBha6FdD6rly+zzpygnnc+nzF/obsp4vJrhI0oL6W8/qlpxzyHP9wge6Xt2ltv0rPCdJN0NZ87Hmf+vs4aznncFmQfGZU2pS9rX5g9RCf4PK7QFuhtJByvkzAAAA8LTavjG3qVc4UW+FAF1TIlEvq9LRJ894WPXOUxckHbmo6fE2ZWcIp5uhBsUl7W8bV6It9axCDXGpv0HlZ29lXVGuK6lxF9Tf0CoNJJRI3WRB/Q2Hdacraz43Qyo/ccUa4YokHdHF6XG99sF13bpyy34u/XybpCMXpzW+LAFlWuhvUF/qlw90vbpJ4/X1SiSaFGqIq91+/TdD5Qo1JdSeebFarx/X9Hj9snHrw9OKN7Sq/7Xx5SEMAAAAeEqse0Wnv8GqTjT0L0j1YSXCyz+cZ9jfpvEVQo4k1YftD/I3Q+kKxkJcM9Ue1beNK5FIpB7TF4/o1LWEEqmQc1hnb93S2cOFKkfpys6Ri9P2WNO6eESSbqrv+nFNO+5x7VTWBLNb9gq42XdWOlBh/zKqK7fO6nB5eapik+v86q5879F+tXVV62wffW4AAAB4eq170GkbTyhhp4CboexgkdU2FrqZoxUt/yMZnrrutFqBYv6OFRgW+tXQ0K9cGeNmqFV3qu3gkwwq0xd15MhFR3BJBprc7vR1S/mCRn3Yqubsb9N4YkBqtea50N+Q0VK2v21cVua7qdFUVWhB/d0zujhtvWdHkuEnw4LiM0eU81BSxQEdmYlbr38VgQsAAABwiw3dda0+nFVhSVzTKWfACNdbrWiOSkkqiJy6tuz5ZHtYfbhLdw6HFBq9omqPFTIGjl9Xa45P9/XhcbUfyFrzc/isbiWrKI7qTlJ6fY31/IH2cTWNFtg84GbIXl+zX23j6XlWe5ZHo4X+bunUKfvnVp3Vcb22X1qIz+Q8X5rXnVvVynkoab9H1bfuaL7AKQAAAIBbmaZZmu2l5+9kr5+RFQ4cyWF1u4zVK3xNunLllJrszrj9bQM6fr01ZyUjFaamL8oq3JzStYwQNa3p6fRaneWta1Zoyxt26sNKOKo5eV+zpHkdV3uT9dMH16t1reuODjf064M71anXkmEhrpkjB1SooCNV6MCRGcUXZFeWWK8DAACAp8vGB52bIZ2Yuaj2HB/i061aC/rgujLbs66cyGxdy2pNW4jPSLqi0VTw2K+28eUf8DPa51qlgemLOrJs57VWtX6wcsqqD0/rQHfmLm3p1rvM3dZOXMmxc1zopurbki1wFWobD6u+PqxE1x2dVZNyrmYqqlpTRNUHAAAAcLENCTpWCLFDQPcBx45qFTogu2XsxIyOv2Z/Mr/Zp7O3bumO89N8duuac8OChX61nq3WtcQ16UTh7aXrw1brnCTp1lkdbpUGkjsJnLqma6ekU9fGNd62wqYJkqwwFVa9FmS/xJytd9bwR6y1N85jOTdmsNfp2EmwPpzQ8tPsak0+C3HNpH5mjQ4AAACePusfdG6GdPispOuH1ecZzwwostawWB/8k9WXmwqdmNHF6WvSiWK+E+amQoev6/h0WPV2C1t3gWsW+hvUqoF0G9qtszo82mStF5qJqyI8rQPdmS1p2Wt0lstdQUlWj7oPTKda2ZKVnPxv12FdPz5QoNWsXk2nskLgsunc0a1TeSpCAAAAwFNg3YPOzdEZXZwe1/i4FSAK7qQWuqmboRPStXG17a9XOJFQ153D1mYB2a1ry863b5jc9czxxaOHz6bXu8zfuWUHl1Zp4JpOSXZb3AnNHH9N++3w1TSabo/LtUZHuqlQai4ndMUOFs7WuNEm56YJjlDXNJr1haH2iCErFDm/gyc53mHHDtT17Rc1051u3asPJxzXZFaEWKMDAACAp5GRSCTMYk5cXFzU3r1713s+KNJCf4MO3+mSrpzIeP7aKS0LSwCwXtbyb8NajNXXf0Xtbae0e/fuNZkTAGD1Hjx4kPr3+Ek9zt+GyclJ1dTUaPsT3x0lsb9tXAlJCieWHaNlDQAAAE+7kmwvDQAAAADriaADAAAAwHUIOgAAAABch6ADAAAAwHUIOgAAAABch6ADAAAAwHUIOgAAAABch6ADAAAAwDVM05RE0AEAAADgQtvX+wZ9/VfW+xYAgCfQ3naq1FMAAGDNrXvQkaS3/65jI24DAFil87/qLfUUAABYF7SuAQAAAHAdgg4AAAAA1yHoAAAAAHCdLRB0IgoahoKR7KeDMgxDvnA8xyXB3M/nFVfYl2esjGFzzMM5SthX8DgAAACAjbFJg44VPAzDkGGcV1XM1KDf+ZwhYyQg0zQVDXmWXR0ZGdKhA8ufT58QTI9jGDIMrzqnpKlOb9bzzmAT151PWhRQ9rU+rSpTAQAAAFh3mzToSFKLxkxTphlVOsvUqidmyjRNmYP+1JnxsC8jfDQOSUONxrLQYhiGDDu51PbErHEKPGI9tenpxN/X8KGA/P5BmeaYWmp7FLPnd6C7cKUHAAAAwMbaxEFnSI1FVk08oWgqnIy1SC1jBQKMIyApHpavyIpMpLtTqvLav4xoaKpTXkdwAgAAALB5bI6gEw/Lt2wdTrKiY4UXy5Q6vVkVGl9YqZwSCRas5qTG9w9aLW+ekKLmu9Kb1vqceNiXsU7HE4rKykURjQylJqvw+U+sytJYi2qT4Sfna6KtDQAAACiFEgYdx5qbN6V3TVPOYktuyda1mHpq7SAUDckjWcGicShvS1o6LNkiQbtS5FEoml7rk2ttTzx8XmppsX9+U51q1useKX7nk/xrgRwhygpaQVH7AQAAADZGaYJOPCyf4dXs23YQSYaVDOnWtcahHGNkiCjonVVzT23ODQVyjuEflOmo5khSbHYq5+gxNasrYP30/vAhjb09K68vrPdnDylQMJxZIco0TZmxKp3PtXscAAAAgDVXmqDjCSlqxlR1vlC1I7t1LabZqUPKVUCJBM+rKjao15V/kwFnRSe9eUHmbms5296CEflDySDmVSg6aG1I8PasOhVQ4SKUo2rlndXbRVWtAAAAADypErauFah2xN/XsKqUXP3iH4wqFBvRUEvuYOEfTO/MVkxFx7l5QWYQcuzqlmvzghR7nU6X375/jgATD8tn9eTZYw2uEIoAAAAArJXNsRmBJ6Soo9oRf39Yan7d0c6WGSwKKXqNji0StILQ+apYqpXNuQ117mu8Gm5+Vzm+wifrNUULnwMAAABgzZmmuUmCTpbY7CG97UwIke6Vg0Uu9m5uVkWnJbWeJhluDMPQSMB0fPGoo8oUGMn6wtD0teerYhlfVJocz+vYgRoAAABA6Wwv9QRy8Q8OZj+haEYxx6NQNOscWS1p0cwnFDVDOcY3ZS6/fNk9TedJqTmYy1rQihoPAAAAwIbZlBUdAAAAAHgSBB0AAAAArkPQAQAAAOA6BB0AAAAArkPQAQAAAOA6WyDoRBTMsc2zIkEZhiFfOJ7jkmDu5wudEwnK8AUV9Pm00qWSFA/7VrhHXOFlY+V6Lt+1eV6bQySY433JmmOh4wAAAIBbbdKgY33Qt77r5ryqYqYG/c7nDBkjAcf332SKjAzp0IFiv3THHrdRGot2qUrSbLfPvk8ylFhhy3A8vJ1Tmur0ZjyXPl9S/H0NH3o787t/cj0npUJb+uFV55RyjO8MNnHd+aRFAWVfW1xQAwAAANxskwYdSWrRmGnKNKOOYFCrnpj9hZ6D6W+ziYd9GR/2G4ekoUZjWUgwDENGMGwHmyErSPi6Nata9cQGU9+PU9UVlWmaGmtJ3sGvQdO+r/2I9dSqtieW8VxqrpGgDG+npoYaM8JH/P1hx3OZoWT5WMsfsZ7a9NsTf1/DhwLy+wdlmmNqqe1RzJ7Dge7ClR4AAADA7TZx0BlSY5FVCk8omgoDYy1Sy1iBwDAYUihqyhxrscJFtEtVmlKn17BDj6T3g6nAJClHxSVfRScdMNLBJSYrn0TUPdxshxEzK0jZ4mH5iqzIRLo7pSqv/cuIhqY65TUMGSQcAAAAYJMEnXhYvmXrcJIVHWcgsAOJM1z4wkrlgkiwYDUnfwawK0V265peH1wWRNLBZUwtjrmZsVgqvGRUXLLMdp+X3g4pZ0Odf9BqwfOEFDXfld601udkrwPyhKKyClkRjSRDmOIKn//Emv9Yi2qT4SfbKkIUAAAAsNWVMOg41ty8Kb1rmnJ0o+WRbF2LqafWDhtROzzEw/I1DuVtAVtWPZEcrWvJAOVV51Q6TKUqOnYQsVrkGjXkrDa9+abetwNUOog419dY622quqIKjBQIW5GgXbnyKBRNrz3KtdYoHj4vtbTYP7+pTjXrdY8Uv/NJ/rVJjhBlzSsoaj8AAABwq9IEnXhYPsOr2bftIBLNVelIh4lU4MgroqB3Vs09tTnbyTLHiKfW6Fita4MajJqONjPHOqCM9UF2i1ysR7XOis7bh9TZuDzALG9dk/yDZv6w4x+U6ajmSFJsdirnq42pWV0B66f3hw9p7O1ZeX1hvT97SIGCYdEKUVYlqkrnC1a5AAAAgK2rNEHHE1LUjKnqfKHqQnbrWkyzU4eUq2ARCZ5XVWxQryv/ov50RceTWqNjce7mllnRyVjvYrfXGd5OTTkrOnaCstrlVm4N8w/GVHU+8/WmN1PI3G0tZxteMCJ/KBkMvQpFB60NCd6eVacCKlwUc7xW76zeLqqKBgAAAGw9JWxdK1BdiL+vYVUpudrEPxhVKDaioZbcH+T9g+nKy8oVnVzzsKou6U0MxtSiWvV0Oe7mCSnqDE/Wrge5d11b8XUPyq+47nySHDqaJ5g5q0vLd5tLs9fp2PP1D+YIMPGwfFaPoD3W4AqhCAAAANi6NsdmBHaISH44j78/LDW/7mhny/wgX8hq1ug4JqBQ1Gors4LRiAI5QotVecmqPiUrPVk9YNlrdJbLXaGKBK05nK+KpVrZllWXlH2NV8PN7xYOWZ6QokUFMQAAAGDr2xxBJ0ts9pDedn4ij3Sv/EE+l2QIMQw1DrWk1q/Ew75Uy1kyWBiGoUaN2aHI0ZrmCytsn/Om3lWs5xPrWOOQWgL+dKUnMJIRSHKt0cn84tHGVIXKOYeRgOn4IlRH1csePzvvRIJWKHJ+cWpyPK9jB2oAAADgaWIkEgmzmBMXFxe1d+/eVd+gr/+K3v67jlVfBwBrTF/qAAAgAElEQVRYf+d/1av2tlOPff3j/m1Yr7H6+q+ove2Udu/evSZzAgCs3oMHD1L/Hj+px/nbMDExoZqams1Z0QEAAACAJ0HQAQAAAOA62zfqRsbZTzfqVgCAIpgXD5Z6CgAArBsqOgAAAABch6ADAAAAwHUIOpKk5zV28ccq+FU7AAAAALaMDVujs5wVLlJfAfq7z2X849elm86q7FC4c7867m6lOQMAAABPj9IEnZ/9WObPn1fknz6V8XH6uVjDt/KOPyrJlFblRz9Qk75V/M9+oBZ9raFSzwcAAABAhhK0rj2vMTvkNH7sePrjz7dGyJHk+/Pnpd99ru7fPa/Az0o9GwAAAADZNr6i87MfyP8fizr6caGTstra9LWCZz+3KyfPa+ziXs396yN1/NXzkqT4vy6kQpKv4b9p8q925rku35iF7+8cX9qh5j+TRv/vRxp66WsN/m975ft4UVH7WLhzvyr/x+fSz9PXp0PdSscBAAAArIUSrtHJxwoZ3n9dkJEMFz/7scyLP5ZSwWSnOl5clHH2c+lHexXr+LHC/+v3Cmmvrv7VIwXP/j4rwBQzpvPcvZrr/VSNf5CS4WTsSzuM/GyfOvS1jv5B0h/+U5Gf71XzjxYV/UN6BP/Pf6Dg2U/VmLzPz3+slo/T91npOAAAAIAns/l2XbMrPiedbWwf31XvfzjbxL5V77/YmwD84T81+h/203/4VjE9r8GL/03hH612TMe52qmOjoMyLx6UeXG/Ol6UvC/tkCS1HHpe8d/9p13B+Vojv9uppj/fkTFE5J8coSXHfVY6DgAAAODJbHxF5+PcVZCVfau5L1c652s1nv1UVhXmoMwXv1Vv7+8VWu2Y/7Gooz3JdjSn5xX4M8nzZ/tl/pXj6T/bp5ZxKjIAAADAZlGCis7XuvCvUkdHdtXlx4o17LCC0It7dbXBUSWx28WGVwpGP9qr8M8k6ZFCPQvq/Y+dqnxJqxvTPveco8LS8n/Y37Hzsx/Ir68VPPupjNTjc0WUWZHxH3o+9bOv4cfqePFrjXxc/HEAAAAAT6Yka3Si47+X8eWPZXYcVEfyyd99LuMfH0l6pMazn2vsorNq8rWCZ3NVWLL8YVEz//tBmT93jPmxdX3xY36txt5FxTrS40T+yVpP03LI2m1tKOv8kd9Jg4eelz7+1jpfP7DW/6Tuk3nNSscBAAAAPJ6///u/18cff1zCzQg+/jz9HTrLJFvQ8h1zfknnI4V6fp/6begfP80TGlYx5h8W5T27uOysfGOnn7crRp98LuMf89yqmOMAAAAAHsvbb7+tAwcObMLNCAAAAADgCRF0AAAAALjOJvwena3skUI9+drjijkOAAAAYC1sWNAxLx7cqFsBAAAAeMrRugYAAADAdQg6AAAAAFznKQo6cYV9hoKRUs9jo0QUNIJ6al4uAAAA4LDhQScSNGTkSBvxsE+GL6x43iutoGIYzsdm+yAfUdA5v6cnVQEAAACbyoYHHX+gRRoayQoocb0/PKWWt0PyrHB9y5gp07QfY1KjsUmqNJGgDKNRcs4vMCJfOH90AwAAALA+Nr51zR9Qi4Y04gwn8fc1PNWigH+1Yw3KjPXok8ZSV3YiCjYOqWXM1KDzNfgHFQ2tFN0AAAAArLUSrNHxyyrqpKNJ/P1hTbUElMwI8bCv+PY0z+tqrnUGp8z2Md+yikrm8VQ1KB6Wz3mv7N8zrvMpHA6mW+0iIxqq7VFXwaCW1da2bGx7zBzzzv9+FBqz8P2Xvy8AAACAO5imWZrNCPxdPapNta/ZbWvJck48rDc7D2ks2f5lDqr4Qk9EQeO8qmLJa2NqHvZmtLYNNY4okGp9a9FQUdWgiIIZbWnvSsNDq3jF1vWf9MSy2u6c955S52zAOhbrkTrfVDhe6P0oZszi3xcAAADATUqz65qzCpPdtuY5oEMaUqPhU/FFh1pVeWVVVjSlTm+ycuFV55T0yZ30QC1jjuDk71JPbVYbXS7LKjYehd5uKXZyqevfdbaxLbt3rXqSN/C8ruba5K3yvB9Fjek4d4X3BQAAAHCP/69U20t79HpzrYZGIsva1iS/BpNVkzftNrFCn8cj3epUs15Pft6v7VHMdGwIYJrrv07GH1DL1LDeX3VusANa4cFX937kG7MU7wsAAABQAhP/1+ul+x4dz+vNqh06rzeHla5kSFI8rHBEkjwKRWPqqZ3SbCzPIJGgjMZP1POuvVubP6CWqU51R5ynZLZyZawNCr+pzoxNED5RssgRf39YU8mnl40bV/i8s3XNr64eqdObXXUJWmth7OvfdB7MDmj55Hs/VjNmEe8LAAAA4ArxUf2fsTMl/MJQz+tqrp3SVPYHc09IB0YcLVaHxjJ2MhtqdCy+P1+lmBlVujDh12CsR584zhkJZK7xadFI6pi385DGkmtePCG926NUe9ebs4dUq3zjvik1Z7aueUJRmWOHHO1hhoyRgF018WvQHNOhTm/6WKM0Fl15O+3878dqxlz5fQEAAADc4P/9f6aljy/JSCQSZjEXLC4uau/evau+UV//Fb39dx2rvm7TiwStoFVMWAGATer8r3rV3nbqsa9/3L8N6zVWX/8Vtbed0u7du9dkTgCA1Xvw4EHq3+Mn9Th/G/7lX/5FlZWVJazobClxhX1Z2zo3Dqm2+XVCDgAAALAJbS/1BLYGj0LvVslnGGq0n6ntibGYHwAAANikCDrF8oQUNUOlngUAAACAItC6BgAAAMB1CDoAAAAAXIegAwAAAMB1CDoAAAAAXIegAwAAAMB1CDoAAAAAXIegAwAAAMA1TNOURNABAAAA4EIEHQAAAACuQ9ABAAAA4DoEHQAAAACuQ9ABAAAA4DoEHQAAAACuQ9ABAAAA4DoEHQAAAACuQ9ABAAAA4DoEHQAAAACuQ9ABAAAA4DoEHQAAAACuQ9ABAAAA4DrbSz0BAAAAAFgrs7Oz+vd//3eCDgAAAAD3qKqqUmVlJa1rAAAAANyHoAMAAADAdQg6AAAAAFyHoAMAAADAdQg6AAAAAFyHoAMAAADAdQg6AAAAAFyHoAMAAADAdQg6AAAAAFyHoAMAAADAdQg6AAAAAFyHoAMAAADAdQg6AAAAAFyHoAMAAADAdQg6AAAAAFyHoAMAAADANUzTlETQAQAAAOAiu3bt0vPPP0/QAQAAAOAeDx8+1Ndff03QAQAAAOA+BB0AAAAArkPQAQAAAOA6BB0AAAAArkPQAQAAAOA6BB0AAAAArkPQAQAAAOA6BB0AAAAArkPQAQAAAOA620s9AQAAAABYKx/d+p+a+rdPCDoAAAAA3OOVI/9dBw4coHUNAAAAgHvs2rVLzz//PEEHAAAAgPsQdAAAAAC4DkEHAAAAgOsQdAAAAAC4DkEHAAAAgOsQdAAAAAC4DkEHAAAAgOsQdAAAAAC4DkEHAAAAgOsQdAAAAAC4DkEHAAAAgOsQdAAAAAC4DkEHAAAAgOts34ibnP9V70bcBgAAAAAkbUDQaW87td63AAAAAIAMtK4BAAAAcB2CDgAAAABXMU2ToAMAAADAfQg6AAAAAFyHoAMAAADAdQg6AAAAAFyHoAMAAADAdQg6AAAAAFyHoAMAAADANR4+fKivv/6aoAMAAADAfbav9w0WFhYUjUb17bffrvetAGxxO3fulM/n0/79+0s9FQAAsMWte9CJRqP627/9W+3du3e9bwVgi1tcXNRvfvObooLOo0ePdP/+fT18+FCmaW7A7NzHMAzt2rVLe/bs0Y4dO0o9HQAA1tS6B51vv/2WkAOgKHv37i2q+vvo0SN9+eWXevnll1VeXi7DMDZgdu5jmqYSiYS++OILvfTSS4QdAICrrHvQAYC1dv/+fb388svas2dPqaeypRmGkXoPv/rqK7300kslnhEAAGuHzQgAbDkPHz5UeXl5qafhGuXl5Xr48GGppwEAwJoi6ADYckzTpF1tDRmGwTonAIDrEHQAAAAAuE4Jg05EQcOQkXwEI6WbCgAAAABXKU3QiQRlGI3SmCnTtB+BER3tjZdkOgAAAADcpQRBJ6Jg45BaxkwN+h1P+wc12eHZ+OkAQLYbrarrm8/4vayuVa11dXI+nc98X13m9QAAYMNtfNCJjGjIF1aXv+BJmW1tRlCRjGNH1dsbTB13VoLivUcLXJdvTADr4bvvvtNnn32W9/hnn32m7777bgNntFrz6qsrU1mTNDrRpWpJM911KisrU1lZMvTcUGtZmf2c9ajsnNJUZ2XGc+nz7ZH76lTWesP+LXOM5NM3WssITAAAPKZNuBlBREGjUbfDsXRb25jUmBFMogrNBKxjsbAUOqneuKR4r06GajSWvM4clL/oMQGsNdM0FQ6HNT09vezY9PS0wuGwvv/++xLMLJ9ksLlsBZW6bs2oVj1zAzpmn1HdNaGlpSWNnk5ec0wDS0tacjzmempV2zOX8dzS0oTaK5K36dPJ4WbNDRyTFXKapNHkeXOqvtCqG5KODcypefhkUVUkAACQafMFHbvic9XZxubvUtg3pJFUKvEpnCwJeZrU7LOf9lSqRkNqNI4qY7lPUWMCWGs7duzQL3/5S7377rsZYWd6elrvvvuufvnLX2rnzp0lnGG2CrVPLGlp9LQVVCa6VK0pdVaW2aFH0mirysrK1HTZvuRGa1blJl9Fx1Gp6e5Uzbl2VUjS/Jxu1/ao65hzDslgVaH2czXq7L4hAACwOhsfdPwBtUSHNbrqfQd8qvauOLgGTVOmeVU6acjIDjyPNSaAJ/Hcc89lhB1nyHnuuedKPb0i1KpnbskOPZKaBrIqOnJUb0Z1Wqc1mqzizM1pzlHlscxr7nZt+t+eikrVTHUqb5bxVqv29pwo6gAAsDolqOj41RWWQt7sqkvQWmvjD6glGtJJ58FIt0JqVtNKexXEe9UbkSSPOiZjCvuimonpycYE8MScYWerhJx065pd0SmrVOdU8mdHRefYgCbaK6w1N2VNuqzLakpWcU6e1KgdYCraJzRwTJJimpmqUWWyjU3HNDB6WpebylRWZrWsZaioVM3UjGIb8JoBAHCTkrSueTomZY7VKOR1bA4wErB3XfNr0BxTTcibPtYojU12aMVM4ulQ5UhyTK9CNWP2zm5PMCaANfHcc8/pV7/6lX71q19t4pCTXqNjta4NaGAivXamp9au7mSvuZEVZJbmelTrrOicq1FnU7plzbrFnG7XViujmHxswK763LZCUsYFXlXX3tYcJR0AAFaldGt0/IPpjQFMU2bmXtN2C1r2pgLJY5NKL7fxqGMy/bt/8HHGBLARdu3apV27dpV6GgWk1+hY7OBTtryikxFG5vtUV1amsspOTTkrOnbZx6rW2LuuFajQVLRPWO1vl5sc4Si7AgQAAIqx+TYjAIBNo0LtE3PqqZVOp3ZFG9Vp1aonvXuAVNGuCecOa6OnpdOj+Xddk6NCM9+nutbshjXHGp75Od1e19cIAIA7EXQAoCCryhMYSVZ2RhTIaluT7O/FyV5jk6z0ZASZYwqcnrLWD0pSRbuuVl9w7M7WJI06xo/NaOp0QMcEAABWg6ADAA7zfXWplrMbremtoZs0au+25mhNq+tTn33OSV1Nr7FpuqzTgWPpSk9gJKPd7VhXj25f6EvtpGa1rKWrPwOpVDOvvgu3M6tHAACgKNtLPQEA2Ewq2ie01J78bUlLA5nHjw1kP9eu9tTvzmszLtKS86KKdl1trlNla6V0uSnvXEZPS8PNc5pgfQ4AAKtG0AGAEqhon9CSJA0sFTyPWg4AAI+H1jUAAAAArmKa5voHnZ07d2pxcXG9bwPABRYXF7Vz585STwMAALjAureu+Xw+/eY3v9G333673rcCsMXt3LlTPp+v1NMAAAAusO5BZ//+/dq/f/963wbAU8QwDJmmKcMwSj0VV+C9BAC4EWt0AGw5u3btUiKRKPU0XCORSGjXrl2lngYAAGuKoANgy9mzZ4+++OIL3b9/X6Zplno6W5Zpmrp//76++OIL7dmzp9TTAQBgTbG9NIAtZ8eOHXrxxRf1+9//Xg8ePND3hJ3Hss0wtHv3bv3kJz/Rjh07Sj0dAADWFEEHwJa0c+dOeb3eUk8DAABsUrSuAQAAAHAdgg4AAAAA1yHoAAAAAHAdgg4AAAAA1yHoAAAAAHAddl0DAAAA4Bof3fqfit76XwQdAAAAAO7xypH/Lq/XS9ABALjPgwcPSj0FAECJEXQAAK7S13+l1FMAAGwCBB0AgGu0t50q9RQAAJsEu64BAAAAcB2CDgAAAADXIegAAAAAcB2CDgAAAADXIegAAAAAcB2CDgAAAADXYXtpAFvSo0ePdP/+fT18+FCmaZZ6OluSYRjatWuX9uzZox07dpR6OmvKNE396U9/0vfff1/qqbjWtm3btH37dhmGUeqpAECGR48e6b/+678IOgC2nkePHunLL7/Uyy+/rPLycj5oPSbTNJVIJPTFF1/opZdeck3YMU1T3333nZ599lk988wz/PexDpLv8TfffMN7DGDT+cEPfqAf/ehHBB0AW8/9+/f18ssva8+ePaWeypZmGEbqPfzqq6/00ksvlXhGa+NPf/qTnn32WdcEt83IMIzU+/vw4UM988wzJZ4RAKTdvXtX8/PzrNEBsPU8fPhQ5eXlpZ6Ga5SXl+vhw4elnsaa+f777/ngvUGeeeYZ2gMBbDrPP/+8XnzxRYIOgK3HNE1aZdaQYRiuW+fEfx8bg/cZwGZG0AEAAADgOgQdAAAAAK5D0AEAAADgGsl2bHZdA+BuN1pV1iSNLg3omG6otaxJl3OeeNo+R5Lm1VfXrcqJ5O94etzTR+/8Wh/elaQqHT8uXb8+K0na9+ov9NYrL0iSYu9d0qcHz+gNvadL9nGpSsfPvCGvY5y7dWf0hnfjXwUAgIoOALc7NqCluWpdKGvVDR3TwNKSlpaWtDR6Wjo9av28tKSlpRVCzXyf6srKVOZ4tN5wHq5TWesNWSEp87yyslY5TtWN1jLV9c2vz+vFGqjS8TPHVZX69bjOHLd+u/fRO3rno3tZpx/XmTPHVbVvn35oP3Xvo99qtupV6fp7iuW4w72P3tGl92KyAtElXbrkeLzzkZJ3iL13afn9AABFIegAcL+Kdk1kBZkbI5d1OrA82sz31amsrFKdU5fVlAwqyURT26M5OxjN9dQ6L9LJ4WbNDaTHOz26lA5Ro1KTIxgdG5hT8/BJkXVcJPapFqsq9YKsEPPr2Sr99Suv6I3j0vX3sqLOvY/029kq/cJR6qk6fkZnzliP43s/1K/ta7xv/EJVs78VWQcAVo+gA8DVnNWTG63pKkvTZely0/KqS0X7hJaWRnVapzW6tKSluR7VFr6FbnR3quZcuyrynXBsQEtzPbrdlKzsVKj9XI06u2/kuwJbylf6aGJRVZUvWCHnw706/tYrekGSvG/oF/smMqs0kx9qb519PAfvwSrHby/olbq9+nAyV10IAFAIQQeAqx0bWNK5mUrV9c3r2IBVYRk9LdX2zGW1rz3uepx5zd2uVfVK6zAqmtRce1kjyWzjrVbt7TnlLerM96murK5w1aeYc7AKyfU5s7p+6bpmNWutz5m9rkvXZ3X3w1/rt7O5rruru3f36odfvadffyjt2zer645WtF9/eFdVe+/q1+98pHu6p68W92nfD3ONY89hYlb7nCf8cJ/2LX6loos69z7SO5cuKbuQtOpzAGCLYzMCAK53bGDJDjHWZgS3e+Y00V4haUBzc3Uqq5vT3ESeikxsRqpukjSXZ/SYZqZqFMhbzsmjolI1UyOKSbnvW9GuiaUma73PlJS5WcIqzsEqvKBX3vqF9M6kfvjWQX166VMdPC5d//Sgzhz8VO98dVR/rd/qt8uuO6g3jlvHz5xJ12nuffSOJn/4VmozgjckSTHdvbtXB7PKObPXL8ne8kCv/uKM3nIef+GH2nv3U30l5a0CZWyisO9V/eLMmRznFnMOALgHQQeA691oLdNIdY9udw6reW5JAxXWWpzuygkNtE9oqcnaaKBmdEkDxyTNz+l2bbW6ihl8NefKWfnxqrr2tubmpWN5Q1KF2ieW1C6lNkMYSc5xVedg3XkPau/EpN6bndXsXeeBZICx1uG88cOvtOjYtEDOY15r84HrkzG9krFV2w+1b9+ivroneXMlk3sf6Z1ff6i9x8/oTL7KYjHnAIDLEHQAuJzdWtbVroH2ds331alOV3VVkub6VHdBaq7pTIccSYrNaKomkH/NjdNKlZmkG93qVLPmUicVUwmaV19dpTpT1ZqlHNWaYs5B8b7S3bvKCCL78veZZdmno2+9YVdulld0LIWrM943jqvq0nW9d9C5LfVXOatAKS+8orfOVFq7t12XMre5XsU5AOAyrNEB4HIxzahZTRWSdEPdnTU6126ni8omNWtYCjg3Csi/I1t+VmUmrxutKmu6rZ6rjva4+TndLjTkfJ/qyk5KVwtsf13MOVide5kVl6++Wsw4/MIrb6W+Sydl9rouXbpu77oW03uXnFtKW9tHZ66FsaozuXl19NV9mp1Ib16ge19pMd/p6Znplbfsndt+sU8TOdffFHMOALgHQQeAu83P6XZNpSokzfdd0O2eLkcYqFBTszQ816SrPbd1oW9eutGqpts96jqWvNwRR6Y6VWnv0lZplVAkHVPg9JRmsj4wZuzodqFac0sTandWb2IzmjodyB9MKto1kX3N45yDVbk3NyvZ20RLi5qdlaoqV1jJUnVcZ86c0Vs/nNSlS5/qYEalxAoXBz+9ZH9vjlcHq+7q7lf5h3vhlb/Wq0pvMa2v7upu1cHiqy8vvKK3zqzwRaXFnAMAWxytawBcbX50WKq+KsnaOnriRqvKyi5LqlXPnFRxbEITkqQJTWhefXW31XN1QBU3WlXWlDzPThK1PalNC+b76tRt3+NYV48unOzT/LF2VTjXzOSflfouWPfB5vLV3b2qOzqndy59qLv79mmfqvTDuXd06cO72vfqUXv76LuS9unVo5KcgcX7hs6ckRR7T5euz1rn/CJ56IzOJE87+qomfvuR7nlf0Qt2EMpkPfeKJGsXtkW9+tckEgBYLSORSJjFnLi4uKi9e/eu93wAYEWfffaZDh06VOppZJjvq1PlzDnpctOK546eli5UJ3d+2xw++eQT/fSnP131dWv5t2Gtxvr2229VXl6+BjNaP/c+eke/vlsnzV4veN7xKmli3y+Wt8ttIolEQjt37iz1NAC41OP8bfjggw9UWVlJRQcA1kJF+4SWJGlgqajzWUvzdHvhlbesCs8b2dWc5ajlAMDjYY0OAAAAANch6AAAAABwHYIOAAAAANdhjQ6ALccwDJmmKcMwSj0VV3Dje+nG17QZmWZR+xkBwIaamZnRwsICFR0AW8+uXbuUSCRKPQ3XSCQS2rVrV6mnsWa2bdum7777rtTTeCp899132raNjxIANpeXXnpJBw8eJOgA2Hr27NmjL774Qvfv3+f/o/wETNPU/fv39cUXX2jPnj2lns6a2b59u7755hs9evSI/z7WiWmaevTokb755htt305zCIDNiX+dAGw5O3bs0Isvvqjf//73evDggb7nw+xj2WYY2r17t37yk59ox44dpZ7OmjEMQ88884wePnyoP/7xj6Wejmtt27ZNzzzzDC2CADadbdu2qaysjKADYGvauXOnvF6+YQS5JcMOAODpYxiGDMOgdQ0AAACAexiGoW3bthF0AAAAALgHFR0AAAAArkTQAQAAAOAqtK4BAAAAcB3TNPX9998TdAAAAAC4BxUdAAAAAK6T/B4dgg4AAAAA16CiAwAAAMC1CDoAAAAAXMU0TW1fzQWLi4vrNRcAAPg7AwB4YsnWtaKDzt69e9dzPgCApxx/ZwAAa4nWNQAAAACuYRiGVdUp9UQAAAAAYK0RdAAAAAC4hmmaMk2ToAMAAADAfQg6AAAAAFxj27ZtKisrI+gAAAAAcB+CDgAAAADXYNc1AAAAAK5E0AEAAADgSgQdAAAAAK5B6xoAAAAAVyLoAAAAAHAlgg4AAAAA1zBNU6ZpEnQAAAAAuA9BBwAAAIBrbNu2TWVlZQQdAAAAAO6R3HVt+2ou+uCDD/Thhx/qm2++yXvOs88+q7/8y79UIBB44kkCAABgdR49eqT79+/r4cOHMk2z1NPZkgzD0K5du7Rnzx7t2LGj6Ot475/c4773ucYpOuhcv35djx490j/8wz/o2WefzXvevXv3FIlE9MEHH+i1117LPHgzpPITVwre58jFaY237Ze0oP6Gwzp7a4WJHbmo6fE27bfHb4i329fb9xttUiJcLy30q6HPo/FwvWMu0rVEWPWZk1SoIa72Aam1VRpIjg0AALDJPXr0SF9++aVefvlllZeXyzCMUk9pSzJNU4lEQl988YVeeumloj5w896vjcd57/MpunXt3/7t33Ts2LGCIUeSXnjhBf3N3/yNPvzww5zHj1ycViKRyP24dspx5n61jec5z/nIGURuKlReboWqKydUXl6u8sNndSv5c0O/FurDSkwfUHd5SDdzTXR/m8a77uhwKPPoQn+DykM3ZQWxcoWyL17oV4M95s1QuRr6Fwq+XwAAAGvl/v37evnll7Vnzx4+aD8BwzC0Z88evfzyy7p//35R1/Der43Hee9zjbGqis4333yjF154oahzn3322bztbbfOHlb52fzXHrnYXuyUMtwMlcsqFl1R+fWLmk4kFC5U0ZGsMJNQzkrTldQkryjUlFC4XtJCv1qvH9f0eL2klQNMfXha8YZW9b82rjbKQgAAYJ09fPhQ5eXlpZ6Ga5SXl+vzzz8v6lze+7W1mvc+l1Wv0VkL6da0HG6G1BB/vHHrwwklmrJa1+rDSiRzzf42jYfzXqxEImxPoVwnZhztcM7p9Z1VdVdiFa1s+9XWVa3yvptqC9evfDoAAMATME2TasIaMgyj6LU2vPdrazXvfT4bvuvarbOHrQjUeZcAAAnBSURBVPaxXI9UVcVqC8t7XvajoT9dX7nTp4ZQf4HrG9S/kB4/o7XsZkjdBy7q1K2zOuwc055TfOaIDlSs8gVXHNCRmXgR9R8AAAAATyoZODc26NSHV1xzY1Vj8q3PuaZTR6y2tOXrdG4qdOKKbs0c0ED4NUlHdHHaOn7tlPNnpcd3rgla6FdD9wENtHmkIxd17fj1rLAzrzu3quXJKudcOZEVpA6fVcb+Cfs9qr51R/Pr9qYCAAAAyLaBQeemQqngsKD+hgZZxZR8zycvC+Vc0L/Q3+B4fkH9DaNqunZKR46/ZreW3dLZw1b4OHHF+XOOqS30q+HwHXU52tUq2saV6Lqjw8nNChbimjlyQNkFnVPXskLX9EUdyTijQgeOzChOSQcAAABYd3/84x+VSCQ2MujUK5xjFzOnhf5WXT8+kF64n6qyLF8Vs79tXF13Dtu7nu1X23j2NtGFKjpO8+pvva7j09nXy6pAXZNOhG4+QWUmdyUIAADgaXCjtUytN4o5c159dcWeC6cbrWUqK8t+1Kkv3wfXG60qK2vVDfvnutSJ8+qrs5+XNN9XtyX/93juuef0wgsvbHzr2jV1K+eOyzdDOnyny7FRwYIVQAbyf49NfXhaB7obco9XtAq1jRfYFa0+bO3aJkl6jMrMQlwzTzA7AACArWC+ry7jg3brDUk3WtV0WbrclPW8dYHqMj6YV6pzKvPcFT+wQ5J0bGBOPbW16plb0tLSkuZ6anV69JxmKvO8l8cGtLQU0EhZnfq8A7qqk8sDzXyfTg43q+tYKV7R2ig66BTaMjrbvXv38n7fTn04T6jICBTSzdBh3enKOndZaNivtoHjut6avXGAtHLrmr2m5+zhrO/CqVc453fz1Kvp1C3dWe3/oc3f0a1TTcurRQAAAC5S0T6hpaU59dSe1ujSkga8faobCWhpyfrwvTR6Wjo9qgHnB+faHs0lj+d5jJ4u2Uva4o6pq6dWp0eT7+Wcemozjw8sTai9Qqpov6rqC+lKjjSvvpMzOjfRvmzZxlaxqu2lX331Vf3zP/+z/H5/we/T+eabbxSJRPQXf/EXGc+nv+fG4XC5Ut9W4/xynSMXNT2eUDjHtUcuTmeGkP1tGh+3zjl8RTp1LSzrO26O6OL08lB1M9SguKSboW4dmE4ooX41HC5XwV3PT11TIlyv+vaL6m7t10J9m/bbGxosk/xuHknSgvq7Z3RxIN++1gAAAC4yP6qZ5i6164ZaT86oRp0qK3OecFlll6XanjlNtLdrYmLlIY8NTGgLFxU20JQ6K8vUaf92elSqqKzR7bl56ViFpJhm1KyuCqvV7UL1nCbakzGmQu0TA5LmNZfx+9aU/MJQI5FIFL1B9cjIiG7duqWHDx/mPWfXrl169dVXdeyYO/+TXOhv0OE7XdKVEyuee+2U1H2gwPcGAQAArKHPPvtMhw4dKtn9b7SWqemy9fPp0TlVXzgpXZ1Qu/pU112piYFjmu+r00ld1VWdVGXnVFHjWsGoNLWFTz75RD/96U9XPK+07/28+urs97rCaiPsrpywqmr2+655x8+yzqmcOaelrjnVVXYq3/8Sp0eXMqtwG6jY9z7b+Pi4KisrV/eFoYFAQIFAYNU3c5P9beNKSFI4RzUnB1rWAADAU8Fej3N6dEmBkTKNSMquMpTZIai2x251a88aI+vDOFZjeUVHFU1qvt2tGzom7+iwagLpElpF+4SWJGl+zmohzNGmNt9Xp+6NmfyaMwxj478wFAAAAG4zr74L0ull62nsBfJzPao9PZpaKJ9x5Rbd2WvzydyMwFKhpubbGrkxr9HhGgUc+XG+ry6929pUpyqX7dpWVnTFbbMi6AAAAOAJWWs6lvf9WFWGsspOTV1uyvHheV6jw1K11/GUfV7qUdfHF68X7YZa7ff4clOZylpvqKL9nNRU+f+3d/8sjaxRHMd/z0z+jAlxSQrBQi1kI4hv4IIvYCHNVr6DC1sJFrfbcrtbXLASfAdWNoKFpZA3oBGzSAqLdCZj0Kg4M7eIcY0kbuLO3iTP/X4g3TPmeGaMOZyZ82hv46+eZ52+V8paKz71cAYMhXhdlE6L7jM6FDoAAACIX/VAe3r6Aj2oo3P4t7bKZVW+vzjuad3za4onf/03LrS9XtRWuayt4r4+P4+XDhTsfJIO97UrqdyT5EPt7/75o8NjWUcnDEM9Pj5S6AAAACA+u6XOQIKTvT1po/RGkXKoL6UT/VM9kErui00rMZplbR53C8Odnq7Nxfa63G+rqgaBqqvf5HbvEbyo6uSPVT030izr6Eg8owMAAICYdfZtqWpDa/raMymtqu31Tpdgrbiswy8l6eBYm8uftBME+lop9tzi1vPiIZ6R7ZbczlS1p47Y8ubxc7FzcbCn8lqxfxH6YiPX4tar2wqnhOM4SiQSo42XBgAAwOQa93hpG03HeGk7vXe89NHRkVZWVujoAAAAALAPhQ4AAAAAq/CMDgAAAAArUegAAAAAsA6FDgAAgCWMMYoi5kzFJYoiGWOGWkvu4zVK7l9jw1AAAADLeJ6nZrM57jCs0Ww25XneUGvJfbxGyf0gFDoAAACWyOfzqtfrajQadBd+QRRFajQaqtfryufzQx1D7uPxnty/FoahgiBQIubYAAAAMCapVEpzc3Oq1WryfV8hX7jfxTFGHz580OLiolKp1FDHkPt4vCf3/RhjKHQAAABskk6n9fHjFG5nbwFyPxkcx5Hruty6BgAAAMA+FDoAAAAArEOhAwAAAMAajJcGAAAAYC0KHQAAAADWodABAAAAYB0KHQAAAADWMMZIotABAAAAYJEgCBQEAYUOAAAAADvc3NwomUwydQ0AAACAPW5vb5XJZJRIJCh0AAAAANih1WppZmaGjg4AAAAAO/i+r6urK+VyOQodAAAAANMviiLVajVls1l5nidJck5PT9VoNMYcGgAAAACMrtls6uzsTA8PDyoUCjLGyBijhOM4qlQqmp+fVy6X0+zsrNLp9LjjBQAAAIC+7u/vdX19rVarpXq9rkKhoKWlJbmuK6mzl445Pz+P7u7u5Pu+2u222u22fN9XNptVFEUDf3gYhpIkx3n77rdR1kVR9NN1UmdsXDabfXNNEASxxzfMup/F183p78hfHPH96vsOumaGPR/94uv3M0eNzxgTy/Us/ZjmMcz72nZ+44jv8vJSCwsLb64Z59/vuM7vsJ9/k379/V/j625ON6nxxbGuX3z9fm8+/+KNb9C19Tvje+/1/PK4Yd+3+7+5++V0mPjeMmnn93UuJyW+OK+ruD7/hj2/xhi5rqtkMinP85TJZJ4bNY7jyHVdhWEox3H0LzfGKfEGgh5PAAAAAElFTkSuQmCC;" vertex="1" parent="1">
          <mxGeometry x="312" y="870" width="506.46" height="420" as="geometry" />
        </mxCell>
        <mxCell id="4WqvR_2e5_eg9FRiqzZN-3" value="" style="shape=image;verticalLabelPosition=bottom;labelBackgroundColor=default;verticalAlign=top;aspect=fixed;imageAspect=0;image=data:image/png,iVBORw0KGgoAAAANSUhEUgAAAOYAAABuCAYAAAAziW8OAAAN8UlEQVR4nO2dXWhbZ5rHfydt7GaMMrOzJ97UpivL3hKZlcviudlmt0TCvpBIG1jadElYmgWp2V7EN41F8X03bpADQ9KL0JEYnNKGIWUu6gYJ1kVKoS27S7ww9WKVElsasAiN+jEWu6m9Oz1zcSRZH0ey5Eg+R/LzA4PO+z7nOa8T/f28H8/7HkXTNA1BECzFAbMbIAhCNSJMQbAgIkxBsCAiTEGwICJMQbAgIkxBsCAiTEGwICJMQbAgIkxBsCAiTEGwICJMQbAgIkxBsCAiTEGwICJMQbAgIkxBsCAiTEGwICJMQbAgIkxBsCAiTEGwICJMQbAgIkxBsCAiTEGwII+b3QChu/jxxx/b/owDB7o/nogwhZayubnZ9mf09PTw2GOPtf05ZiLCFFpOOBzm3r17LffrcDg4f/58y/1aERGm0HJWV1f54osvWu53P700oPs764LQgYgwBcGC7GlX9uHDh21/xsGDB3n8cemhC53Nnn+Db968yXvvvdcW3x999FFb/Aq7o5X/Hy+88ELLfHUC0pUVTCP3wx/5j9QG9ze2zG6K5RBhCqaxcv9/+KdfLxP776zZTbEcpg3GLl26hKIoLfHVrnUzQTAL04Q5NjbWMmH29fW1xI8gWAVTpy8//PBD3nnnneK1y+Xi9ddf580332R1dbXMdmFhgYWFhSr7t956a8/aKwh7hanCPHbsGGfPni1e9/f309fXh8/n47vvviuzVRTF0F7oPO7+Psd3//t/HH5i++u3mPyWP/vJQX7xlzYTW2YdTBfmsWPHqsp9Pl9T9kLnkP72B3758e+5l33IxLGfA/BvyW9Zy/7AsHqIfz01gv3PnzC5leYjXVlhT7H//Amee/pn/HvqD/zm7n0A/jO1AcC5v31SRJnHVGGqqsrY2Fjx2uFw0NPTw9NPP204oWNkL3Qe5/9+EDT41afr/OHh//PTQ48T+LtB/uW5QbObZhlMFebx48c5fvx4VfnU1FRT9kLncf65QXoPHuC3//U1//A3/fzzs0+a3SRLYaowP/vsMxYWForXDoeDl19+mXfffZdMJlNme+nSJT7//PMq+/2yP68b+cdf/AXP/dXPePKnvWY3xXKYKsxsNlu2b0/TNLa2tvjqq6+qxpi17IXO5YmDBxhWD5ndDEtiqjBPnTrFqVOnqsqvXr3alL1gTZ5//nmzm9CxmCrML7/8krt37xav+/v7efbZZ/nkk0+q1jHPnj1raD85Obln7RUaY2JiApfL1XK/+2nd2nRhvv/++8Vrl8vFM888QzQarerKnjlzxtBehGk9JiYmzG5CxyNdWaGlHDokY8ZWYKowv/nmm7LZ176+Pp566inS6XTVaQdjY2OG9sPDw3vWXkHYK0wV5qeffmqY+XP16lXDzB8je8n8EboRU4Xpcrl49dVXi9eqqmKz2XjxxRf5/vvvy2wVRTG0F4RuxFRhDg8PG3ZFT5w40ZS9IHQbpglzvx2uZDbKTNLsJnQs2qxzz5+558IcGxsr21MpCEI1ey5Ml8vVlsVnQegm9lSY3bDGNT8/z7lz58xuhtDlyJHlTTA/P292E1rO9CtOQqOVpTmCM+vM1bgnfNGJX61lc5j47ABuIH1njaHYo7+WT3/e9nXiVhLP0iO7tTQizAaZn59nYmKCjz/+uOMEulOET9xK4mEQzZVDWewhNVV/G1bgSoaR2Vpn82zgmdnA6x3m+i7bW4rXO4z/QQblygYMqKSm9scSmQhznzN3I6lHvfF8QSbL0Eyhdjv6QXUEvHDRSSivk4ai2Pgg2umCoLeIXFslkKl7RzmZLEMzJYdDl/nLkc72snhzlUDGuN1e7zDREz1lLlsV1VuNCLNBzp07V4yU+2qMuZJBuZGPVmdsUPwS27CXRbJhwvfrCG1AJXW6l8i1pG4zPoh2RiVwpf4p7LHYKpGLTrTZAaBUSIeJl/jTRVe/3bHYKsF+J6EjWZQrWYPfyTqIMJtgXwkSYKAHx6haFAXZUhHlCN7QD9Eik+XtFZWTR4Fawjzai50e/FNO/MXCXsID2R2jZuBKkgCgR3AH8a+TeO734Mhu4MnfG4utosQaaTck4tZ/JYMIU6jJ9KTK2q0kQ0vko0tprY0L3l7mYpswoHJhdIvFxTrOlnIkTsPtOpNKRoQvOhmJF7rJG9zLqnAfyGyxpqqGwq7f7s5A0dpxPkciiOLJ//N7vXh5iegbye2yIl7CqSiTiz6GArFi6XRcI+QG0hF8QwFiFXcV60kQVDz5/2gv09Ow7LzOG8khqh7FNHEtVBx37DfqZf6Uz3qWjP3KxnB5VjJEjgyUzZLC9hjTaBxX6FZW19Wf/a1u27YvMGpfvu1HjdutLNvy5bodZ/K+S30aYEbmTxuEmSCoXMaZiuK3QyKo4FkOo0X9pCM+XuM6Ub8dgIjPB9d1O9IRfK9BNOqvcBdEuX0STVciiaDC7ZMaIbcuyuVwSveX/2PgDad4Izmk25C/98I9fENJ3hBhCrugK1Py3CGNSuUXBRqNNu6oKFBNF1fiNnPTcbS8yHGH0LRQ3rhgk7+0+4nKuV1CB9GG92O6CcVdBIYUFEVBUYJFfQDEAkNl3daGmPMYdIMFoXtpz4tr3SE0TUPTNFLhZTy+SLHKG06RCnt3dJEIKgQLip6Oo8Wnq42W5Z2YQnfSemEmgiglQrSPuMA1UmZi90eJ+u0kggq+SLoxv+4QWshNOuJDCSbAHSJMYFu8QMTXhD9BsDDtiZixQL4bq6B4lglfcEMiyFAgRiwwVKwr9E7TER/KUIBYyX2eOeBeBJ9nTu/K5stLu8H+62GWPUqxLuCKl0wsKXr3d86DovgQvQqdRHuWSwTL0dysrHEietlyx0qOxGjz65JmUEzU32FZpBZmzMq2J2IKXUCO4EyyQpSbBGeSKDNJIkdsHbP0NHcjiXIrZ3YzmkIyf4SGeOmvIXJtOzpup8mBYbL772ykplTshbKVHIzasJMjeAtCp22ks1vY1XwEzubzV6lMUigkIeSfkd0irfbk/VbUoSc6XO7P31/is9NoOmIWx451fozsC59Ly40+C51H+OIAjjtrKDNJlJkMayccxI9mGbqVQxdPhrVRG2u3kgRXbJxkHd+dLewqRK7pETj4QEV75XDe4+Z2+YqNk+MAG3iuZUmrPazdqlG3ksGzlE98z24RudmZooRdCLOwDFL6ufK6gKIoVfVGwpVhbifQw8hRg+IBlUk1x9vFHRobXL6zhaM/v6dzJZePsjluV2wLS99ZL+a5zi1mSR/Ro6Sr34Z/yok2a7CJO5s13l6WybJ4RCU8AIwP4n+wc3K8lWnrGNNIcJVlrRJlIliI2A3OwKYj+PLRXJZYdiYQz+H2lCStjg+izQ4yncmymO3FObBd5ervYe3rnbdS2U+oFFanpydV7A+29IT4I9l89E0SXGmmjZv4Jw8T9vQSWWx+ksdKtHWMWRoda0XL0vpdkwjq+biaX19HfS2CvzLntoL04gcQTqFNLuJ7bRH89e33PUvrBF1OtNmCOPVE8DmA+CZa6XaubBblvkpqygbYSHmzrGEjdFEl+ADcpwe5dwfS2V5Cs05ChXuu6GJapPQ5wKi+15MzKnYVtFe2UJZtejQdLdkHurROxOPUTzzo4GgJj7BcUtkFrdUlLS1vxAb0dc2hQEzP+AntPPeXjvh4eyRKwbQsOb72TcWdK95CInwX04rlklaiHz2y3nLf4YvDcLN8w3YnLpc0JcxmJmmMxFjv/keJmImgwmVnynjXSp17KtNvt7eTdR+W2l1Sul2rRTOnZdvDWjwba/ndJfUipFE0LJ2NLZ0AquRRZ2Udzp1zbytxhzS0kJ4hFIgB0/GuFaXlWFpHafEpd+XLN51PW8eYhXFlpYBbjX3ERez2GmCHdIQPeIloIz3TdIQPCKNpIwSVy0QuuOt3f7uMRiJBaaQt2CszSbRZZ7Gu1mdh9+xKmI+yxNFIxGx2jIk7RPiyQsHNdLzBttn9vET+vuk42j4SJVBTTEbiqiyrFGet+4TdsavJn1rd1nqiM4qeO90rtI56gnlUgbVUkPmzY+1Gx46UjE0rJ6W2x5g7H1dS6WunozctP8aE3Ymonr1k/XQGpV/OQrSsV79b9IO0MqxVntlTdlzlYeKzg4R/t1o8urJwKLTXO0z0lcPM7TD7Ou2ylRx0fRiWrLXuuavMn92W10o4kGhpfQpiq+zOVv5UEr6oZ/DEx6uqDJm7USN6DfTgWClk82xw+Q5MPqNnF7n6KSYUxGJZEqM2DLbVlz9nOYf7tBPttI3EsrVECZLEvm+pF/Eqr2tFwEa6eC2bLT3ai/2IcZXzSD5dsImkgrBnOyLrAt3FyfBtRIS5T6k3pqw1+VNZZyTYto3H7m9SK3Ey+QBGatTVQv+DUZpIsW4ZUYIIU2iQWrOwe0ZmizVV76LOoW9DW7ypT/4sf73Fhf5eYBPGbbhXcnga8Tluw72Syb9ISWU6Zp1N3yLMfc6jzKg2EjELs6WNvjqvNIPHPeskVMzi2eDyHZVoIbd2ZTsfNhbLsjbrQDsBeg7vemO/wFKOxOkBtFF9ltcqogQRptAkzQq52TFmPfuy95OUob/6r3l2e1/7kaNF9jG7iZY7rYcKrUEO49onSEbO7pHDuARBAESYgmBJpCsrCBZEIqYgWBARpiBYEBGmIFgQEaYgWBARpiBYEBGmIFgQEaYgWBARpiBYEBGmIFgQEaYgWBARpiBYEBGmIFgQEaYgWBARpiBYEBGmIFgQEaYgWBARpiBYkD8BR8g1aR17qPAAAAAASUVORK5CYII=;" vertex="1" parent="1">
          <mxGeometry x="-210" y="1650" width="230" height="110" as="geometry" />
        </mxCell>
        <mxCell id="4WqvR_2e5_eg9FRiqzZN-4" value="" style="shape=image;verticalLabelPosition=bottom;labelBackgroundColor=default;verticalAlign=top;aspect=fixed;imageAspect=0;image=data:image/png,iVBORw0KGgoAAAANSUhEUgAAAbcAAABrCAYAAAD0HMwLAAAYeklEQVR4nO3dW0xbd54H8O/hYpNkcJPMgXRNIgNptWZKommkWWU76oK3rGTESJlZhYdWaqIVVOpK6SodjDKMRhr1pUwWoo6UPGS3tjRppYm6oN2HKcIPRBhV7WQewlYJka2dCWC1uIVYamOaCTgJZx/O3TcMGGwfvh8panKufx+fnp//t98RJEmSQEREZCEVxS4AERFRoTG4ERGR5TC4ERGR5TC4ERGR5TC4ERGR5TC4ERGR5TC4ERGR5TC4ERGR5TC4ERGR5TC4ERGR5TC4ERGR5TC4ERGR5TC4ERGR5TC4ERGR5TC4ERGR5TC4ERGR5VQVuwBEVHxra2tYXV01LauqqkJ1dXXadslkEuo7jqurq1FVxccIlR7elUSkCX/9EMsrT/F3jY60dWtra3j8+DEWFxexuLiIffv24ciRI9i7dy8DHJUc3pFEpHl3fB5/mn+A/3vnpbR1a2trkCQJ7733Hu7cuYNDhw7hV7/6FZqamhjcqOSwz42I8iJJEiRJwp07dwAAi4uL+O6774pcKqLMGNyIKC+CIEAQBLz22msAgGPHjuHQoUMQBKHIJSNKx+BGRCaOGrmJUZIkrK2taX8yBbf6+npUVlaatlP/qINOiIqBDeVEZNLy7D4AwNOnT/H06dN1t3/y5AmePHmStjzTaEuinWKJ4Pbo0aNtP0dFRQXsdvu2n4eoFKysrODjjz/GrVu3sm5z48YNrf8t1eDg4HYVjSgvlghuADAzM4Nf/OIX23LsP/zhD9tyXKJS9PLz+/H06VN8+eWXWYMXAG1KQDbqABT2yVExWCa4EdHWXTr9PA7uqUBVVRXq6+sBAB9//HHadj/5yU/w2muvaf1vqoGBAS0gJpNJPHnyBHa7HZWVldtfeCIDDighIs1eIYnr16+nLa+okANeRUX6I6Oqqipj8JqZmcFf/vIXJJPJvPruiArJcjW3N954A83NzQU51o0bNzAxMVGQYxGVsrW1NaysrODDDz9EMBjE66+/blovCAKqq6uRTCbT9q2ursba2lpaAAuHw/jss8/wzjvvQBRFVFRUsImSdozlgltTUxOOHTtWkGPNzMwU5DhEpe7Jkyf4/PPP8dlnn+Hll19OW6/2n2WTqWZWVVWFaDSK3/3ud/j5z3+OtbU1Nk/SjrFccAOAO3fuYGBgwLTso48+wvvvv59WE3v33XchCELa9pn6GYisSpIkfPHFF3jw4AHOnTuHL7/8Ejdv3gQA/Pa3v8Xbb7+ds2nx6dOnuHnzJpLJJA4fPozR0VFtkvenn36Kt99+m8GNdpQlg9uhQ4fSOrptNhtOnjypdZIbtzVOTCXarR4/foy1tTXU1NTgm2++wezsLABgYmIC58+fz1pzU2t1jx8/Rnd3txbQDhw4gJqaGqysrOzkxyACYNHgVl9fnzFYnTx5EidPnsy4D4Mb7XbV1dWoqKjAysoKDhw4gObmZszOzqKjowOCIGhZR27cuAEAmJ2dxbfffouDBw9CEAT86Ec/QlVVFaqqqlBXV4eFhQWsrKygpqamyJ+MdiNLBjc2SxJtjCAIOHLkCJ555hlcuXIFPp8Ply5dQjKZxL59+7TUW2tra3jvvfcAADdv3sSpU6ewf/9+VFRUoKamBv/xyQJm449w8WfPoaamBpWVlfjxj38MQRAyjrQk2i6WDG779u1LG1RSWVmJw4cPpy3/3ve+BwAFG4RCVI6qqqrwwx/+EC+99BKCwSB8Ph9sNptW66qurtZSbB06dEh7n5vNZgMA/HX1CT66tQj/pzE8ePQYe22V+DfPEfh8Phw8eBAVFRUMbrSjLBncmpubM6b/OX36NE6fPp1xH6YLot1MrXm9/vrr2LNnDwD5B6ExN6SaIPn8+fPa+9wOHz4MAPjo1iL+85MFPHj0GADwP58vobpSwL/+gwsH9lZpNT+inWLJ4DY7O4v333/ftOzXv/51xlx5b7zxBgCkbc9gR7vRXyVb1v5ndSL38ePHTS0dn/z5W1wJfYH9e6rwzJ5qPHj0GM/V7cV/3VpEwzN2nP37v9H66xjgaKdYMrg9fPgwLSdetlx53333HQRByJlDj2i36Bv9MxoO2PGbnz4HQJ7cbSQIgtYUqY6QfPn5/fjHvz2If2o5iGt//Ap/mn+Af//n5/Afnyzg5ef3A5CbNRnYaCdZMrgdO3Ys44CQ8+fP4/z58xn34QASItl//+8SfvPT57K+yiaTiz+Tg+G1P34FAGgW9+Diz57TgiH722inWTK4LS0tpY2K7O7uxq1bt7S5O6pXXnkFgiCkbc+pAbSbXQ59san9Fr5d1f6upuxiYKNisGRwW1xcxO9//3vTslOnTuHmzZtpQay1tRWCIKRtz+BGu9nlyc0FN6PKykpmJKGisWRwY7Mk0eZ8+C8vFLsIRAVhyeD28OHDtObHH/zgB/jqq6/wzTffmJarbxBI3Z7z3mg3EQSh4LUsDiChYrJkcJudnc2YoWR0dJQZSogyMI6CJLICSwY3p9OpzV9T2Ww2tLW1oampKW1bQRDSticiovJlyeD2/e9/H6dOnUpb/uKLL+LFF1/MuE+m7YmIqDxZLrj98pe/LHYRdj1hIFLsIhBRgUiD7mIXYVMsE9yyveamENgxTkRUXhjcSsi1a9dw9uzZYheDiKjsWSK4qVnMy9m1a9dM/y1XDM5EVAosEdzK3bVr1/DKK68Uuxhbpr6huTAcmBx0oh0AkEQoDDQtLaAxaNeWR6fm0BhczX2YUuQUMf+WCFc4BuGDRI4NjddAEY9DuBTP+1T+Pjd6xGX0DyxgeLPlzcF3xo2hFvnv0XgSuLtQtO/E623GVRjOr15nAMAyQuFaYCYCz7Sj/O+hEw2QumsN5XdgclDEvcuz6I0Vu3ClgUnfiswqga2w5IdP09QchIEIhJFVtLeoc7AS8AxE0DmVLNjZfGfcmDxRsMOtLxZH48hyHhvKn1W4HEc0HpevxQYCGwD0XoohtLlSru9EA4bqlHINxDAnFnOenAMX2lZxJSWwzY1EIAxE0DllR3uLum3h7yF/XzP8zoIdbn3TCynlT+DiFNBx3L6DhShtrLlR6TlRi/ZwDIL6oJpegDC93j6GX7K3a5Vf7HqNxettxnib4eEbjkH4AHrNqMUNqRtA1n0MtR/lXIjHEYCIHhF6jUpdBwBIImD4JZ1Wy7mfT4DLwFQjURhrdMYyxJMIQa+ZyDU54zVIwFhDDI1EcM8jb7OxWk0CngFDLdRUxiSicRvmJiPwTGcpg/r9xZNwqUFy3ZqtwYlatIeX4VH+6T3uAKbm4FHum2BwFkIw9yHU7zs0EoEH+nesXteM99CETf+cb7nRA+TYJ8O9FV5GqKVWvgdTrgWUa2e8h4zXTq4p68UJ3k4Ar9YC5VgT3QasuRXZ2bNnC9yct0sZf8nG4mgcMNZY5F/1/QPyr/j+cBKBiQTUX/D9YfmhLtdA9AA2btinc8qOoTMO7VzC5Tiiooie+zG9RuUUMd9tR+ByRKtx9rwqP4m83ubC1XK0ml9SO1cADrnmkFKG/vs2rVnTd8atl3cggkCdU6mxJuAZiCGEJO59DUTu5xnYphfQf1+ENOiW/6jXB4D/Vb3WJIyswiUa9ruvX4dQSy18yrE6p5Jwieo1N6zLg7fejujS1h7qweAs+sP6ZxMuxxHV1ma5h2JxNA5EEIjr34XxR0a2eygYnIUwsgy01OotFB8kct5Dpu/vchxIvYdiScyJ9ryvmdWx5lYCzp49W/YDSQqurpBNXAmMhZ0YGnRjCACQRGAi9x7eejsAm2EfAKiFDwm97yoeN9csnrXDBRt61F/wAAA7/M44IvU2hCbVJsUEPCO1kFq3+LHC8fT+lWftcBmWD38QQ9egXAtw1wEQnZAGDe1nrQ5gOqGX6S238rnyCxTDH0S06+Hvc2Peu4rGoB1HxWWMqbVtU83bgaMtIqRBNdotY8xwvOhUvGB9g656O4BC1WK26R4Kx8w/InLcQ6hLInBdud9icbw55cDVrX8wy2JwKxFqgONoQwDTCwh43Jg8Edealfx9bnTczb+ZzOsV0Y5V7cFpfAjjRAOkDgd6MzR5+fuUX8cTCURfABo30sc1vYxQNzCWYfCGdymJIY8ITMvH83tqN98smcvXq4h2i/A7E+iNma/D6N0kOpBlwIehxhDpcEM6k1y3SdB3xo1zS/p3ErkPHF1aBbCKe3Enuk4AwynNyV6vKNdUtEEQtWnH3Yzg0ipcrXowCwbjCA3q10FtesVIRLun1uPrEOGC/v3ndw/p/cWNtwt7D/nu2zCkndOBC202YMqwgdOGpvjqtgwcKkeCJElSsQuRt2gAnY290JvOfZiUujAmeNIfJv55jB+9AsEzbF7WI/cCBDoF9Ka2wfsmIQ21p633+XwYRhfm3RfRmLaTF/75cfS4QIqCZChJ7VdS+iPS+j0M67L2RV1HynJzP4bpmIb+EmMfmXFdehn046Wv0/tZ0o6H9Zr/so2WTJpG+72JBuWcyrlMfTaZ9zOdf0nUtjf2ua3X55Xt+gDI+F2ERiLwfL3+dxQaiWCsVTl23qND5UBpCgop10G91jnvoZT+yqhok0e1GvvWAOTqTzVet2zXKP1eyNE/bFiX2ufmEpU+wukMo0ULpFwzlJRVcAt0CohckDDUDkQDnWjsbcWkNIT2aACdbwLj43JFPhroxJu4qgSyEPqFMXRJQ+aHROryUD+EsS5IQ+1yYGtVAp0aUH2TmHdflI/bMaGc7yj6hYtwM7iZMP0WFcN2PdzLw/ZNBSjX4Fa2zZKunnFIPSkLtSA3jvG8j6QHOaldPsYo/FoNDq4ejGsnapePq/Uyt2NIak89IBEVQTA4i8ZiF6JoUkarUnmNluy56seMR4AgCBCETgSihpXBXgimJst8DMOToUmTiIjKW1kFN7kWJUGSJEiTreht7NeHe3v9kOb98K5ziGigE51aVPRhUppMHzobjGzfxFciItp25RPcogF0CoZg1uSG1+s296O5euR+t1A/hM5Angdux5Dabyf0I+TqwQXfMC4aqoWhfgFCP8PdljhFzCvzoXY0G8gW+PvckAYbdt28Ia+32fw9nWhQ5rJt/FrI19AwB047lv5n8gRM94fUJ5bl/bIh6uczzA3cTr4z6vXe4UwqRVQ+wQ2A3IyoNEs29qL1Qg+AEPobexEM9irNlYI+QjLUD0HwYNiwnzraMdBpXm5s0mwfmkRrb6N2PM+M3gcX6le2Vc7HmLcBSgqpfIdiF5RTxHyfuP52BtuauqqEmSYzA/I8tYHNXgtlcrM66lKZrB1VJy5fjqOpuwE+dWJ6OCaPjowlMafsW5T7ZYO83mbMezeQ+irvFGxb5zvj1hIIdE4BPR07E1CLrXwGlJgGdhi1Y0iSDJMkzSQpy5oeCZmOtt4x24ckZDskbVzqkOjo1BwmXmgyDUXXhkZnGkadx1Bx49BqdfKwcQh+5pRUBtrwcH34d8YybDKF1GZTMZnLkEQUCWVOlXkKgfZZteH5chJhOdeiOszcnKg6Ggfmcpa6QGJxTMSb4TbWJpRyYmoOni2N/EudSpFEYCSBjm59yoExHZh8neyZr10O+v3TBKlNOY/6PaVMiQhlmGenfY/qfZTHPhthmp+3i5RPcCPrcYo4VxeHMKBMbO5rQCS4iuHbcXS8CjQqQSEYnEXghWbgetyQxkqfizbvXc75AAoGZyHcFjH/avqEWi2l0aWEUgY1y4Z+PHe9PS1fYOYyLKCzvllJuTSrBIyUjBTZyrckBzF9gjNME6t7Y5AD3asiepVAOmS6dnpGC3+fM2WidBMmlyLwTMfROKDMdTPsm7bPiQZI3badCW5w4Ki4irEYgGcBtDghtWz9gQ6kTBh3ipjvSKJ3OgFvvQNXsaAdv/e6cr8FV+Hva0q5dg3w3849vL73UgSjGachODCpJG9unIYStJrh/9p8PHcdzNn90/ZpgG96i2910H4kLaN/l4yqZHCj4onFMQG3KRVTv7a8Ab4TDRjqrkV0Ko455QHY2mEDRGP6JgB1m00W60BXSxKBy/r/7L2Ty5BajWmbatHTtox+QyBorc9dhk2nkNpAKqbRejuid/Uy9V6KoBcAnCI6xGU9Oz4SuDgl4qopFdUy+k1B3oGjxn2mF9Df6kbXZj5Dnlxtai1HfrDr10utXaUHgY0K3k4Ab+nnQTimL++ww3emCUMtSQSmVuG6vwz5OpjLBgBNx+1AbBP314latMfjeuqxWBxXwiK6ngWgfq4WJ3qMScKdNjQBcHWribxlmbK9bIiSAs3rbcZ4n4jhDb5dohyVTHATBGHdbYzzzdXtJUmCIAjaumx/p9KkPZShTML12jEcXEXkvh3nPDaEpuJoahPRHo7JGd9nljGE5fyzxWdyogFStx2By7MYCztNDxs5Aa/xf/xlBKbsGBpsAJQsEcOFKEM+cqRiwrOrcHkyBHVjM5/ymVrrbZibyfVwTuBe3IlzyrWHU8S5FmBupnAfJVXW5r5wHL3TCQB2vZa6WbE4Gk2102YlHVcSc3UiukT5u+1pq0VoZAEAMBZ2Ku982/xptT6uS8sIdcvJn9Xvz10nJ6fWhGMI1DkhnYF8P8XimIg7gOuFmoxtTjsWXFoF2uymMllVyQS3bAEpU4BKXZYa4LLtRyUmLU3UMvoH5AfezBLgalnGlWAcqBfRNaMPSAh43Obkv/m8GiWWxJzo1GpboRGlqW8ijnNvGX8l62Xw9znRjmXcAwDUYmjQja6RCDzZyjBhw9U2G1yQmwHHWuW+m/Z1finrfWe1yjHVfjC51jVuSryrrFNqV6bao9J02ju5CslY21NrD4br3a4cU23+670Uw+Sgucbiyqv2pPZrmfsDs3KK2jWS2ozNjw5MdtfK16DPBuGS+vkc+R03g7QUV+EYhBgAJHAPTvSE4/AEl3G0rVZL8jycdj/k10QaXFqFq1u9fnpNP+37U8vgFDHfXQuElUElLU5Ig7XoH1hI//7yvbYZJeC5bMO84TOFRiJ6Ki/E0XnXgfE2aP2RKNcXuKYoufRbWw1ShQ5qcpoveRylb1JO/bUeLS+l1w9pPPuwFavKmH7L0EleiP4U2kGm/pqN9f1ogy028m42Kinlmn6rLIObsQlTrbVls6WPFw2gszGCC+o8OPXv6+2j5LkMdHYCV3df3knmliSyjnINbiXTLLkRmZohMwWxtKAX6pfnwOVbo5qLAP5zcjBz9eCCT8BYaAjtuaKbqwenIUAQeuXz7LLAViym4fwpil5TzPS2As3Ga0O7Ss5rl0Mha4ql8P2VwnUoMyVRc8tnMIkq28CR9bbfjGigE42RC6YJ3GNd6zRNqgHUyPAqnd2ANTci6yjXmltJZCiR1HyRSiBa799qMEttnkz9s1Wuo5t4VXL7ECRJwrxfzXLpw+QuCmxERKXAMs2SG6n95a3JDe/MPQDtAEIYG/ahK8/sJBOjgH9ewtErAi4GzqF9t3W80bbJ55e0sfasbi8MRCANurV12f5OZAUlFdy2MtJxW/rcXD240Kr0n0F+k3e+mbc6TgONjQLkNw8wsFHhZAtImQJU6rLUAJdtP6JyVxJ9bqp85rQZlwOZa3Hr7Uvbiw/KnbHVIFXQoKZOF8iQ61Ofb5Y6X8uQ+zGPHKGAMU/oVuZ+0UaUa59bydTcNhOIcm2/Lc2URGXG+GBSa2251m+W32NHYCSODk/KCmMOTGNuTAC+M3o+y3xyhALA6ReAwOUIRo834+pm02LRrlASA0qA7IEqn+WZtinUoBKicqYGrNSmydQ/Zg5MbvDdX72XZtH7dfpyb70doUmlRja9gAAc2jHddXo+y+GJOPBCbfoBUozeBXrecmO8DZi4zcBG2ZVMzY2I1per5pX672w1sfWbmRLwFChzfGu9DU0wJm1WOXBUtAOGHJjrc+CC8uoiaAmlOU+QMmNwIyojufrYsg0oSV2XKehtV7/KzFIyy5oE7sU39vJYLeiaUrkxsFFmDG5EFpZtdOROCS6twqW+QsgpogMJNCo1tch9m/ZGBu9xB3B3Ia9jeo87gKk5CEsiJI8ITFv/9S20cQxuRGVoKyMd16+5bTDTf8obr6VBUU/7lPIGhdCIfm5zBn79bQzr0d7TBmivqiFKxeBGtAtsLBhutM8t9/bGd/aZpLxvLW+b3Y92lZIZLUlE+dlMrS3X9uU6j4kol5KaxE3WwEncRNZRrj9+WHMjIiLLYXAjIiLLYbMkERFZDmtuRERkOQxuRERkOQxuRERkOQxuRERkOQxuRERkOQxuRERkOQxuRERkOQxuRERkOQxuRERkOQxuRERkOQxuRERkOQxuRERkOQxuRERkOQxuRERkOQxuRERkOQxuRERkOQxuRERkOQxuRERkOQxuRERkOf8PsPN6lmUbXJEAAAAASUVORK5CYII=;" vertex="1" parent="1">
          <mxGeometry x="17.67" y="1650" width="439" height="107" as="geometry" />
        </mxCell>
        <mxCell id="4WqvR_2e5_eg9FRiqzZN-5" value="" style="shape=image;verticalLabelPosition=bottom;labelBackgroundColor=default;verticalAlign=top;aspect=fixed;imageAspect=0;image=data:image/png,iVBORw0KGgoAAAANSUhEUgAAAaAAAABfCAYAAACuhRMhAAAWlElEQVR4nO3dbWgbd54H8O/4Sc65dpt26nTtbP2Q262S2n3hfdFy+yIWNncyXggHyYuEIznOXtgXybIlMlnDcvdSLFYoNHkRqMSRcGxhHSgLMdYLGykvuhsWViyJu1bpRZbZWlnbc9eelTSRqnruxcxoZqTRg23JI9nfD5jE/3nQXyN5fvN/mN8IsizLICIi2mcNdleAiIgOJwYgIiKyBQMQERHZggGIiIhswQBERES2YAAiIiJbMAAREZEtGICIiMgWTXZXgIhKe/78eV7ZkSNHTL9nMhlkMhlo95YLgoDGxkY0NTVBEIR9qSfRTrAFRFQn/hjfwg//4/f4Y3zLcnkmk8HDhw8xMTGBn/zkJ1hYWDAFJKJawwBEdEDIsoxHjx5hfX0dALCwsGBzjYiKYwAiOkCOHTuGl156CQDQ399vc22IimMAIjogGhsb8d577+H48eMAgLNnz6KhoYHjP1SzOAmBqI4cf6UV7a2NAKwnJrS1taG5uRkAcPToUWxvb+PFixeW+8qdxEC032wLQFZ/PJXGPzA6qJ49e4ZYLFZwGQA8evTIcnl/fz/a2tqqVjeictnaAvrNb35Tlf2Ojo6is7OzKvsmqgWxWAzT09NF1ym03Ov1YnBwsBrVItqRAxmABgcHGYDoQNMmGIyOjmJkZMS07KOPPkIsFoPX6zWVx2IxfPTRR/tWR6JSOAZEVIe0LrTOzs681oy2jK0cqnW2B6Bjx45VrLVSrF+c6CD48usXSL74Lq/8yJEj2N7eRiqVMpU3NTWhubl5X8ZciXbK9gA0MjKCCxcuVGRfjx49KtkvTlTPjv5dM4405989USzbQaFlsixzijbZyvYABABPnjzBhx9+aCrzer349NNPce/ePVP56OgoTp06Zbk+0UE3/MOj6HmtFYuLiwCUcZ2vv/4ar776anb6da5MJgMAiEQi2X8HBweRyWQKbkO0H2oiAD1//txyyqgkSXnlg4OD6OvrKzjFlOggO37UgY7WJnzwwQcAgAcPHuDMmTN45ZVXCm6jtYD+8Ic/4P3338fs7CwuXbrEHHFku5oIQP39/XktHQA4c+YMzpw5Y7mN1fpEB9132zK2ZWXsdH19HW1tbWhpaYEgCMhkMnj27Bm+/fZbAMBXX32F1157Lbvt1atX8YMf/ABvvvmmXdUnMqmJAPTVV19hfn7eVHbhwgV8/vnn+NOf/mQqHxwcxPHjxy3XJzrolv/2DaSnafziF79AJBLB9773PRw/fhyNjY3IZDJ48OABvvzySwDA3bt38dOf/hQNDcqYkdjdh4Xo/+JHb/bZ+RaIsmomAOXeE3ThwgVEo1HL8ra2NstyooPuQexrfPl1CkODgzh16hQaGhrQ3NyMpqYmZDIZrK+v4+nTpwCQnRG6vb0NALgR+iuCf/kfuE+9hn8f74Msy9je3s4GKKL9VhMBiF1wROV5/u02Mt8pYzdtbW2mWWyCIGBwcDDbPTc6Oppddu2T/8Ynf94AAPzXH5/gWfo7/Pqf/x7pdBoOh4Oz4cgWNRGAXrx4gS+++MJUNjg4CEmS8OTJE1P5sWPH0NHRYbk+0WGSGzSamprwzjvvIBAIZMu+SX+HDxb/ik/+vIGXjzTh/55n8PKRJnzy5w10tDbh/ZHvAwBaW1v3te5EQI0EoEQikXf/zr179/Dpp5/mpQ65cOEC3nvvPcv1iQ4b40y2xsZGCIKA7e3tbPfaN+ltSE/TOPlGG9xvi/hgcRX/9g/dCH4mQXqaxjfpbbzUKvCeILJFTQSgrq4uy/t4fvzjH+c9VEtrAfG+HzrscrMeWBFfasbUP/bgxbfbkJ4qs+N+9GY7/unUq2htbkBnhwPNzc0MPmSLmghAra2tll1ooihCFEXLbdjlRoedNrmglK6XHQCQDUAA0C8eQUNDQ3YKN5EdaiIAxWIx/PznPzeV3bt3D7/73e8KdsFZrU90GPzLfy5VZD8MPmS3mghAR48etZxG7XQ688oHBwcLrk90kHW/4sAV1/crsh8gfxID0X6r6QD01ltv4a233rLchgGIDpvuVxy4Mrz3AERUK2oiALELjqg4Pl6eDqKaCEAOhyNvthsAvPzyy3nlR48eLbg+ERHVj5oIQMeOHcOvfvWrvPJ3330Xp06dMpW1tbXB4XBYrk9ERPXD9gC0uLhYsUcrPHv2rCL7ISKi6rM9AK2vr2N9fd3uahwawnTU7ioQUQXJXqfdVdg1WwMQJw4QER1etgWgpibbG197cvv2bVy6dMnuahAR1S3bokA9P4v+9u3bdlfhwHK7+zF/usVUFp6NwhUpcwddIuJXRPQsJyDc2ap8BdGBkLcLwwCANFYlYOHjGCYTVXipsurSjrnpNfi09y1JEK5L8Fx0YuakstaOjl8O/1UnJtRsWOHlJIaRhHBnS9+/+nr1SHlvSUxNr8EHwHPRicsbK+gNls6xR5VR380QG9y+fRsjIyNYXFys00D0rt0VKCoYjEEIKieD8aVdnDgTEnpnHZAHqlI9eC52oe/+CoRgChjqhnzOUZ0XKoPbLaLvvnLyzL7vcyLi7iR670Sx5O7HLaztLfhsJiBc38oGdiwnAQC+O1El6J2v1HtR6rqfJ//J6wmc8LZnf/ctSLh8vh1gANo3DEC7NDIyYncVdmxxcdHuKuyaVcto9b5+tWq84l+V0sCmcqLMtojUbbKtgaFuyOfaASQxdSOFy1dE9CCNwI0dtGYiaxAMJ3djHSClsYot9F6XCtbB2LpQ7Oz1z74NLHycc7JcTmLltAhPcA2mjHE7rQNEjELSW5EJCb3TJVo6ptYn1Jai4T3l1AFQWh/ObB36IJ/OOQ6FPr9seRLh5XYMn9T35zO1Us3fE/1zByClEYbh+CUkLKAf/i7Jphbt4cMAtEOXLl2q05aPUvd/rdNZcMFgDFOdTsy8rnb5dImIq1erbne/Uj4tQesi69mE8v8rIlZmo+jNnrS64YmswRdZg4BuyK4UfIk0xpHGQhknf9+dBMa92onSHND0OqgndsN2K9pJcKgb8kAHENlSr8CVFlWv+j5uveMAEuVcgXfghJjCXF59k/j1fRG33A78zLBu/nHoh/9vscJ1eFhGFXKZWp9bcE1vwX9Vv2HcM2qow1A34p2S0nq7HsVdyxZQkc8vIaF3Oq0EGsNxBwD/VUMrFR0Iebvhf6gE1fg5BwI3ophMqBcMYgpzhleMbrZg/A0ADED7ggFoF7QgxEkI+y8cyr8KH+hsMZRvwTXbrpwEu1rQB6DnnBPyOX398SHAFwEQWcPUgBOyV7lKdpV10lFOrABMJ/K7nQ6sfqbXbfJ6FJPaL284MHxazAYtrRtLkcTNCnf5BIMSVrzduLYMYAPAUDuGJUlvrSUk3FwWDSfaAnUQHfAASpCoAN9SEjOGz2L1fqkWVYnPDwCQxJRpDKoDJ0Sg57R+kQAAfe84gA0Hepb11o1yMdEOsg8D0C4x+NSOpY00ZlwiEFFbH652pQsuIWFB6gAKTBLQW05phLx9CG2UGnPqQMgr4rHWUkqksYIUogkg+EYKPS7r8QO/S7/qVlpAlXjXW3gsiXB2weJqXQ3C59qxugEgkkT4XLspmDhfT+Px34rsPiHh5rITl90O+IzdnNjB5I6hbkyIQPYB4aYuS+VYeoJreQHOc1Fv6Rb7/KxtYW65C7AaP+xKYfWcCH/XFiYTyhjaMMwtoJLHhSpKkI3P9KUDr9ZvRC04Cw5a370yPoDz6riBOtvNNP6iWr2/gt4NUe/zB7LbR0e19Y1jQKVmjJnHFrKvYTEOBSA7Q6zQ+NXNzj59JtnHyI51lDtrzTRwbxwrUY+J/6oTo5/pXWumOuQeN8s65LxfydD9aRrLUY9j3vhLGqtSC3rE3LGe/GNnGpuBPjPNXK7sM3Ajhsk3csutxocsluXtL+d9nYcybldH6vlG1CoHoDCmBJd6heOG2w2cvTUP/EzAZDBnVU8I8uXHGOudRNBYNqN8lcNTAly5l0puP+T5ibzlbo8HWHJi/loUQt5GgCckY2Y4r/hQqPUARDthmIZtd1UOgHqdhl3PAaihmjsPT7mw5I9DlmXIoQEE1cgyMR+CBx6EZFld5lEW9ExgXpbhd7vhj8vZ4AMAwzOGclmGHPfDnX0dAa4lv1IuhzDg85mDmKy/nt8NogNiCy4Gn4rx3YnWXfCpd/s3BjQ8g/y2VhhTwhzG5RnIO2iRBMbGgFvzmJ9X9jHn8yAka3OOhjEjy5hRf1P2G85uOzHPHkciolpQ1RbQ8EwIA5O9EAQBgiBgKmxc6oMr2z1XriAmey2674iIqO5UNQBprRGty2zJNYbAqrbMg5AcgqfULsJTELKRS+mCy+9GW8Lj1dwyIiKqZVUMQGFMCYaA03MCAxjACdPUmWHMyDMYXg1gTJhC2GIvVibm5zHRo+1/GJf9wORNfevVwBiEsUCRPVAu/1UnZK8T8sUOvbBLRNyrlnu7EbroRGjIvjqWbag7W+eSFzg5co+D8ns//F3G/eYcpx1yu/sN++lGSKtndv/q69Uh7b0p35MOhLLfH/XnqlhqFyaei9U9HgU/C9oXVW4BKV1mShecC0v+yxgGEBhzwQcfXGrXnKDNfFsNYEwQMBk0bKfOYgtP5ZQbuu96JubhX3Jlu/p6JwcQUmfHrQbG1HWV1xsLsKlkLY3Ajah+j4c6lXVlNgphOoqx+w413UkdiKxBmE6UfUFjZj4Ok9cTCKMFE+dFZb83JKxK0q4TnSrToVOYmlaOa+D1dn2ac2RNKavYLOCOfT+hBoMxTC1rv23BNR3Vj9l0dMeJS313Knk8zIp+FpXWJSK+w+B7GFRxEoJ5MoDRxLxsSlNi2koutESGbLWzEvvsmZhHwV1SQe53OoD7K9n7UbQkoRpz3jPlPgpTXjFJQgAiJkQgPJsAznVhWEojLLZk7xEple9LeQ3tXhKrZVDuZ1loUbffYS63siUR3hQRGpLgyrlJ0fSe1XtriuWtO/s2ELihz1wzZUwowJi1Ger7Nt5Dk5vPzXzfFDDsdSp/h4YM4Vb1BvTjurqcBE62o8dQd6vPXJGfIXyl6DtS15fSWBVb1M/dcO+P6fuQVDKOq1sWqoP2fkz3V5XIiF7ss9D2F15OYvhku35cI4XrUOh7bPw+yF7loBe8f6yOs4vvBjMh0I6Zc6+p3SQX0xDUvGKYjWJuQL1rPqSkxRFuSIhfEc2ZpK90I6qedKxypfnuRJWbF7WMzHnLuhFVTzA/u9+BW1irWhLJuQUJl8+LwMd6meeioW5QTlpxdwq9RfLW7YYxa7Mvm+VaNdRtqEMHQldb1IuGNQgR6/uErOodGtqCK6Lvf/50O8JaDjZYf+ZxdxK9wZQ599pQN+RzLSUC0BZcN1qyLexe9aSupNgx539TTt6l6zB5PQpcdeLERgpLSAPYfStVOeZRRC86MXPSkMWiRB0A6+9xMBiD8ND6JteCf0tVeZRI7WEAooJ6Oh0A8k+aZ99uMeVkU9LYtwBIA0hiLgJgAAgvbQEw3HUuSfp9FpE1BFz9SiqZornS0ggsWP8x3v3MgVtuB3xBB66dTuHmdBXv4UhIuLnpRHw0CeWYdGD8ZBqBG3rdJkNJyAP6MbPKWwe04EQlk11Gkgif64LsVQdJpNJXz87XAYiGbQBAPVlqVg2tX0DJtwdRzF7BAwBebweCDpwQDbnk1Px64+XUXZIs0uW0oE+SsoEvGIwh8HZ/iToorz35sYT4FSfmkcTUdDkn8NKfRXjW3KIuWoei32Nrhf+WDoc9jwEJglD091Jluf9SbQgGJYRPiobBX2VAOTQE3P0sjb5Ow3Nw3nCgZzNdeqeiqE9iGOrGhKjkUdNypQnTUQizpf9ojXVcOS3C7xbRd1+q+g2ZvjsJrKjdUkrOMfUEpnJ3OrC6UTwIToaSGHYZTl5D3TucLNGBa6buPXWcRf2Z2hStJ4qoE0q0z2/1/kp2G2E6WvKK27eUVLq0jNtcl6DkpGvHZbcj+zqX9zJWmEhjJe97UqoOgDFz9th9B2bKGG/ZzWdRrA5lf4+HurMTK3b9t3RQyHuUu4ud7rICVTCL+2U3IAOQ4QmVtUnIo64Pj1zeFvULv1y2/PFvpmT/hznlv90ybRsPx9RlaznHSdnWv6n+urkpe/6iloeVfYTCm3J8MyXHc7bBL5dldziVV894OGYo35I9htfU66FtuyV78t7TmhyyLNfrGfpt6eOQfU/qvtzhlCxvbirLP9w0vB99Hf245RyXv6zJ+OWyemzyj4P+WjqtjsZt4pup7LK8Y6fVLa/+xT4/fVleHQz7y1umvh+r/Snvy6Jc3Z/pmOQcL/NxTcnxTVnWjq1lHQzrx8Mx/VjlHAurH+vPwqLe2fda+DgU+h5bHSP9u2f9t6TsKyX7f6u8t3g4pryuxXuqZ3vOBScIAoy7yP1dKzMEvKKtnT1WB4ExAdFrSq434/8L07MxYErA3PjBzhNXKBdcdlC6Wo+yrlKiR8snaRofNrfDVDVVPw5EFVbPueD2JQDllpezjkJLZuqGPz6PiZ68TXKEMTX2GDPqFGyEpyDMjZtyyllulU1k6kFInqneVMwaYE8yUvMsqUrMVDPPNKvW7Dei2lfPAWhXkxBKjfvktnjK2Ye1wlO5La0+xlIwijBQfhBZDeDX2UtkH1yCz5RlmyrB8BC3CsmdFk6Ux/KxEZqdt46p8nYVgIq1eIp1wRmXFWoB7UnPCQxgh1f4PROYlyeU1pLLB8AN/y0GH6K6l5DQO3147qmpR1XOhKCwCjpa1gLjz94Nw+nW88KF53zwjJfXFgrP+eAJyYjnpPUhIqLq2FMAKjSWUw5ZS1Jq+MkXxpQgQDDmlCth4tpANl2Pa8lf9oSC4XEPfC4BvZOA//JBHgWi/ZDbL2/VT1+sLPdfooNoT5MQCnW3Fete02bBlTcJgSqNT0TdH7LXaTrWub/vdPu90SaBWEzWsHiUt0ZPEVPmJA/DvkyP26aqqueLlF1nQthNsCi2Pm9EpcPGeOIQpqNFW017CUZut5ICKfB2d94y/3k97Y0xJQ+GuvUUMUPdkM+LmCwxhV7LHyg8bN9T6iE6PHbdBVcomJRTbrVO4W44ooNJCyrG4GK6w179yaU8osCJuNuRt8xKMBgr0BrpwAno6XAmQ0kMDyiPmXB3OvQUMZE1BNBR8pEIwYdbwOk+yFdE4LPyM1rQ4cVccEQVUmrcp5wWTTndKb470cpMH+5qQZ/ogAfI299AZwv6YJ0LsBDPqD7lued0H+TTekZoIisMQEQVUmzMx2pMxzjRwKo1lLtexSXSWIF1K2ppY+f5yLTAaMwmweBDxTAAEdlEG/fJDVT7ZwuPJVHJSJ4APAPtCC+tAQCCGyn0aJm9u0SMYgu95WSa6BIxCgnCdBohrwh/1xYzVFBBDEBEFbaXGWzltIA8Fg+lK8b0wLMrTkwYsgBMhlKQrziVhzlKEgStxRJZQ8DlzD6yITxb5vtJSFiAE7IXSguIwYeKYAAistlOA9ZOx4CKrh9Z04NOjnKe1lrJ7ejw2ZdMCESHxW5aP8XWr+d7PIhK2XM2bKovvBGV6GCp54sUtoCIiMgWDEBERGQLdsEREZEt2AIiIiJbMAAREZEtGICIiMgWDEBERGQLBiAiIrIFAxAREdmCAYiIiGzBAERERLZgACIiIlswABERkS0YgIiIyBYMQEREZAsGICIisgUDEBER2YIBiIiIbMEAREREtvh/UhtrqunH6okAAAAASUVORK5CYII=;" vertex="1" parent="1">
          <mxGeometry x="440" y="1650" width="416" height="95" as="geometry" />
        </mxCell>
        <mxCell id="4WqvR_2e5_eg9FRiqzZN-6" value="整表扫描" style="text;html=1;strokeColor=none;fillColor=none;align=center;verticalAlign=middle;whiteSpace=wrap;rounded=0;fontStyle=1;fontColor=#FF0000;" vertex="1" parent="1">
          <mxGeometry x="-150" y="1620" width="60" height="30" as="geometry" />
        </mxCell>
        <mxCell id="4WqvR_2e5_eg9FRiqzZN-7" value="聚集索引扫描" style="text;html=1;strokeColor=none;fillColor=none;align=center;verticalAlign=middle;whiteSpace=wrap;rounded=0;fontStyle=1;fontColor=#FF0000;" vertex="1" parent="1">
          <mxGeometry x="190" y="1620" width="100" height="30" as="geometry" />
        </mxCell>
        <mxCell id="4WqvR_2e5_eg9FRiqzZN-8" value="非聚集索引扫描" style="text;html=1;strokeColor=none;fillColor=none;align=center;verticalAlign=middle;whiteSpace=wrap;rounded=0;fontStyle=1;fontColor=#FF0000;" vertex="1" parent="1">
          <mxGeometry x="593" y="1620" width="110" height="30" as="geometry" />
        </mxCell>
        <mxCell id="4WqvR_2e5_eg9FRiqzZN-10" value="" style="rounded=0;whiteSpace=wrap;html=1;fontColor=#FF0000;labelBackgroundColor=none;sketch=1;fillColor=none;" vertex="1" parent="1">
          <mxGeometry x="-210" y="1610" width="240" height="150" as="geometry" />
        </mxCell>
        <mxCell id="4WqvR_2e5_eg9FRiqzZN-13" value="" style="shape=image;verticalLabelPosition=bottom;labelBackgroundColor=default;verticalAlign=top;aspect=fixed;imageAspect=0;image=data:image/png,iVBORw0KGgoAAAANSUhEUgAAAYMAAABhCAYAAAA0n80vAAAWoUlEQVR4nO2db2xb13mHnytalFVVal1QSiYZ0B+vBd0qQiFgqbNhkAQpAAW3K4rGHxxg8VYxXVDYQDBTcFUUy4ANEQLJGBDnQ9CQH+KtDRo5KFrEEz/IIIVhbVEgWmErEZctkrhGTCLdLBkVQyBl6+7D5b28JC//SZQoyu8DELbOvefcl+dent857znnvYqmaRqCIAjCA01dtQ0QBEEQqo+IgSAIgiBiIAiCIIgYCIIgCIgYCIIgCIgYCIIgCIgYCIIgCIgYCIIgCIgYCIIgCIgYCIIgCIgYCIIgCIgYCIIgCMCxahsgCEL5aJrGvXv3uH//PsViTTY2Nh6QVUItIyMDQahBNE3j/v37zM3N8c1vfpPvfe973Llzxzz+led+zYuhP1TRQqHWEDEQhBpF0zRu3boFwPr6Ordv366yRUItI2IgCDWKoij09PQA0NTUxEMPPVRli4RaRsRAEGoQRVGoq6vju9/9LoqicPLkSR577LFqmyXUMDKBLAiHmJ2dHRKJRN7jJ06cAKC+vp6mpibbc7a2tqirq6OhoWFfbBSOBgciBltbW/t+DXnYhaPMxx9/TCwWy3v87t273Llzh56eHlMU1j5N8LvVOI92tRyUmUINoxzEO5C3trZYX19nbm5uX8p/8sknRQyEI4kxMvjVr37FT37yk6LnP//88/T19fGV535tpv3n3/8pDof8PoTCHJibaH19nZ/97Gf7Uvb58+f3pVxBOCy0t7cD8PTTT5uTxgY/+tGP6Orq4vvf/7557F/+updf/H6dN/5j/cBtFWoTmTMQhBrg+PHjAHR3d/PII4/kHG9qaspIf7Srhd+t/t+B2SfUPgcuBlaf5l5ZX1/no48+qkhZgnAYqauzX/DX2NjI9vY29+7dy0h3Op04HA62trbo+GID3+j6wkGYKRwBDlwMvF4vfX19FSnrtdde46c//WlFyhKEw0i+Kb1CU33Gse98vY3vfL1tX+wSjh5VcRMtLy/zyiuvZKQ999xzvPnmm7z11lsZ6U8//TRAzvmTk5P7a6QgHAKMnr/xu1hYWKCvry9nRGBle3ubTz/9lJmZGZaXlxkZGWFkZIT79+/jcDgOxG6h9qiKGBjL4Kzcv3+f999/Pyf9s88+Q1GUnHRBeBAwevkzMzMA3LhxgwsXLrCzs5PXhWT8ln75y18CcOfOHYaHh4sGtBMebKoiBo888ghvvvlmTvqzzz7Ls88+a5vH7nxBeFA4ceIEn3zyibnJTNM0NE3jk08+AfTRwN27dzl2TP9JO51OmpqauHv3roSpEEqiKmJgt+fg3LlzvPXWWywvL2ekDw8PoyhKzvlPPvnkvtspCNVGURQAfvCDH/Duu+/y5S9/2QxFsbOzwxtvvIGmabz//vv85je/YWRkBIfDQUdHB2NjY3zwwQf09/ejKIpZliDYURUx+Oijj3L2HHz729/mt7/9bU6j39vbi6IoOeeLGAgPAkZP/8yZMzz66KM4HA6OHTuGw+EgkUiYnae7d++aK+scDgdNTU08/vjj7OzsmPME+dxKggDiJhKEQ42iKNTX11NfX5+RvrOzg6IoDA8Pc/v2bdra2ujr60NRFJLJJAD+f4/xT7f+h7f/7jFAY3t7G6fTWYVvIdQCVZtAznYHffWrX+WDDz4wfaAGxo7K7PPtNt4IwoOCoig4HA5GRkYYHh420zVNY1nd4nh9HYl7O9zb0SeNl9UtTnyuntYWJUdYBAGquLR0YmIiI+3nP/85N27cyHETPf/88yiKknO+jBSEBxlFUTh27Jg5d6BpGjs7O0Q/3uJvZ96l/YsNHK/X3UJzkf/lpfAfGHZ/Ce+ftdPcqMkIQcihKmLQ09OTs0/g+PHjPPHEExm9HONckH0FgpCNMTpwOBzs7Oywvb3NFxqP4fq8k/n/+oR6hy4Gz725zPb9HVo/76TeUSdLTAVbqiIG2XFUDE6ePMnJkydt84hbSBDyU1dXx7Fjx/ji5zT8f3masX9e4t/+W3e5qp8luTzSyfk/eUii+wp5qYoY3Llzx9ZN9Morr4ibSBB2ibFqaHt7m3/8ix7+4V9X+P37n3HhzB/xN3/eYa5EEgQ7qvJkPPTQQzlLQ51OJ2fOnKGtrS3nXEVRZCmpIJSAIQgdJxR8j3eyrG4x4v6SOXKQ5aVCPqoiBm1tbbaN+5kzZzhz5oxtHhEDQSgNh8OBoij8cVsTPa5G6urqcDqdsulMKIi4iQThCCJzA0K5VEUMGhsbc97WVFdXR2tra056Y2MjiqLkpAuCIAiVoypi0NnZyY9//OOMtOPHj/Otb32Lxx9/PCPdCMyVfb4gCIJQOQ5cDPx+f0XfdCYIgiDsnQMXg+ywEsL+okxEqm2CIAgVRJt070u5ByYGvb29MukrCIJwSDkQMaivr9/3LfCyfloQBGH3HIgY1Pqux1dffRWACxcuVNmSo4fvKTdTp60pSQLXlvHGSsvv8fQwO+AkPBNhaGEfDOzvQDvXrP9fTRIlTtdVdU9lRedX6Aomys/f7mL1PPr1DbuWYijX4/gvuxlzQbn1l0kLocl2BtHLCS9B9/oaXcFEuvzU9WqOdherl1x0Wuz3X3ZzKrRPz00NUtut9AHw6quvMjw8zK1bt0xRqC2+UW0DCjJ9PcI04L/cA6+V34gFg8uMt7k5uy/WtRA610DgWgRvLCVcrXsobmGN0bYeXt5ldt+Ii5VQJKOs2YF2Qv1xhq5GiDzl5uzi3oSge34FJZhIC1dqjYb3agRvfwda7y6Nz/4uT7k5u3iADXFMpWumIcN+b2gTrbcFFmpQ3PYBEYMSyY6mWgvcunWr2ibsGn3EkCSqOul06Wnp3n9mDzaqwoqR0dqTt/SSzRHIUozRdRezA05QVZQyevmGcOlYbSCjt2+MVnQ2GZ9Ys+TTKb+n3cLZ05vcvJ6ZGl3apHvIBQtZ38O2HlI2q0miLiedVvv6mxlciulCALCwhlKsobaOdG436z1v6/fNsIFUfSfT9XbajXYuq47y3D8zXVUJ4NLrzrh/Rq8/lcs6SrSOPKNqEjY20/YsbBI+14yPeM79eRARMSjChQsXanREoNv+VzW6mmj6egT3ZTdjGzGUq3G9MUj14vyXs3uwTl0M2l2sWnry9HegnXfhvaoyfT0CT7m5uJ4guJ4ANV6CEMQZmmlGu+RmDLA2Whk20EJosgP/7WW8D3cwO5BgfGKZaVLC8FQL0xkNfjOnXJTn2mp30q0mchutdZWX6CbUr3LTPNemHi51EJlYY+iak9VLLlZmInQtpHro/eyuMbSOdGIqXRNJQpPpxt8/lLbB4+nhyrpe30MTcfuRQYH7x8Iayod6oz+2lHomAGghZPk+ujB04FtYY9HTw1SrijKhYoh354b1C8R5T3Xhbgd2NZo6WogYlIHMGRw0SQJz2b3mFk65NnnJ0oMd7025iR5uoBMnY2bjDdCAv13FG4Pp6zHOTnajkSRwba00Eyw9ZI+nh9nLLqavJjnlgs6BbrSB9KndfQ14aACcTE26mTKPZPY+OwdcML+iN14VYHpO5eKlDs4upezsa6FzSU27ixbWCAz16I0egKrai1BrZV94c+NtmLXci/BMkQxF7h+gjwaswtrupBvoPGeMMnTO9gNtTsIhQ/BTwl4hN9dRRMSgBEQEDhNx3lPbuehpYDqYgHYXF0/DyiKpYT/ctHHLgKU3v+4ye8oFe8T9HWhDCXMEEVxPQFsSiHNzqR3sfN7tcaJfo+Akc3ReZWWgm1XKmEiOJVlxNePDphcfU3lmvofZAQgvQvB2nOh5a8PewilXgpsxoD07c4qFNQJDbkL9aaHwX3Yz8nbpNno8LgZJmCOUYHAZJZj6o93F6nkbd1bqOmMbMZTrhe+fLTGVObXFdr7J05ZkyuJC8w81Z7qJrPUioGjy2qMjzWHfdJZvNdGNPsPvvsn4xCZnU35m3TffkOGvt89nkJk/Y84gjz/fJNvnbfVhZ/mpIe32yflOhm/b9LGrrAy4dHvKmLfIcK1YbLPWCXlsMOY0MuYqFptTZaS+F1nfyZjPyKkH8vrr08eSOffI6hbLmFex1EHmfAsY92gxJ91mPsHmWO7zZZnf6e9A692sudVR+7XprLJiEA0w2uUlaCb4CGlnuakM5fzgPP5VZk+9hDI0nZk2pj9WgVEFbzArky+ENjWYc9zn8zHNWVbdL9CVk8mDf3WWsU4eSA67GAhlYF1aKuyZWl1aul9iUNGdWoFnvPSGNDRNY9XvSaUOMrXqx+Pxo2lZxwan0LQQPnyENM0UAoCx2XS6pmloIV/6OqMK3t6Qnr7qZ3E6U1A083oh0rkEocaJqSIEFcR7tfaEYD/ZtzmDzrFZtLGsxGiA0WdgdnaW2ZJLCjOu3OSsNoU2qJdxA785QqBzjFnzQoN6uVHMv6e0wewCBUEQhCwqOjIYe9nP4pCCoigoyiiBqOVg0IuS4UIqhWmGbFxMgiAIQmWpbECfzjFmTbdOL96uccLGMY9fd98UKSIaGGXUVBEfITtXTzCSLlcQBEHYM5VzE0UDjHZFuKJN6SsIut14PGSu+OgcY3YWCI+jvOBGm832I9mRcvVYyr/iU3ghcJHB1BxDeFxhiPTkslCM9O7ZjDg5GXF4VALYL9k7bJgrUMrcUZxTD8Yu2lQ51pUoe4l9lLELdmkTWhN0XVUtK2eKrGo6xBg7xW1XI0GZsYyMHdLl3sfSyXcvhEqPDJhmSEm5ibq89F4ZA8KMd3kJBr0p95GSXkEUHkdRhpi25DNWAwVGM9OtLqbBqRC93i6zvKHF9BxCeDx1bup64zKEyMMm4xORLCHQd38qExHGN1Jb/muAYHAZ5ZpKtPipNljqIabSNbMJLherngamr0cYnU8SnV/ZmxC0qigTEZSJGCunm83GMhhcRpmIVW6U29+B9lRLpUorienrEQJGWxpT6ZqIoMxs6iIwESlz2WacoV3fx+IUuhcVpwr3Yq9UbmSQMZFrZZApTbPsxsxE0/IcGdPIP27IX+bglEa+IoX8+HqbCc9EzFFA8Tg8WWv9lzYJn25mkCSB+QRjA81E1SSdrty15Pniz6Qjb5L3WHR+ha51Vyr/PvWolzZZGXDhC66xmHHAPh5R/jhKejyh8QnLLtiJYo1jZu/Y+N72cZnAqKPIiNHjbUabbLfYkN/udLoeoXTwtJO898Paw8/YW7BJVIW5Ql8p714Em70FqciwBrY2mOUlCVxTOXVJ/26FR2+F7sUu66FYHKyy7kX1kZcACEUxd+4aPaqBbj1S5jWVKEkC1yIEWpvpnl9hdB5GUBmdT9LpImOkYe0phWf09NF5GOlrAMB7Ve8lR1PXyjmmqvoPZ2GN8SUIz+yXa2WTF+YbuOhpKKEejN6xk86NVG94ZpPB3t32CjN7x96rEcaX0kc9Hlfahmsq0SUj1EZWj3wiYtlJnG13B/721LUmdNsHTycYn4igTKQbtLGNdFmB1nZC/WCNBaTfowZTAPNijLhSz4oyESFAi25DvxHLyUh3mqKR14aYStc1lSgJIrE476l7c+Ptrh507J7j8u5Fd0Z51UTCUQgm3W0NQFYvpd3FiDUWEHFemHfxclsDfAiocb33RJK52wnoS2eNzq+lRxpzKhdTIRI8bQ0MDqRjyUTnrRe0XstKnJsbqXAJH7q42KpWLLaPHcGgyspkB1eWgHUK1wMJ7OMoATRUNBBa8HYcLlliIi0VK7glbxwlYsZ30WM1WYXV3Qq42s2eLQC9LfChk241XffB4DKBr/WUZrw1XlIKT1sD0fn0tb2vqYycL2LDQjwdgmPSrTe6JT0Lxe5FGfWwEC/yHNtQ9BmqLmWPDBRFKfh3sbTsf4XDwfScCgOu9Mqtdherkz34UZlTG9JBzoDeNicr68Uf3k5Leb4RF50bSaCFK5ae4Oh8siwbu4dcqbj++z3pF2doJpFyGZCKgVNuPcR5YR7GRtKjBI+nB+1yGZMxqdhLJoZf3uypulK9/Ew8nh60yQ58xLm5lO7BGp9irokbbyfNEZr5uR5PxUhypXuz/R17mlsKridyn5NiNqSua4woAq3trGaN4nLZ3b3Ib0Ppz7F5L3b1DB0gWplkZym3iF1csiCrfo8GaIDmC5WWx+/Rz8fjr6gthxF+uGTzWdNCWlzzZaV7womMvKHXU8dej2cWurGRKiPFO2uaf0PTNC2u+cMJTdMSWuidhLa6kcjKo5fneyfXztDrlvSNDY0XN7TVbDuMvJayzM+LG9pqvnRNty37++bUg+Wa2jtrGj9c0vwbmrYaXi5QD9Z6i2s+S70Y+fS60SznLGXWn0lC87+4ZJMnfSyn7lJ25thvKSsz3VKnNunmd7WxzzyWdZ3V1L332ZSn25dZJ5n1lfXcbST0MrLyabb5E5r/xdz6LvSxvRe7rId8z3HBe5HnGdLLimu+1PHQ66nrWu9v6rNflB2bSFGUjPcZZ/9tpFnEpuAooMzLZ2Jdzpq9tLVQnmdgdnaMwOgovHy04xbZxybKs7S0gng8PbzMWsXLtouDX7GlpYdkIk8QCnFoAtWVIgbZ6aWcA+hLTYem9Q1qpexBCI8z+t5FM6ZReFzh5lmNYtsNzCB3pV6nhqlKoLqs/QqVWDOeGX2ydtflC8Je2S8xKGkCudg8QfZIoJQybBmcyr/U1Iboe4sEIytQzmrh8Hg6GmrQi6J4M6KhChWglFcmlknmUldBsMEu1LbBPm5kOyqUJAaFRgKF3ETWY/lGBnuh81QvlNvxTQlONDCa2uDmIyRCIAi1zz50Qh4k9mWfgZ0AmLuPLZ890+3Gs/he6o8wN6d9nC2xXZ+7Af5VjZBvmhcC+7XnURAEoTYoSwzy+f5LQTMC2Fk+OYTHdaEYDZRWaOcYV3qNMBdDLPovFp48tjDyBHi7FIamfVw5yjPIwoGQ7ce18+sWSsv+VxAOmrImkPO5hAq5gIzVRCVNIAsVR950djBok+6Mus7+u9z8e8IM12Az0Z7zusz0Cqp02IUSJ+gtZe1tB7BQDlWdQIbdNdyFzpdNZ8KDhvVHrExECo4m9iIMvhEXKzMxVnImU1sIpYIRemMthCY78N/Wwy54PD162IWrcX2p7lMtTBcJMmfEsxqiA83YGSzULCW7ifI17KWk252T11UkCEcUo4G3NvQZO1tTn2z8l91ok+6SY9hMX8/TS2930m2GhNB35BrxdHrbMMNpBIMq4dPNRV8ZO724yeA5N9q5ZsKLIgS1jsQmEoRdUmyeoJSefilDfu/VCN5d2JfDww10ttofcrc6OfUwZcVQ8g+lRx66KKQjdwq1h4iBIOySQnMEdnMA1kliu1FC9nkV58NE3ncFRDbgVJnF6SJl3cW9JkJQw4gYCMIBYcwTZIvGgRFLsuLS3T/TwBNfg7nX9AnkxfUkF43omf3NDC5tMlRKmf3NDC7FUOacrF7S3wEhmwNrExEDQdgje1kJVMrIIPcFN4WxvoxlcNLNlLn7Vg+ZPDvp1l8MtRRDSfXk9ZDdRphrPZRzSSxsEj7XjnZaX50kQlC7iBgIwgFTrniUO2dQ6PxgcBklaHeklLewVTKfcNiQN50Jwh7Yzaig0Pmy6UyoFmVHLRVqC9l0JghHi/3qMMjIQBAEQRAxEARBEMRNJAiCICAjA0EQBAERA0EQBAERA0EQBAERA0EQBAERA0EQBAERA0EQBAERA0EQBAERA0EQBAERA0EQBAERA0EQBAERA0EQBAERA0EQBAERA0EQBAERA0EQBAH4f0vBO+FgMEyiAAAAAElFTkSuQmCC;" vertex="1" parent="1">
          <mxGeometry x="456.67" y="1784" width="387" height="97" as="geometry" />
        </mxCell>
        <mxCell id="4WqvR_2e5_eg9FRiqzZN-14" value="非聚集索引条件查询&amp;nbsp;&lt;span style=&quot;&quot;&gt;Where co&lt;/span&gt;&lt;span style=&quot;&quot;&gt;lumns = &#39;&#39;&lt;/span&gt;" style="text;html=1;strokeColor=none;fillColor=none;align=center;verticalAlign=middle;whiteSpace=wrap;rounded=0;labelBackgroundColor=none;sketch=1;fontColor=#FF0000;fontStyle=1" vertex="1" parent="1">
          <mxGeometry x="531.5" y="1745" width="247" height="30" as="geometry" />
        </mxCell>
        <mxCell id="4WqvR_2e5_eg9FRiqzZN-16" value="" style="shape=image;verticalLabelPosition=bottom;labelBackgroundColor=default;verticalAlign=top;aspect=fixed;imageAspect=0;image=data:image/png,iVBORw0KGgoAAAANSUhEUgAAAbQAAAB4CAYAAACaaQc9AAAXZUlEQVR4nO3dbWwb930H8O9RMmnXkZoiZzmTVEiiF4yOGS9Th8Wbg0qCFUCagBUNLAwuUDWDmKDDbMCBybp6s/ZFEc2QDARzinqI+CJeHKOVCxSNDbGYOlEosKbF7Be2GqmoTZGrxVgyUzei3UQP5O3F8Y535J34oCfe6fsBDJvHu+NRovnl/4G/vyBJkgQiIiKLc2z3BRAREW0EBhoREdkCA42IiGyBgUZERLbAQCMiIltgoBERkS0w0IiIyBYYaEREZAsMNCIisgUGGhER2QIDjYiIbIGBRkREtsBAIyIiW2CgERGRLTDQiIjIFqq3+wKIaOtJkoTV1VWsrq4CAARBQFVVlXpb4XA44HK5tuMSiUrGFhrRDqSE2QcffID33nsPv/zlL9Uw+3V0ERfCv9/mKyQqHVtoRDuQslD997//fTx8+BBf+MIX8MILL0AQBPw6+gkuTPweJ9u+uM1XSVQattCIdrCHDx/q/iayMgYa0Q4kCAIAoLe3FwBw/PhxdRuRVTHQiGwsnU5jZWUl74/S5filL30JANDa2mp4vCRJWFlZQTqd3rJrJioXx9CIbCydTufNXCyFMhvS4eBnX6p8gqR8VLOATz/9dNMfg9OUyU5WV1cxNzeH733ve4hEIgX3v3btGt4K/x7/PiHPcvyb5lq8+09eOJ1OVFVVbfblEq2L5VpoU1NT+Pa3v70p537//fc35bxE2yGdTiOVSunC6LnnntPt8/jxY0QiEbjdbuzduxcA0PCkCy80fx6/in6iO5cgCGypUUWzXKARUWHK98yWlpbw5JNPYs+ePQCAwcFB3X7KB0Sfz4fDhw8DAL76fB2++nwd/uK7/6Pu9+jRI+zZswfV1dWorubbBlUmftwishmlZRaPx/Huu+/m3V9dXW3are5yuQy7Fi9fvoy5uTmsrq4ilUpt+DUTbQTLftR644031E+U63XlyhVcvnx5Q85FtN1WV1fx8ccf4/XXX0dzc3Pe/Wt1HTocDnX6/m+/+3fq9rt37+L111/HxYsXIYoix9OoIlk20IBs/7/Ws88+i48++ijvi6JutxsA8vbPHVMgsrp0Oo33338fjx49wksvvYTHjx9jeXkZgPwF6qeeesq021CSJEiShIcPH+LevXtwOp1obGzEsWPHcOvWLfz0pz/FK6+8gnQ6zfE0qjiWDrRIJIKBgQHdth/+8Ie4evUqxsfHddvfeOMNCIKQt/+1a9c2/TqJtpIkSbhz5w4AoK2tDZOTk7h37x4AYHR0FK+99prp98okSUI6ncaPf/xj/OQnP8HevXvx6quvor29HW+++Sbu3Lmjhh5RpbF0oLnd7rxB7t27d+P48eM4duxY3r5A/qA4kR0p3z2rrq7GwsICHj16BCDbQ2EWSEpYKfs9fvwY8/PzaotuZWVlsy+dqGyWDrS9e/cadhk2NjaisbHR8Bh2MdJOsHv3bgDAZ599Bq/Xi/3792N+fh6dnZ0AssGk9GT8/Oc/x+HDh7GysgJBENQuxrq6Ohw+fBifffYZAKizJYkqkaUD7fbt24Zdjm+//Ta7HGnHcjgcOHr0KG7cuIHLly+jv78fP/jBD5BOp7F7925UV1erMxW1gXb69Gl1wsixY8dw9OhROBwOOJ1O/OhHP1LPq504QlRJLB1o+/fvx9e+9jXdNqfTiSNHjqCuri5vX0EQ8vYnspuqqiocPXoUkUgE0WgUgNyyEgQBgiCguroakiQhlUrB7XarX6wWBEE3Pvaf//sxnnpiF15+vg5erxcvv/wyXnzxRTgcDk4IoYpk6UCrq6szDKgjR47gyJEjhscw0MjuHA4H9u7di69//evq5JCqqirdVHuHw4FUKoVvfetb6npoCmXCyJv//X/4qy/W4OXn6/Dss8/imWeegdPp5BerqWJZ+pXJLkeifA6HA7t27cLnPvc5eL1ew32qq6shCII63qy0ziKJT/Efv5jDay82YDUtt9TGZ/6A/5r+A/7tq3++lU+DqGSWDjSjSSFVVVVobGzM2/7EE08A4KQQ2hkEQYDL5UIqlUIqlTIc86qqqsKePXvUJWJSqRR+8bs/4mcffow7D/4ESQJ+O/8nnPtZFH/8dBW/+N0f8eVnnkQqlWIrjSqSpV+VRtP2AXmxwuPHjxsew2n7tJPkdjUa0Y6r/cNf7sPcJ0sYvTEPAPjk01XsqnLgX9q+iC8/8yTHz6iiWTrQIpEI3n77bd2273znO7h27Rpu3Lih2/7qq68CQN7+DDiibDflU08A//zlRqymJbz7q4/w+T3VeO3FBvzjX+9XZzxyhiNVKksH2uPHj3H79m3dtlQqhXv37uVtf/ToEQRByNtORDIlsJ56AvjXv2/Bn5ZSaBH34JW//TOuE0iWYOlAe+655wwndZw+fRqnT582PIaTQIjMCYKAXbt2YWVlRZ0EUlVVxTEzsgRLv0oXFhbyZjP29vbixo0beUWIjx07BkEQ8vbnNH4iPaX7UZlMwnEzsgpLB9r8/Dzee+893bavfOUr+OCDD/KCy+v1QhCEvP0ZaET5GGJkRZYONBYnJiIihWUDbXZ21nC21Ycffmi4f24XpOL27duYn5/f0GsjIqKtZ9lAy51+TxtPGJjZ7ktYF2nQoz4H7b/N9lFuF6I9Z7H7mu2fe38p5y50DqNzWv13SutTyuvKiiwXaC0tLZvWbcjv19iP2X9gozd3Zd+1AkLL6Pi1AsPs8Qrtq5w39+9SlRVmrQ2QvEkIlxbVTSNnPOgX5X+Hp5Noh3y/un06rtvfOmoxMViP9kQCwvkEAMDf58HJhVk0h5a2+dqoGJYLNLM10IiMaFsn2sDKDQZtWOQGjfZ2oRZUoVZYqYzCyyjUtI+bG8y511TK9Yx0uBC8Mpe9fcaD/gdxCOcXgXoR0VMiMJ0EAPjOz8DX2gDJuHxkybq63LiIuS0Mk0V0XHAieiK7ZXg8gZMnagAGmiVYKtC4uCAVS3kTXyuMtMGgfZMvp4W2Vpem0b+Lvf61Hjs3oHOvo9A5CqoX0YlFNMe1txPZ1lc8geaBRMFzRE+JaJqOQ7gEuQWEZQQvROCLQ24B9tZk98+0jrKtwBZIbQBMj9FsVx4LSYSna9B+EACSCAzMYVhpfWWOik1mW11dXW6MtTkzj7+MGDSty3gC43BjpD4hPwZVNEsFmtW98847+MY3vrHdl7EjrNW9ZxZeRvuaHVvsuJVR66qU6y/mWtY6R26glhRuT7vQ9CBZ/P5G4gk0j7oyrbZFdAwsYuSMW717pMOF4IUZ+OJysJxdkAPSd34GV41aaPUior3ZY9DaAOmECN/5RCZgl+Xg2peAoAnbkTP1aJmchRBagty12ICRWxH4nm7AWNsSAgMRDCPTAs15CjMPnOh5GgADreIx0LbIO++8o/vbGl7Y7gvYMKV0vxXbQtOer5SgKVUxoWt036ZMABFd8AMY3qDTXf0NMHYqGyLh0QIHPO1CE5zoP6UNHldOCyqJwHlty7EWB0SgqU1p7claDrvQBRdik3Pq8/FdSaBT0+VI1sJA22JWaqG9YvEZceWOZ63VKso9h9kMwmK6IMu9nkL7FDObsyj3lxDrcGZvxxN4a9qDk10uDGdaTf4+D4ZQwiSQ1gb0i0AwczMUikAIZW7Ui4ieEIGb+d2Y/j4PhvYlIJxPItwLXB+YKyFUF3F9uh6YmkHHzdzrWUJTrwh/SD6fv1NEE/SP79m3jLv3i34w2kaCpKy3TpvOal2OdpjiXWhMaa03+mJbZ2spdHyhayn26wbFnqPUYBs54wauRDStH/1YlDLmlTcWpr1Pd8wyYgknmsQkAgNJ9GjPBSA8qgkd3TmVsbCcMS/tfQbXoJ5PHV/Lvy9vDE10Zsb8MhNfTgDN5wuMFVqE3aftM9DIlJUDzWymn9n093K/95X7mKX8zIoNtFKuw+ycZU/5N5i2v5PYbdq+3QONXY5kS2Zv6sp9uW/sZrMES/1idqHt63kepcqdnFLWm9nNOQi53XQ7yPClmQ0bL6TNV5mBFguiu9mHkLrBjwmpB9eFjrwXV9dIFGMH3oLQMazf1i93LgS7BfhCOQf5JyANtefd7/f7MYweRD3n0Jx3UBdGomPobwJZQKExJaOAM9vXbJ+1WnhmraFiJ4+U02IsNKOx7FAjsoiK7HIMdguYOSthqB2IBbvR7PNiQhpCeyyI7m8CY2Py/KZYsBvfxMVMeIUREK6jRxrS9cnnbQ8HIFzvgTTULoeZNxNuSoj6JxD1nJPP2zmeebwDCAjn4NlhgWblLkciymf3DzSV2ULTaOofg5T7xRA12MYwVvSZssEmtcvnuIoRtaWGpn6MqQ/ULp83BvX2kNSee0IiIqogFbngUf/FEUx1CBAEAYLQjWBMc2fIB0HXHVmMYXQYdFcSEZF9VGSgya0lCZIkQZrwwtccQFi5r2sEUnQEXQVOEQt2o1tNQj8mpAn4c3cKzWTPS0REllZ5gRYLolvQBFiLB11dHv24WFO/PI4WDkDoDuafw1A7hpRxOCGAcFM/zvqHcU7T/AsHBAgBRlxBrQ2ZIr5ujNRv98UUoxYTgx5IZ8TtvpAt5+/T/57k2x5IfbUlninzMxz0INrlAiB/f0sp5qx7Paivj8zjWO71UqLM81N+Lptt5Izy827I/5C+w1VeoAGQuwgzXY7NPnjP9gMII9DsQyjky3RFCtmZjeEABKEDw5rjlFmKwW79dm13ZfvQBLy+ZvV8HVPZMbVwILNv5vGYczmm4xAGIttTsLW1ocQ35EV0XEggVnhH2xm+NINgQn9bGC23PmMSgYEZ9TtZoVAEgWn5C8rCwAyE0SX0nxCBm3PonlxGbHJW/v7a/SXEkERgu14vJfL3eTDRWsIBmee7FdTVDgZmEJiuwcktClGrqLxJIbrJGVrtGJIkDJkcJkkm9/RLecVGizln+5AEs1OSkZwKElhG8EICB07J25Tq5v4+D4YOQl0zS7u2VjHraKnHowbSoPxxP1tdwryiuiJbFWLtKuz51SiMz2d2fbHpJHCwBk2m58xWvgD0a4zFEstoepDIVqrQVLhQn6tSFSORQBCifKxSmUN3TBKxBDC+5lVvkJtJhHtr4AcwpWzLXGd4dJ3f5zKqyj/hymxTKu5nf5fh0Rl0wKQqvynNa+GgB1IvoPs9mVX518hbE66IY0rhOz8DX/mH217lBRpZUleXmK1mXi8i2rkMX3wRGK2B5E2qQTB8KY6ewRpcv7QIf59mbS3IbwYTrYv59fY0hi/NyCWODKpX5FdUb8HEgr5+n7fOqQtO0yrsoQgCdUr9wExIFLEu1vClGUx1uTHWJr+JN2vKOGmrund1uTHWV4vhS4vo6nJrfg7ym2rTA8j/PiViVjlPvYjoKTdG7kfguzkH4b4cXP3T2Z9h7jFyiBb+/W2IeidaEkvy8wOAQw2Q2pCtjL8OhlX5bwIBrwc9U0pILKIj83rruC8iesqkKr8peTUAf58HPbl1H42q/J9qwIyupmQNDog55bbMVgZYB/WDUSIB4ZI9KphsFAYabYjQrUXglKaa+XTmHexmEuEOp/qfMDyZUN/0RvYBEOvVlhYAwFsL3CyjzFK9iE4xibfUwFnEuUkRF+tcADLbRBFDSOje/M2qsCMuHxOeKO/NJzY5q3tD7KpzAXBiaNCj6RGogR+LQJ0T4SnlmuQ3VQBAa4O8erJynngCb02L+qVMEgl9sNc70ZJIqEEaCkUQPJRdrmUztPcqrRn5zVzRJC4hMAoM5b3xl86sKv/wVBIn61wYOdOCfjGJ4KQLsYUE8HRNEVX5i9d1uBZN05pjb84h2OGGpx7q76KpTQQmZ7MfYopaGaB0SkFnf58HUt/yji1LZmTLA00QhIL7aL/rrewvSRIEQVDvM/s3bZOcxR5HzrgxUr8IX3wRd9GAi4eA4GQS/W0iYpOzAICrv1lG5zpXJJaDcgmBgTmMJ/RvMN46J2anNOdOJBB4IEI6g0zR3DWqsG+w0K1FxA4ZF7ntWljGkFGQa7rwlDAoWPk9voxZsR4TrQm1a1Jb3X4z6AoKa8QmExi+uYSpumxrtFymVfnvLwEdDehEAoFpEUNtywheWALi5VTlz6eOWY0vInZC2wVdiwPiEq5rgik2mcBsWwuiyHRN39yYa1DVi4ieqsV4pttyamEZOOQsfNwOsuWBZhZCRqGUuy031MyOK4dckUT+H+OfkKuUFKKWzeoagTRmPlK3E2THtjKm4xAy/9lnHtSgf18CvlACOOQGbimTChKYHdS3jooZp8L9JcR6lZbdMoIXMm8YE0uQtJ+G1daN3A3XlMiEiShCGqyVxzPGEzh5KtvCALLjL0MHARyUu/hwQkSTiIKfiPNWWlbGteIJvPXAA2lQM9Myc18oFEHwjEffUs10i56bFDGmbdVlfq7a8Tj5nMr4zCI6LjgRVZ+TXN2+v5hWkmbF50Axb8Ktys/IA6lXv3L0xTYnmtACqS4O4ZLy/GqKO2+e3PFZTUswvoxZ0YmWySSGbwEn90Htfsz72RX5vKYWljGktDo1LeDc319sclYdWxtrcyI2KW9vamuBdEj+3ZZ7DYaUxVLV17g8Tq3+fKbjCKAeQweTcss4M3a52R/WKsm2lb5abzBtaKssFkR38wzOKtP6lX8XOiZThivY3Q1ctF9ZLNPSV+pA9/oHuWlr5U7KKV42VIr60EEVye6lryo60LTdk0rrzIzu2HBAntJfbMspHED33ZNqQeNwQMD1nsKtNLu30FjLkche7B5oFT0pxKiL0Sh/84Kufch8Gr+B2N0phGZmAZTQxAoHslX8Qz4Igk9XxZ/Kld+9lLX9LUKj6fyqkls9O4zRIqBF2NAW4VrXoC5IusnK/DnstO7DcmxpoOUGz1q3zRqOxUwqKVXTAS9QamMkE5rZsTc/JhhmG0Azy68C6SYnUGkqYW01XoOtbWmlEEmpz5gJq0K3lfDKDbrcP+vW4kHX1N3MjTCuD/vRU2Q2jV8FRqISJnLKaBER0dayXJdjUS20UsfQmvpx1ivI3YaQFwgttsOy8zjQ3CxALoBss1khtKmKGc/IXXlb2VbqytpEO8G2TAopZoq+0fZi9qGNwzfGrZEbQmYrXZtty/2byIzdJ4VUaHFivc0YNyOyEqOgyt22UWGmVtE3KABtWum9XkR0sLRK/mrlf1aNpw2yLZVCSm1NrbU/w452Au0na6U1ttb95avF2bYlBEaXMOTV36OtOamtRQkAIyey9SOLqckJ1KLnoPwlY/R50NMKDHOiBK3TtlUKKWe70T7saqSdwKhL0Si48rqUNFX5i5uSnpll2tqQN47srQOC43KAhUIJhAflWpTDqMUBJNQA800kIRWsySmXHRsa9ABIInCpiEsjKqCiJ4UQ2dVaLazc22YtrqLGQzZwirhnnxMHtIWRFfVOtIguXc3JgupFnFRLpdXIRZu36ntgZFsMNKJtsNYkELMJILn3FdVC20AzD4ADRnfElzGLEheaVIpZa8uoXWGY0fow0IgswKjLcatnrE0tLOOkshxPaw3ap5PoAAAs4m5CVFc68HtrEJ6aK+qcfq9cQPdcnRtjnbXwsdIKrQMDjWgbrWeq/aaMoelWu5ZXBVdKT+lXR5BXOVD4tCsdaNdwK2B4KomhXg/asYzgBYYZrQ8DjchCSg7AUsfQcta101ujLFm5Y3UsA0UbyBLfQyOyo3JaZ2vtb/cvzRIVsm3Lx1DlY9UJInux+4cettCIiMgWGGhERGQL7HIkIiJbYAuNiIhsgYFGRES2wEAjIiJbYKAREZEtMNCIiMgWGGhERGQLDDQiIrIFBhoREdkCA42IiGyBgUZERLbAQCMiIltgoBERkS0w0IiIyBYYaEREZAsMNCIisgUGGhER2QIDjYiIbIGBRkREtsBAIyIiW2CgERGRLTDQiIjIFhhoRERkCww0IiKyBQYaERHZAgONiIhsgYFGRES2wEAjIiJbYKAREZEtMNCIiMgWGGhERGQLDDQiIrIFBhoREdkCA42IiGzh/wH6T/KoCViffwAAAABJRU5ErkJggg==;" vertex="1" parent="1">
          <mxGeometry x="30" y="1780" width="436" height="120" as="geometry" />
        </mxCell>
        <mxCell id="4WqvR_2e5_eg9FRiqzZN-18" value="聚集索引条件查找 Where columns = &#39;&#39;" style="text;html=1;strokeColor=none;fillColor=none;align=center;verticalAlign=middle;whiteSpace=wrap;rounded=0;fontStyle=1;fontColor=#FF0000;" vertex="1" parent="1">
          <mxGeometry x="100" y="1754" width="280" height="30" as="geometry" />
        </mxCell>
        <mxCell id="4WqvR_2e5_eg9FRiqzZN-11" value="" style="rounded=0;whiteSpace=wrap;html=1;fontColor=#FF0000;labelBackgroundColor=none;sketch=1;fillColor=none;" vertex="1" parent="1">
          <mxGeometry x="30" y="1610" width="420" height="270" as="geometry" />
        </mxCell>
        <mxCell id="4WqvR_2e5_eg9FRiqzZN-12" value="" style="rounded=0;whiteSpace=wrap;html=1;fontColor=#FF0000;labelBackgroundColor=none;sketch=1;fillColor=none;" vertex="1" parent="1">
          <mxGeometry x="450" y="1610" width="410" height="270" as="geometry" />
        </mxCell>
      </root>
    </mxGraphModel>
  </diagram>
</mxfile>
